<?xml version="1.0" encoding="utf-8"?>
<!-- Generator: Adobe Illustrator 23.0.3, SVG Export Plug-In . SVG Version: 6.00 Build 0)  -->
<svg version="1.1" id="Capa_1" xmlns="http://www.w3.org/2000/svg" xmlns:xlink="http://www.w3.org/1999/xlink" x="0px" y="0px"
	 viewBox="0 0 512 512" style="enable-background:new 0 0 512 512;" xml:space="preserve">
<style type="text/css">
	.st0{fill:#808080;}
</style>
<path class="st0" d="M440,40L440,40c-6.6,0-12-5.4-12-12V12c0-6.6-5.4-12-12-12h-16c-6.6,0-12,5.4-12,12v16c0,6.6-5.4,12-12,12H136
	c-6.6,0-12-5.4-12-12V12c0-6.6-5.4-12-12-12H96c-6.6,0-12,5.4-12,12v16c0,6.6-5.4,12-12,12h0C32.2,40,0,72.2,0,112v328
	c0,39.8,32.2,72,72,72h368c39.8,0,72-32.2,72-72V112C512,72.2,479.8,40,440,40z M472,133v15v40v12v240c0,17.7-14.3,32-32,32H72
	c-17.7,0-32-14.3-32-32V200v-12v-40v-15v-21c0-17.7,14.3-32,32-32h0c6.6,0,12,5.4,12,12v16c0,6.6,5.4,12,12,12h16
	c6.6,0,12-5.4,12-12V92c0-6.6,5.4-12,12-12h240c6.6,0,12,5.4,12,12v16c0,6.6,5.4,12,12,12h16c6.6,0,12-5.4,12-12V92
	c0-6.6,5.4-12,12-12h0c17.7,0,32,14.3,32,32V133z"/>
<g>
	<g>
		<path class="st0" d="M94,206h4c9.9,0,18,8.1,18,18v4c0,9.9-8.1,18-18,18h-4c-9.9,0-18-8.1-18-18v-4C76,214.1,84.1,206,94,206z"/>
	</g>
</g>
<g>
	<g>
		<path class="st0" d="M174,206h4c9.9,0,18,8.1,18,18v4c0,9.9-8.1,18-18,18h-4c-9.9,0-18-8.1-18-18v-4C156,214.1,164.1,206,174,206z
			"/>
	</g>
</g>
<g>
	<g>
		<path class="st0" d="M254,206h4c9.9,0,18,8.1,18,18v4c0,9.9-8.1,18-18,18h-4c-9.9,0-18-8.1-18-18v-4C236,214.1,244.1,206,254,206z
			"/>
	</g>
</g>
<g>
	<g>
		<path class="st0" d="M334,206h4c9.9,0,18,8.1,18,18v4c0,9.9-8.1,18-18,18h-4c-9.9,0-18-8.1-18-18v-4C316,214.1,324.1,206,334,206z
			"/>
	</g>
</g>
<g>
	<g>
		<path class="st0" d="M414,206h4c9.9,0,18,8.1,18,18v4c0,9.9-8.1,18-18,18h-4c-9.9,0-18-8.1-18-18v-4C396,214.1,404.1,206,414,206z
			"/>
	</g>
</g>
<g>
	<g>
		<path class="st0" d="M94,286h4c9.9,0,18,8.1,18,18v4c0,9.9-8.1,18-18,18h-4c-9.9,0-18-8.1-18-18v-4C76,294.1,84.1,286,94,286z"/>
	</g>
</g>
<g>
	<g>
		<path class="st0" d="M174,286h4c9.9,0,18,8.1,18,18v4c0,9.9-8.1,18-18,18h-4c-9.9,0-18-8.1-18-18v-4C156,294.1,164.1,286,174,286z
			"/>
	</g>
</g>
<g>
	<g>
		<path class="st0" d="M254,286h4c9.9,0,18,8.1,18,18v4c0,9.9-8.1,18-18,18h-4c-9.9,0-18-8.1-18-18v-4C236,294.1,244.1,286,254,286z
			"/>
	</g>
</g>
<g>
	<g>
		<path class="st0" d="M334,286h4c9.9,0,18,8.1,18,18v4c0,9.9-8.1,18-18,18h-4c-9.9,0-18-8.1-18-18v-4C316,294.1,324.1,286,334,286z
			"/>
	</g>
</g>
<g>
	<g>
		<path class="st0" d="M94,366h4c9.9,0,18,8.1,18,18v4c0,9.9-8.1,18-18,18h-4c-9.9,0-18-8.1-18-18v-4C76,374.1,84.1,366,94,366z"/>
	</g>
</g>
<g>
	<g>
		<path class="st0" d="M174,366h4c9.9,0,18,8.1,18,18v4c0,9.9-8.1,18-18,18h-4c-9.9,0-18-8.1-18-18v-4C156,374.1,164.1,366,174,366z
			"/>
	</g>
</g>
<g>
	<g>
		<path class="st0" d="M254,366h4c9.9,0,18,8.1,18,18v4c0,9.9-8.1,18-18,18h-4c-9.9,0-18-8.1-18-18v-4C236,374.1,244.1,366,254,366z
			"/>
	</g>
</g>
<g>
	<g>
		<path class="st0" d="M334,366h4c9.9,0,18,8.1,18,18v4c0,9.9-8.1,18-18,18h-4c-9.9,0-18-8.1-18-18v-4C316,374.1,324.1,366,334,366z
			"/>
	</g>
</g>
<g>
	<g>
		<path class="st0" d="M414,286h4c9.9,0,18,8.1,18,18v4c0,9.9-8.1,18-18,18h-4c-9.9,0-18-8.1-18-18v-4C396,294.1,404.1,286,414,286z
			"/>
	</g>
</g>
</svg>
