<?xml version="1.0" encoding="utf-8"?>
<!-- Generator: Adobe Illustrator 23.1.0, SVG Export Plug-In . SVG Version: 6.00 Build 0)  -->
<svg version="1.1" id="Layer_1" xmlns="http://www.w3.org/2000/svg" xmlns:xlink="http://www.w3.org/1999/xlink" x="0px" y="0px"
	 viewBox="0 0 300 300" style="enable-background:new 0 0 300 300;" xml:space="preserve">
<style type="text/css">
	.st0{fill:#BABABA;}
</style>
<g>
	<path class="st0" d="M150.1,0C67.4,0,0.3,67.1,0.3,149.8s67.1,149.8,149.8,149.8s149.8-67.1,149.8-149.8C300,67.1,232.9,0,150.1,0z
		 M289.3,159.1c-3.8,0.1-6.9,3.3-6.8,7.1c0.1,3.2,2.3,5.8,5.2,6.5c-0.6,3.4-1.3,6.8-2.1,10.1l-70-22.3l-47.3-8
		c0.1-0.8,0.2-1.6,0.2-2.5l47.8,5l73.2-5.1C289.6,153,289.5,156.1,289.3,159.1z M282.6,193.7c-0.1,0-0.3-0.1-0.4-0.1
		c-3.7-0.9-7.5,1.4-8.4,5.1c-0.8,3.3,0.9,6.5,3.8,7.9c-1.5,3.3-3,6.5-4.7,9.6l-62.1-39.4L167,157.1c0.4-0.8,0.6-1.7,0.9-2.6L213,171
		l72.4,12.8C284.6,187.2,283.6,190.5,282.6,193.7z M211.9,274.2c-2-3.3-6.3-4.2-9.6-2.2c-2.8,1.8-4,5.3-2.8,8.3c-3,1.1-6,2.2-9,3.1
		L174,211.5l-17.2-44.7c0.8-0.3,1.5-0.7,2.3-1.1l19.9,43.6l41.9,60.7c-2.8,1.7-5.7,3.2-8.7,4.7C212.1,274.6,212,274.4,211.9,274.2z
		 M175.4,286.3c-1.1-3.7-5-5.7-8.7-4.6c-3.1,1-5,3.9-4.8,7c-3.5,0.3-7.1,0.5-10.7,0.5l4.4-73.6l-3.9-47.7c1.1-0.1,2.2-0.3,3.2-0.5
		l8.8,47.1l25.9,69.1c-4.6,1.3-9.2,2.5-14,3.3C175.5,286.8,175.5,286.5,175.4,286.3z M97.8,271.8c-3.3-0.7-6.5,1-7.8,3.9
		c-2.5-1.2-5-2.5-7.4-3.9l39.9-62l19.9-43.5c0.8,0.4,1.7,0.7,2.5,0.9l-16.7,44.9l-13.4,72.6c-4.1-1.1-8.1-2.3-12-3.7
		c0.1-0.3,0.3-0.6,0.3-1C103.9,276.3,101.6,272.6,97.8,271.8z M27.7,201.3c-1.8-2.8-5.3-3.8-8.2-2.7c-1.1-2.9-2.1-5.9-3-8.9
		l71.6-16.5l44.8-17.3c0.3,0.8,0.7,1.6,1.1,2.3l-43.5,20.2L30,220.8c-1.8-3.1-3.5-6.2-5.1-9.4c0.3-0.1,0.5-0.2,0.8-0.4
		C28.9,208.9,29.8,204.5,27.7,201.3z M11.2,138.4c0.3,0,0.7,0.1,1,0c3.8-0.2,6.7-3.5,6.5-7.4c-0.2-3.2-2.6-5.8-5.7-6.4
		c0.5-2.9,1.1-5.8,1.8-8.7l69.8,22.3l47.4,8c-0.1,0.8-0.2,1.6-0.2,2.5l-47.8-5l-73.2,5.1C10.7,145.4,10.9,141.9,11.2,138.4z
		 M18.3,104.2c0.3,0.1,0.6,0.2,1,0.3c3.8,0.8,7.4-1.7,8.1-5.5c0.6-3.2-1.1-6.4-4-7.7c1.3-2.9,2.7-5.7,4.3-8.5L89.5,122l43.9,19.8
		c-0.4,0.8-0.7,1.7-0.9,2.5l-45.2-16.5L15,115.1C16,111.4,17.1,107.8,18.3,104.2z M89.3,25.7c2.2,3.2,6.5,4,9.6,1.8
		c2.7-1.9,3.7-5.4,2.5-8.4c2.8-1.1,5.7-2,8.6-2.9l16.3,71.1l17.3,45c-0.8,0.3-1.5,0.7-2.2,1.1l-20.1-43.9L79.9,29.3
		c2.9-1.7,5.8-3.3,8.8-4.7C88.8,25,89,25.3,89.3,25.7z M13,175.3c0.3-0.1,0.6-0.1,0.9-0.2c3.6-1.2,5.6-5.1,4.4-8.8
		c-1-3.1-4-4.9-7.1-4.7c-0.3-3.9-0.5-7.8-0.5-11.7l73.2,4.7l47.9-3.7c0.1,1.1,0.2,2.2,0.5,3.3L85,162.9l-68.8,25.9
		C14.9,184.4,13.9,179.9,13,175.3z M145.5,131.7l-8.8-47.4L111,15.9c3.9-1.1,7.9-2.1,11.9-2.9c0.1,0.4,0.2,0.8,0.3,1.3
		c1.3,3.6,5.3,5.5,8.9,4.2c3.1-1.1,5-4.3,4.5-7.5c4.1-0.4,8.3-0.6,12.4-0.6l-4.4,72.8l3.9,48.1C147.6,131.3,146.5,131.5,145.5,131.7
		z M167.7,17.6c3.2,0,5.9-2.2,6.7-5.1c3.4,0.6,6.7,1.3,9.9,2.1L161.7,84l-8.3,47.5c-0.9-0.2-1.8-0.2-2.7-0.3l4.9-48l-5.4-72.8
		c3.6,0,7.1,0.2,10.6,0.4C160.9,14.5,163.9,17.6,167.7,17.6z M200.9,26.4c3.1,0.8,6.2-0.6,7.8-3.3c3,1.4,5.9,2.8,8.7,4.4L177.9,89
		l-20,43.8c-0.8-0.4-1.7-0.6-2.5-0.9l16.8-45.2l13.2-71.9c3.6,0.9,7.1,2,10.6,3.2C195,21.7,197.2,25.5,200.9,26.4z M230.6,43.5
		c2.8,1.6,6.2,1,8.4-1.2c3.3,2.7,6.4,5.5,9.4,8.5l-55,48.2L162,135.6c-0.8-0.7-1.6-1.3-2.5-1.8l27.7-39.5l31-66.2
		c3.3,1.9,6.6,3.8,9.8,6C226.1,37.4,227.3,41.6,230.6,43.5z M255.1,67.5c2.3,2.3,5.8,2.6,8.4,1c2.1,2.9,4.1,5.9,5.9,8.9l-65,33.5
		l-39.2,27.9c-0.5-0.7-1-1.3-1.6-1.9l37.5-30.3l48.1-55.1c2,2,3.9,4.1,5.8,6.3C252.3,60.5,252.3,64.9,255.1,67.5z M272.5,97.1
		c1.7,2.8,5,4,8,3.1c1.1,3,2.2,5.9,3.1,9l-71.4,16.4l-44.9,17.3c-0.3-0.8-0.7-1.6-1.2-2.3l43.7-20.3l60-41.9c1.8,3,3.5,6.1,5,9.2
		l0,0C271.6,89.5,270.6,93.8,272.5,97.1z M286.9,122.5c-0.1,0-0.2,0-0.3,0.1c-3.7,1.1-5.8,4.9-4.7,8.6c0.9,3.2,3.9,5.2,7.1,5
		c0.4,4.2,0.6,8.5,0.7,12.8l-73.2-4.7l-47.9,3.8c-0.1-1.1-0.3-2.2-0.6-3.3l47.3-8.9l68.6-25.8C285.1,114.1,286.1,118.3,286.9,122.5z
		 M59.6,43.8c0.2,0.3,0.5,0.6,0.8,0.8c2.9,2.5,7.3,2.2,9.8-0.7c2.1-2.5,2.2-6,0.4-8.6c2.7-1.9,5.6-3.7,8.4-5.4L112,95l27.6,39.4
		c-0.8,0.5-1.5,1.1-2.1,1.7l-30.6-37.2L51.4,51.3C54,48.7,56.8,46.2,59.6,43.8z M50.6,52.1l48.7,54.5l36.8,31
		c-0.7,0.8-1.3,1.6-1.8,2.5l-39.6-27.4L28.3,82c1.9-3.5,4-6.9,6.3-10.2c0.3,0.2,0.6,0.4,1,0.6c3.4,1.7,7.6,0.2,9.3-3.2
		c1.4-3,0.6-6.5-1.9-8.5C45.3,57.7,47.9,54.9,50.6,52.1z M43.4,239.6c0.3-0.3,0.6-0.5,0.9-0.8c2.6-2.8,2.3-7.2-0.5-9.8
		c-2.5-2.2-6.2-2.3-8.8-0.4c-1.6-2.3-3.1-4.6-4.5-7l65.4-33.7l39-27.7c0.5,0.7,1,1.3,1.6,1.9l-37.3,30.1l-48.4,55.6
		C48.3,245.1,45.8,242.4,43.4,239.6z M51.5,248.5l55.3-48.6l31.2-36.4c0.8,0.7,1.6,1.3,2.5,1.9L113,204.6l-31.3,66.8
		c-3.9-2.2-7.7-4.6-11.4-7.2c0.2-0.3,0.4-0.6,0.6-0.9c1.8-3.4,0.4-7.6-3-9.3c-3-1.5-6.5-0.7-8.5,1.8C56.7,253.4,54,251,51.5,248.5z
		 M138.5,288.8c0-0.2,0.1-0.5,0-0.7c-0.2-3.8-3.4-6.8-7.2-6.6c-3.2,0.1-5.9,2.5-6.5,5.5c-3.1-0.6-6.1-1.2-9.1-2l22.9-70.1l8.3-47.1
		c0.9,0.2,1.8,0.2,2.7,0.3l-4.8,47.6l5.4,73.6l0,0C146.2,289.3,142.3,289.1,138.5,288.8z M241.5,255.2c-0.2-0.3-0.4-0.5-0.6-0.7
		c-2.8-2.6-7.2-2.5-9.8,0.3c-2.4,2.5-2.5,6.3-0.4,9c-2.9,2.1-5.9,4.1-9,5.9L188.3,204l-27.5-39.2c0.8-0.5,1.5-1.1,2.1-1.8l30.4,37
		l56,47.9C246.8,250.4,244.2,252.8,241.5,255.2z M250,247.2l-49-54.9l-36.7-30.9c0.7-0.8,1.3-1.6,1.8-2.5l39.4,27.3l66.9,30.8
		c-2.1,3.7-4.3,7.4-6.6,10.9c-0.2-0.2-0.4-0.3-0.7-0.5c-3.4-1.8-7.6-0.6-9.4,2.8c-1.6,3-0.8,6.7,1.8,8.7
		C255.1,241.8,252.6,244.5,250,247.2z"/>
</g>
</svg>
