<?xml version="1.0" encoding="utf-8"?>
<!-- Generator: Adobe Illustrator 23.0.3, SVG Export Plug-In . SVG Version: 6.00 Build 0)  -->
<svg version="1.1" id="Layer_1" xmlns="http://www.w3.org/2000/svg" xmlns:xlink="http://www.w3.org/1999/xlink" x="0px" y="0px"
	 viewBox="0 0 500 500" style="enable-background:new 0 0 500 500;" xml:space="preserve">
<style type="text/css">
	.st0{fill:#878787;}
</style>
<g>
	<path class="st0" d="M489.9,83.5c0,8.6-3.9,17.2-11.3,22.8L246.4,281.8l-30.3,22.9c-9.8,7.4-23.3,7.2-32.9-0.4l-29.7-23.7L35.1,186
		c-12.3-9.8-14.3-27.8-4.5-40c5.6-7,13.9-10.7,22.3-10.7c6.2,0,12.5,2,17.8,6.2L193,239.2c4.4,3.5,10.5,3.6,15,0.2L444.2,60.8
		c12.5-9.5,30.4-7,39.9,5.5C488,71.5,489.9,77.5,489.9,83.5z"/>
</g>
</svg>
