<?xml version="1.0" encoding="utf-8"?>
<!-- Generator: Adobe Illustrator 23.0.3, SVG Export Plug-In . SVG Version: 6.00 Build 0)  -->
<svg version="1.1" id="Layer_1" xmlns="http://www.w3.org/2000/svg" xmlns:xlink="http://www.w3.org/1999/xlink" x="0px" y="0px"
	 viewBox="0 0 500 500" style="enable-background:new 0 0 500 500;" xml:space="preserve">
<style type="text/css">
	.st0{fill:#2B63A5;}
	.st1{fill:url(#SVGID_1_);}
	.st2{fill:#92D0FF;}
	.st3{fill:url(#SVGID_2_);}
	.st4{fill:#94FFDB;}
	.st5{fill:url(#SVGID_3_);}
	.st6{fill:url(#SVGID_4_);}
	.st7{fill:url(#SVGID_5_);}
	.st8{fill:url(#SVGID_6_);}
	.st9{fill:none;stroke:#B3D3F4;stroke-miterlimit:10;}
	.st10{fill:none;stroke:#B3D3F4;stroke-miterlimit:10;stroke-dasharray:4.0094,4.0094;}
	.st11{fill:#F3FAFF;}
	.st12{fill:#B3D3F4;}
	.st13{fill:#CFE0F5;}
	.st14{fill:#FFF4E1;}
	.st15{fill:#E6F1FC;}
	.st16{fill:#FC8975;}
	.st17{fill:#CC6658;}
	.st18{fill:#352E72;}
	.st19{fill:url(#SVGID_7_);}
	.st20{fill:#75A1E9;}
	.st21{fill:url(#SVGID_8_);}
	.st22{fill:none;stroke:#4A578E;stroke-width:0.5;stroke-miterlimit:10;}
	.st23{fill:#081466;}
	.st24{fill:url(#SVGID_9_);}
	.st25{fill:#2D4CBA;}
	.st26{fill:url(#SVGID_10_);}
	.st27{fill:#D3D3D3;}
	.st28{fill:#FFFFFF;}
	.st29{fill:#353535;}
	.st30{font-family:'Montserrat-Regular';}
	.st31{font-size:7.3946px;}
	.st32{font-size:11.0919px;}
	.st33{opacity:0.55;fill:#C9D3F4;}
	.st34{fill:url(#SVGID_11_);}
	.st35{opacity:0.35;fill:#C9D3F4;}
	.st36{fill:url(#SVGID_12_);}
	.st37{fill:url(#SVGID_13_);}
	.st38{fill:url(#SVGID_14_);}
	.st39{fill:url(#SVGID_15_);}
	.st40{fill:url(#SVGID_16_);}
	.st41{fill:url(#SVGID_17_);}
	.st42{opacity:0.75;}
	.st43{fill:url(#SVGID_18_);}
	.st44{fill:#A2C0ED;}
	.st45{fill:url(#SVGID_19_);}
	.st46{fill:#ABD1FF;}
	.st47{opacity:0.75;fill:url(#SVGID_20_);}
	.st48{fill:url(#SVGID_21_);}
	.st49{fill:url(#SVGID_22_);}
	.st50{fill:url(#SVGID_23_);}
	.st51{fill:#352E73;}
	.st52{fill:url(#SVGID_24_);}
	.st53{opacity:0.35;fill:url(#SVGID_25_);}
	.st54{fill:url(#SVGID_26_);}
	.st55{opacity:0.35;fill:url(#SVGID_27_);}
	.st56{fill:url(#SVGID_28_);}
	.st57{opacity:0.75;fill:url(#SVGID_29_);}
	.st58{opacity:0.75;fill:url(#SVGID_30_);}
	.st59{fill:#F42A73;}
	.st60{fill:none;stroke:#CFE0F5;stroke-miterlimit:10;}
</style>
<g>
	<g>
		<path class="st0" d="M36.7,395c37.9,0,431.4,0,446,0c14.5,0-11.5,7.6-20,16.1c-8.5,8.5-8,12.1-29.2,18.5
			c-45.6,13.9-65.1-13.3-137.5-2.6c-30.8,4.6-70.2,13.2-101.2,8.6c-26.1-3.9-32.5-21.7-52.2-23.2c-30.3-2.2-45.4,0-73.1-1.4
			C45.7,410-1.2,395,36.7,395z"/>
		<g>
			<g>
				<g>
					<linearGradient id="SVGID_1_" gradientUnits="userSpaceOnUse" x1="416.231" y1="395.044" x2="416.231" y2="240.7452">
						<stop  offset="0" style="stop-color:#466DE5"/>
						<stop  offset="1" style="stop-color:#78BFFF"/>
					</linearGradient>
					<path class="st1" d="M377.2,395c-1.4-49.1,9.7-108.7,48.3-142.5c6.2-5.4,13.8-12.4,22.6-11.8c4.1,0.3,6.1,5,6.7,8.5
						c1.1,6.2,0,12.6-1.5,18.7c-8.4,33.8-36,93-43,127.1"/>
				</g>
				<g>
					<g>
						<path class="st2" d="M442.4,253.9c-25.8,33.5-40.1,75.6-43.7,117.5c-0.7,7.6-1,15.2-0.5,22.8c0,0.3,0.6,0.4,0.5,0
							c-0.9-36.2,7.7-73.5,23.3-106c5.8-12,12.7-23.4,20.7-34.1C442.9,253.9,442.5,253.7,442.4,253.9L442.4,253.9z"/>
					</g>
				</g>
				<g>
					<g>
						<linearGradient id="SVGID_2_" gradientUnits="userSpaceOnUse" x1="445.0597" y1="395.044" x2="445.0597" y2="287.4258">
							<stop  offset="0" style="stop-color:#05B18B"/>
							<stop  offset="1" style="stop-color:#1FCED1"/>
						</linearGradient>
						<path class="st3" d="M410.4,395c5.2-31.8,10.6-57.7,28.8-84.3c7.5-10.9,21.9-24.4,33.4-23.3c12.3,1.2,3.6,19.8-3.7,33.7
							c-9.7,18.5-16.9,38.7-20.2,59.4c1-6.2,5.3-24,18.1-31.8c3.7-2.3,13-3.7,13,4c0,13.5-13.1,29.7-16.4,42.3"/>
					</g>
					<g>
						<g>
							<path class="st4" d="M468.7,297.1c-7.3,9.3-12.5,20.4-17.4,31.1c-6.5,14.1-12.2,28.6-16.4,43.6c-2.1,7.3-3.8,14.8-4.4,22.3
								c0,0.3,0.4,0.2,0.4,0c1.7-14.2,6-28,11-41.3c5.1-13.9,11.1-27.5,18.1-40.5c2.7-5.1,5.6-10.2,9.2-14.8
								C469.2,297.2,468.9,296.9,468.7,297.1L468.7,297.1z"/>
						</g>
					</g>
					<g>
						<g>
							<path class="st4" d="M472.5,353.7c-10.6,10.6-15.2,27-17.9,41.3c-0.1,0.3,0.4,0.4,0.5,0.1c3.2-14.3,7.2-30.2,17.7-41.1
								C472.9,353.8,472.6,353.5,472.5,353.7L472.5,353.7z"/>
						</g>
					</g>
				</g>
			</g>
			<g>
				<g>
					<linearGradient id="SVGID_3_" gradientUnits="userSpaceOnUse" x1="178.2943" y1="369.1806" x2="107.617" y2="298.5033">
						<stop  offset="0" style="stop-color:#05B18B"/>
						<stop  offset="1" style="stop-color:#1FCED1"/>
					</linearGradient>
					<path class="st5" d="M119.2,395c-7.5-61.9-2-88.9,5-106.1c3.3-8,8-15.9,14.7-21.6c26.7-22.6,25.9,21.3,24.7,34.6
						c-2.9,30.3-10.5,62.7-11.1,93"/>
				</g>
				<g>
					<linearGradient id="SVGID_4_" gradientUnits="userSpaceOnUse" x1="76.8795" y1="395.044" x2="76.8795" y2="262.3583">
						<stop  offset="0" style="stop-color:#05B18B"/>
						<stop  offset="1" style="stop-color:#1FCED1"/>
					</linearGradient>
					<path class="st6" d="M95.1,395c-0.8-19.5-9.5-38.5-20.6-54.2C63.3,325,48,312.4,38,295.8c-5.4-8.9-13.9-22.9-1.3-30.2
						c13.9-8.1,34.4,0.4,45.6,9.6c12.2,10.1,20.2,24.3,26.9,38.4c11.8,24.9,14.2,53.9,14.4,81.4"/>
				</g>
				<g>
					
						<linearGradient id="SVGID_5_" gradientUnits="userSpaceOnUse" x1="51.2986" y1="402.4282" x2="51.2986" y2="324.0197" gradientTransform="matrix(0.9978 6.670000e-02 -6.670000e-02 0.9978 24.4703 -11.6883)">
						<stop  offset="0" style="stop-color:#05B18B"/>
						<stop  offset="1" style="stop-color:#1FCED1"/>
					</linearGradient>
					<path class="st7" d="M97.8,395c0.1-19.8-10-40.8-26-56.3c-10.4-10.1-22.9-19.6-37.1-23.8c-7.4-2.2-28-5.6-30.1,6.7
						C3.8,326.3,8,335.1,18,343c14,11.1,52.6,28.3,57.2,52"/>
				</g>
				<g>
					<g>
						<path class="st4" d="M14,322.4c25.3,7,49.3,24.4,62.1,47.5c4.2,7.7,7.2,16,8.8,24.6c0.1,0.3,0.5,0.2,0.4-0.1
							c-4.9-29.1-26.7-52.3-52.5-65.2c-6-3-12.3-5.5-18.8-7.3C13.9,322,13.8,322.4,14,322.4L14,322.4z"/>
					</g>
				</g>
				<g>
					<g>
						<path class="st4" d="M43.4,273.5c13,7,23.6,18.2,32.1,30c11.3,15.7,19.4,33.7,24.4,52.3c3.4,12.7,5.4,25.6,6.3,38.7
							c0,0.5,0.7,0.5,0.7,0c-1.9-39-16.5-80.3-45.1-107.8c-5.5-5.3-11.6-10-18.3-13.6C43.3,273,43.2,273.4,43.4,273.5L43.4,273.5z"
							/>
					</g>
				</g>
				<g>
					<g>
						<path class="st4" d="M148.9,267c-6.4,15.3-10.2,31.7-12.7,48.1c-2.6,17-3.9,34.2-4.3,51.5c-0.2,9.3-0.3,18.7,0.1,28
							c0,0.4,0.6,0.4,0.6,0c-0.2-33.9,0.7-68.2,8.6-101.3c2.1-8.9,4.7-17.6,8.1-26.1C149.5,266.8,149,266.7,148.9,267L148.9,267z"/>
					</g>
				</g>
			</g>
			<g>
				<g>
					<linearGradient id="SVGID_6_" gradientUnits="userSpaceOnUse" x1="46.2856" y1="398.7756" x2="68.8301" y2="359.7274">
						<stop  offset="0" style="stop-color:#05B18B"/>
						<stop  offset="1" style="stop-color:#1FCED1"/>
					</linearGradient>
					<path class="st8" d="M78.9,395c-2.4-10.7-4.5-21.8-10.9-31.1c-4.2-6-12.7-14.4-20.2-14.3c-5.6,0.1-6.9,5.5-6.3,10.4
						c1.7,12.8,8.8,16.7,11.5,30.5c-1.4-5.2-9.8-23.3-17.2-16.4c-8.2,7.6,4,20.9,4,20.9"/>
				</g>
				<g>
					<g>
						<path class="st4" d="M38.9,377.6c4.5,5.3,8.3,10.9,10.8,17.5c0.1,0.3,0.5,0.2,0.4-0.1c-1.7-6.7-6.4-12.5-10.9-17.6
							C39,377.2,38.7,377.5,38.9,377.6L38.9,377.6z"/>
					</g>
				</g>
				<g>
					<g>
						<path class="st4" d="M50.6,357.7c9.8,10.2,14.4,24.5,19.2,37.5c0.1,0.3,0.5,0.2,0.4-0.1c-1.7-5.8-4-11.5-6.5-17.1
							c-3.3-7.3-7.2-14.7-12.9-20.5C50.7,357.2,50.4,357.5,50.6,357.7L50.6,357.7z"/>
					</g>
				</g>
			</g>
		</g>
		<g>
			<g>
				<g>
					<line class="st9" x1="296.2" y1="294.1" x2="298.2" y2="294.1"/>
					<path class="st10" d="M302.2,294.1h133.3c21.6,0,39-17.5,39-39s-17.5-39-39-39H138c-11.4,0-20.7-9.3-20.7-20.7v0
						c0-11.4,9.3-20.7,20.7-20.7h250c10.1,0,18.3-8.2,18.3-18.3c0-10.1-8.2-18.3-18.3-18.3H159.3c-5.6,0-10.1-4.5-10.1-10.1
						c0-5.6,4.5-10.1,10.1-10.1h62.5"/>
					<line class="st9" x1="223.8" y1="117.8" x2="225.8" y2="117.8"/>
				</g>
			</g>
			<g>
				<path class="st11" d="M241.5,85.2c-11.6-2-22.5,5.8-24.5,17.4c-1.2,7.1,1.3,14,6.1,18.7l-2.9,5.8l6.4-3c2.3,1.4,4.9,2.5,7.7,2.9
					c11.6,2,22.5-5.8,24.5-17.4C260.9,98.1,253.1,87.1,241.5,85.2z"/>
				<path class="st12" d="M228.5,116.1l-2.2-2.6c-0.8-1-0.7-2.5,0.3-3.4l2.5-2.1c1-0.8,2.5-0.7,3.4,0.3c0,0,1.2,1.8,2.5,1.4
					c1.6-0.4,4.9-2.8,6.8-4.7c1.3-1.3-0.9-3.7-0.9-3.7c-0.8-1-0.7-2.5,0.3-3.4l2.5-2.1c1-0.8,2.5-0.7,3.4,0.3l2.2,2.6
					C254.3,104.6,232.8,121.3,228.5,116.1z"/>
			</g>
			<g>
				<path class="st11" d="M334,117.4c3.1-3,4.4-6.1,8.8-7.1c0.9-0.2,1.8-0.3,2.6-0.8c2.1-1.3,1.7-4.3,2.2-6.7
					c0.9-4.7,7-7.6,11.5-5.6c1.9,0.9,3.6,2.4,5.6,2.3c4.1-0.3,3.6-5.4,6.5-8.3c2.7-2.7,8.1-3.1,11.6-1.4c2.4,1.2,4.5,2.9,6.1,4.9
					c1.7,2.2,1.6,5.5,2.8,7.9c1.2,2.3,4,3.3,5.3,5.6c1.1,2,1.4,4.1,0.5,6.2c-1.8,4.2-7,7.3-11.6,7.3c-7.6,0-63.5,0-63.5,0
					S330.5,120.7,334,117.4z"/>
			</g>
			<g>
				<path class="st11" d="M182,87.2c-2.7-2.6-3.8-5.2-7.4-6c-0.7-0.2-1.5-0.3-2.2-0.7c-1.8-1.1-1.4-3.6-1.8-5.6
					c-0.8-3.9-5.9-6.4-9.7-4.7c-1.6,0.7-3,2.1-4.8,1.9c-3.5-0.2-3.1-4.6-5.5-7c-2.3-2.3-6.9-2.6-9.8-1.2c-2,1-3.8,2.4-5.2,4.2
					c-1.4,1.8-1.4,4.7-2.4,6.7c-1,2-3.4,2.8-4.4,4.7c-0.9,1.7-1.2,3.5-0.4,5.2c1.5,3.6,5.9,6.2,9.8,6.2c6.4,0,53.7,0,53.7,0
					S184.9,90.1,182,87.2z"/>
			</g>
			<g>
				<g>
					<polygon class="st13" points="429.5,145.2 392.2,125.2 402,96.1 447.4,119.6 					"/>
					<polygon class="st13" points="447.4,119.6 402,96.1 434.4,89.2 					"/>
					
						<rect x="397.4" y="103.5" transform="matrix(0.888 0.4598 -0.4598 0.888 102.3274 -178.571)" class="st14" width="40.9" height="34.6"/>
					<polygon class="st15" points="402,96.1 386.7,125.6 416.5,123.6 					"/>
					<polygon class="st15" points="447.4,119.6 432.1,149.1 416.5,123.6 					"/>
					<polygon class="st15" points="432.1,149.1 386.7,125.6 421.2,114.6 					"/>
					<polygon class="st15" points="432.1,149.1 386.7,125.6 419.1,118.7 					"/>
				</g>
			</g>
			<g>
				<g>
					<polygon class="st13" points="130.2,157.5 99.8,165.1 90.7,144.2 127.3,134.6 					"/>
					<polygon class="st13" points="127.3,134.6 90.7,144.2 105,124.4 					"/>
					
						<rect x="96.5" y="137.2" transform="matrix(0.9667 -0.256 0.256 0.9667 -34.6736 33.5871)" class="st14" width="30.3" height="25.6"/>
					<polygon class="st15" points="90.7,144.2 97,168 112.3,152.1 					"/>
					<polygon class="st15" points="127.3,134.6 133.6,158.3 112.3,152.1 					"/>
					<polygon class="st15" points="133.6,158.3 97,168 110.5,144.9 					"/>
					<polygon class="st15" points="133.6,158.3 97,168 111.3,148.2 					"/>
				</g>
			</g>
		</g>
		<g>
			<g>
				<path class="st16" d="M249.8,116l1.1-1.8c0,0-0.3-1.3-0.3-2.8c0-0.7,0.2-2.6,0.5-2.7c0.3-0.2,0.4,1.6,0.5,1.5
					c0.1-0.1,1-3.5,1.5-3.4c0.3,0-0.6,3.3-0.6,3.3s0.9-3.6,1.3-3.5c0.4,0.1-0.6,3.5-0.6,3.5s0.8-3.2,1.2-3.1
					c0.3,0.1-0.5,3.3-0.5,3.3s0.8-2.8,1-2.7c0.3,0.2,0,2.2-0.8,4.9c-0.1,0.5-0.8,2-0.9,2.2c0,0.1-0.8,3-0.8,3"/>
				<g>
					<g>
						<path class="st17" d="M251.7,110.5c0.3,0.5,0.6,1,0.8,1.6c0.2,0.7,0,1.3-0.2,1.9c0,0.1,0.1,0.1,0.1,0.1
							c0.7-1.4,0.2-2.5-0.6-3.7C251.7,110.4,251.6,110.4,251.7,110.5L251.7,110.5z"/>
					</g>
				</g>
			</g>
			<g>
				<path class="st18" d="M211,328.2c0,0,6.6,2.4,6.6,4.4c0,1.1-9.6,1.1-10.2,0.3c-1-1.2,0.7-4.5,0.7-4.5L211,328.2z"/>
				<path class="st16" d="M210.8,322.8l0.1,5.6c0,0-0.2,0.9-1.2,1c-1,0.1-1.6-1-1.6-1l-0.3-7"/>
				
					<linearGradient id="SVGID_7_" gradientUnits="userSpaceOnUse" x1="450.2991" y1="323.0544" x2="450.2991" y2="195.114" gradientTransform="matrix(-0.8756 2.350000e-02 2.690000e-02 0.9996 592.7382 -8.8687)">
					<stop  offset="0" style="stop-color:#29225E"/>
					<stop  offset="1" style="stop-color:#3F368C"/>
				</linearGradient>
				<path class="st19" d="M215.3,197.9c0,0,3.6,21.8,1.8,63.6c-1.2,28.5-5.1,63-6.5,63.1c-1.4,0-2.7-0.1-2.7-0.1s-9-41.3-9.6-64.6
					c-0.9-35.9-10.4-44.1-6.3-62.7"/>
				<polygon class="st20" points="211.5,322.3 211.3,324.7 207.3,324.8 207.2,322.4 				"/>
			</g>
			<g>
				<path class="st18" d="M190.6,328.8c0,0,6.6,2.4,6.6,4.4c0,1.1-9.6,1.1-10.2,0.3c-1-1.2,0.7-4.5,0.7-4.5L190.6,328.8z"/>
				<path class="st16" d="M190.5,323.3l0.1,5.6c0,0-0.2,0.9-1.2,1c-1,0.1-1.6-1-1.6-1l-0.3-7"/>
				
					<linearGradient id="SVGID_8_" gradientUnits="userSpaceOnUse" x1="464.9253" y1="323.0695" x2="464.9253" y2="195.1215" gradientTransform="matrix(-0.8756 2.350000e-02 2.690000e-02 0.9996 592.7382 -8.8687)">
					<stop  offset="0" style="stop-color:#29225E"/>
					<stop  offset="1" style="stop-color:#3F368C"/>
				</linearGradient>
				<path class="st21" d="M203.7,198.2c0,0-1.7,27.7-3.8,59.7c-0.8,12.6-8.1,65.4-9.1,67.2c-1.4,0-3.6,0.1-3.6,0.1s-5.5-45.7-6.1-69
					c-0.9-35.9-4.8-40.2-0.7-58.8"/>
				<polygon class="st20" points="191.3,322.8 191,325.3 187.1,325.4 186.9,322.9 				"/>
				<path class="st22" d="M202.8,212.3c0,0-1.4,35.4-4,56.1"/>
			</g>
			<g>
				<path class="st23" d="M207.5,124.5c-2.2-4-8.3-3.4-11.8-1.5c-4.9,2.6-6.1,9.9-10.7,13.1c-2,1.4-4.5,2.2-6.2,4.1
					c-1.9,2.2-2.3,5.5-1.3,8.3c1,2.8,3.1,5,5.5,6.5c2.5,1.5,5.2,2.3,8,3c4.5,1,9.2,1.6,13.5,0.1c4.3-1.5,8.1-5.5,8.1-10.2
					c0-4-2.6-7.6-2.2-11.6"/>
			</g>
			<g>
				<linearGradient id="SVGID_9_" gradientUnits="userSpaceOnUse" x1="213.1604" y1="166.6614" x2="271.6032" y2="138.7597">
					<stop  offset="0" style="stop-color:#2D6AC7"/>
					<stop  offset="1" style="stop-color:#1FCED1"/>
				</linearGradient>
				<path class="st24" d="M250.1,114.6c0,0-11.8,16.9-14.5,20.8c-4.2,6-21.5,7.2-30.7,12.6l-6.4,0.7c-3,0.6-13.5,8.1-14.5,11.1
					c-2.2,6.9-4.5,13.8-4.9,21c-0.1,2.4-0.1,4.9,0,7.4c0.1,3.5,0.2,7.1,0.3,10.6c0,0.2,0,0.5,0.2,0.7c0.2,0.2,0.4,0.3,0.7,0.3
					c11.6,2.7,23.6,1.2,35.4-0.2c0.4-0.1,0.9-0.1,1.2-0.4c0.4-0.4,0.4-0.9,0.4-1.4c0.1-2.3-0.1-4.5-0.2-6.8c-0.4-9.8,0-19.7,1-29.4
					c3.7-2.3,18.8-7,23.8-14.1c11.3-15.8,11.3-32,11.3-32L250.1,114.6z"/>
			</g>
			<g>
				<path class="st16" d="M204.9,148l-0.2-8.1l-3.6,0.5l-2.6,8.2c0,0,1.2,1.7,3.8,1.3C204.7,149.7,204.9,148,204.9,148z"/>
			</g>
			<g>
				<path class="st16" d="M197.3,136.6c-0.2-3.2,0.8-6.6,2.4-8.5c1.7-1.9,4.8-2.1,7.1-1.8c0.8,0.1,1.6,0.4,2.2,0.9
					c2.3,1.9,2.1,6.3,2,8.9c-0.1,2.3-0.8,4.6-2.2,6.3c-0.4,0.6-1,1.1-1.6,1.3c-2.2,0.9-5.3,0.4-7.1-1.1
					C198.2,141.3,197.4,138.9,197.3,136.6z"/>
			</g>
			<g>
				<path class="st23" d="M196.2,139.2c-0.8,0.4-2.2,0.7-2.8-0.2c-0.5-0.7-0.1-1.9,0.1-2.6c0.6-2.6,1.3-5.1,2.2-7.6
					c0.5-1.3,1-2.6,1.7-3.6c1.6-2.1,6-3.1,8.6-2.9c2.9-0.2,7.4,4.5,4.9,9.9c-0.4-1.3-0.9-1.2-1.9-2.3c-0.9,0.9-2.2,1.4-3.6,1.6
					c-1.7,0.2-3.7-0.2-5,1c-1.3,1.2-1,3.4-2,5C198.1,138.1,197.2,138.7,196.2,139.2z"/>
			</g>
			<g>
				<path class="st16" d="M199.2,137.2c0.1-0.7-0.4-1.2-0.8-1.3c-1.3-0.1-1.7,1.9-1.2,2.9c0.4,0.7,1.3,1.3,1.8,0.4"/>
			</g>
			<g>
				<g>
					<g>
						<path class="st23" d="M201.4,142c-0.3,0-0.6-0.1-1-0.2c-0.7-0.2-1.8-0.6-2.5-1.6c-0.3-0.4-0.4-0.7-0.4-1
							c0-0.1,0.1-0.2,0.1-0.2c0.1,0,0.2,0.1,0.2,0.1c0,0.3,0.1,0.6,0.3,0.9c0.7,0.9,1.6,1.3,2.3,1.5c0.9,0.2,1.9,0.2,2.7,0.2
							c0.1,0,0.2,0.1,0.2,0.1c0,0.1-0.1,0.2-0.1,0.2C202.7,142,202,142,201.4,142z"/>
					</g>
					<g>
						<path class="st23" d="M203.9,141.5c-0.2-0.1-0.6-0.1-0.8,0c-0.9,0.3,0.1,1.5,0.9,0.9c0.1-0.1,0.1-0.1,0.2-0.2
							C204.3,141.9,204.2,141.6,203.9,141.5z"/>
					</g>
				</g>
				<g>
					<g>
						<path class="st20" d="M195.1,131.8c0.2-2.1,1-4.5,2.3-6.2c1.7-2.1,3.9-3.9,6-3.9c1.8,0,2.7,0.4,2.7,0.4
							c-2.2,0.5-4.1,1.6-5.8,3.4c-1.7,1.8-2.8,4.4-2.8,6.9"/>
					</g>
				</g>
				<path class="st20" d="M200.5,135.3c0.2,2.4-1.3,4.5-3.5,4.7c-2.2,0.2-4.1-1.5-4.4-3.9c-0.2-2.4,1.3-4.5,3.5-4.7
					C198.3,131.2,200.2,132.9,200.5,135.3z"/>
				<path class="st25" d="M198.6,135.7c0.2,1.6-0.8,3.1-2.3,3.2c-1.4,0.2-2.7-1.1-2.9-2.7c-0.2-1.6,0.8-3.1,2.3-3.2
					C197.2,132.9,198.5,134.1,198.6,135.7z"/>
			</g>
		</g>
		<g>
			<linearGradient id="SVGID_10_" gradientUnits="userSpaceOnUse" x1="344.5688" y1="440.753" x2="192.5685" y2="177.4807">
				<stop  offset="0" style="stop-color:#B3D3F4"/>
				<stop  offset="1" style="stop-color:#D3DCED"/>
			</linearGradient>
			<polygon class="st26" points="277.1,128.7 145,244.4 145,403.4 409.2,403.4 409.2,244.4 			"/>
			<rect x="158.3" y="169.4" class="st27" width="237.5" height="217.6"/>
			<g>
				<rect x="171.9" y="197.6" class="st28" width="210.3" height="18.6"/>
				<rect x="171.9" y="224.9" class="st28" width="210.3" height="18.6"/>
				<rect x="171.9" y="252.2" class="st28" width="210.3" height="110.5"/>
				<text transform="matrix(1 0 0 1 178.75 209.0259)" class="st29 st30 st31">name</text>
				<text transform="matrix(1 0 0 1 178.75 236.9634)" class="st29 st30 st31">Email</text>
				<text transform="matrix(1 0 0 1 178.75 264.2251)" class="st29 st30 st31">mesage</text>
				<text transform="matrix(1 0 0 1 239.9946 188.8862)" class="st29 st30 st32">contact us</text>
			</g>
			<polygon class="st33" points="277.1,345.3 145,244.4 145,387 409.2,387 409.2,244.4 			"/>
			<linearGradient id="SVGID_11_" gradientUnits="userSpaceOnUse" x1="344.5688" y1="440.753" x2="209.6317" y2="207.0351">
				<stop  offset="0" style="stop-color:#CDE8FF"/>
				<stop  offset="1" style="stop-color:#EEE7E9"/>
			</linearGradient>
			<polygon class="st34" points="277.1,361.8 145,244.4 145,403.4 409.2,403.4 409.2,244.4 			"/>
			<polygon class="st35" points="277.1,278.9 145,403.4 409.2,403.4 			"/>
			<linearGradient id="SVGID_12_" gradientUnits="userSpaceOnUse" x1="343.1569" y1="469.487" x2="211.0436" y2="337.3737">
				<stop  offset="0" style="stop-color:#CDE8FF"/>
				<stop  offset="1" style="stop-color:#EEE7E9"/>
			</linearGradient>
			<polygon class="st36" points="277.1,291 145,403.4 409.2,403.4 			"/>
		</g>
		<g>
			<g>
				
					<linearGradient id="SVGID_13_" gradientUnits="userSpaceOnUse" x1="-5.2943" y1="415.1787" x2="23.3275" y2="365.6043" gradientTransform="matrix(-1 0 0.2126 1 311.9314 0)">
					<stop  offset="0" style="stop-color:#05B18B"/>
					<stop  offset="1" style="stop-color:#1FCED1"/>
				</linearGradient>
				<path class="st37" d="M363.5,411.2c-2.7-13.9,0.1-28.2,5.7-40.2c3.6-7.8,12-18.7,21.4-18.5c7,0.1,9.9,7.1,10.3,13.4
					c1.1,16.5-6.7,21.6-6.7,39.4c0.4-6.8,6.9-28.7,17.1-21.2c10,7.3,0.3,27,0.3,27"/>
			</g>
			<g>
				<g>
					<path class="st4" d="M408.5,388.4c-4.2,6.8-8,14.6-8.4,22.8c0,0.2,0.4,0.3,0.4,0.1c1.1-8.2,4.2-15.5,8.3-22.6
						C408.9,388.4,408.6,388.2,408.5,388.4L408.5,388.4z"/>
				</g>
			</g>
			<g>
				<g>
					<path class="st4" d="M389.9,362.6c-5.5,7.7-8,17.4-10,26.5c-1.6,7.3-2.7,14.7-3.3,22.1c0,0.2,0.4,0.3,0.4,0.1
						c1-7.2,1.9-14.5,3.4-21.6c1.9-9.2,4.4-19,9.8-26.8C390.3,362.5,390,362.4,389.9,362.6L389.9,362.6z"/>
				</g>
			</g>
		</g>
		<g>
			<g>
				<path class="st16" d="M188.9,186.3c0,0,1.7,1.2,2.3,1.2c0.6,0,1.9-0.4,3.6-0.2c0.7,0.1,2.6,0.5,2.7,0.8c0.1,0.3-1.7,0.3-1.7,0.4
					c0,0.1,3.4,1.4,3.3,1.9c-0.1,0.3-3.3-1-3.3-1s3.6,1.2,3.4,1.6c-0.2,0.4-3.6-0.9-3.6-0.9s3.2,1.2,3,1.5c-0.2,0.3-3.3-0.5-3.3-0.5
					s2.7,0.6,2.6,0.9c-0.1,0.2-3.1-0.2-5.6-1.2c-2.4-0.9-4.3-2.4-4.3-2.4"/>
			</g>
			<g>
				<linearGradient id="SVGID_14_" gradientUnits="userSpaceOnUse" x1="195.882" y1="160.9196" x2="161.8342" y2="193.0759">
					<stop  offset="0" style="stop-color:#2D6AC7"/>
					<stop  offset="1" style="stop-color:#1FCED1"/>
				</linearGradient>
				<path class="st38" d="M190.1,162.3c-3,4.5-9.8,9.7-13.6,12.9c2.2,2.9,14.5,12.1,14.5,12.1l-1.1,2.7c0,0-23.4-4.2-24.2-15.8
					c-0.4-6.9,8.3-17.1,15.1-21.9c6.4-4.5,13.8-5.2,17.8-3.6"/>
			</g>
		</g>
		<g>
			<g>
				<path class="st16" d="M361.7,212.8c-2.6-1.1-6.3-4.2-5.8-6c0.2-0.8,2,1.3,2.5,0.8c0.3-0.3,0.1-1.9-0.9-2.6
					c-0.9-0.7-2.9-2.1-2.4-2.6c0.5-0.5,5.2,0.6,6.3,2.2c0.7,1,1.4,3.3,1.9,5.7l2,2.5"/>
			</g>
			<g>
				<path class="st18" d="M411.3,413.9c0,0-8.1,2.4-8.1,4.3c0,1.1,11.8,0.8,12.6,0.1c1.1-1.1-1-4.2-1-4.2L411.3,413.9z"/>
				<path class="st16" d="M411.3,408.8v5.3c0,0,0.3,0.9,1.5,1c1.2,0.1,2-1,2-1l0.1-6.6"/>
				<linearGradient id="SVGID_15_" gradientUnits="userSpaceOnUse" x1="399.9814" y1="350.025" x2="432.0052" y2="350.025">
					<stop  offset="0" style="stop-color:#1C1C1C"/>
					<stop  offset="1" style="stop-color:#0A0A0A"/>
				</linearGradient>
				<path class="st39" d="M401.7,291c0,0-3.7,20.6-0.1,60c2.4,26.9,8.3,59.3,10.1,59.3c1.7,0,3.3-0.2,3.3-0.2s9.8-39.3,9.8-61.2
					c0-33.9,11.4-41.9,5.7-59.3"/>
				<polygon class="st20" points="410.4,408.3 410.8,410.6 415.7,410.6 415.8,408.3 				"/>
			</g>
			<g>
				<path class="st18" d="M436.4,413.9c0,0-8.1,2.4-8.1,4.3c0,1.1,11.8,0.8,12.6,0.1c1.1-1.1-1-4.2-1-4.2L436.4,413.9z"/>
				<path class="st16" d="M436.4,408.8v5.3c0,0,0.3,0.9,1.5,1c1.2,0.1,2-1,2-1l0.1-6.6"/>
				<linearGradient id="SVGID_16_" gradientUnits="userSpaceOnUse" x1="416.0528" y1="350.025" x2="447.6217" y2="350.025">
					<stop  offset="0" style="stop-color:#1C1C1C"/>
					<stop  offset="1" style="stop-color:#0A0A0A"/>
				</linearGradient>
				<path class="st40" d="M416.1,291c0,0,3,26.1,6.7,56.2c1.4,11.9,12.1,61.5,13.4,63.2c1.7,0,4.4,0,4.4,0s5.3-43.3,5.3-65.3
					c0-33.9,4.6-38.1-1-55.5"/>
				<polygon class="st20" points="435.4,408.3 435.8,410.6 440.7,410.6 440.8,408.3 				"/>
				<path class="st22" d="M417.6,304.2c0,0,2.9,33.4,6.7,52.9"/>
			</g>
			<g>
				<linearGradient id="SVGID_17_" gradientUnits="userSpaceOnUse" x1="404.26" y1="248.0098" x2="404.26" y2="294.6998">
					<stop  offset="0" style="stop-color:#1FCED1"/>
					<stop  offset="1" style="stop-color:#2D6AC7"/>
				</linearGradient>
				<path class="st41" d="M445.9,286.7c0-2.2,1.7-39.4-4.8-47.8c-1.8-3.9-8.6-8.3-14-10.3c-4.7-1.7-7.7-0.4-9.9-0.1
					c-9.1-2.6-29.8-0.9-35.6-3.8c-3.2-1.6-18-14.5-18-14.5l-2.8,2.2c0,0,8.9,18.5,18.8,25c7,4.6,17.4,7.1,23,8.2
					c-0.1,1-0.1,2.1-0.2,3.4c-0.3,6.6-1.1,18.3-0.3,37.7c0.1,1.8-1.9,4.2-1.9,5.4c0,1.2,2.4,5.1,22.4,5.1c16.9,0,25-2.5,25-5.3
					C447.6,289.1,445.9,288.9,445.9,286.7z"/>
				<g class="st42">
					<linearGradient id="SVGID_18_" gradientUnits="userSpaceOnUse" x1="402.4303" y1="241.8199" x2="403.3915" y2="241.8199">
						<stop  offset="0" style="stop-color:#FCC73C"/>
						<stop  offset="1" style="stop-color:#FC7A3C"/>
					</linearGradient>
					<path class="st43" d="M403.1,238c0.1,1.3,0.1,2.6,0,3.8c-0.1,1.3-0.2,2.5-0.5,3.8c-0.1-1.3-0.1-2.6,0-3.8
						C402.7,240.5,402.9,239.3,403.1,238z"/>
				</g>
			</g>
			<g>
				<path class="st16" d="M416.1,205.8c-0.8,3-2.6,11.2-0.9,13.8c1.7,2.5,5.3,3.3,8.1,2.1c2.8-1.2,4.7-3.9,5.6-6.8
					c0.9-2.9,0.9-6,0.7-9"/>
			</g>
			<path class="st16" d="M419.3,216.7l-1.2,9.9c0,0,0.4,2.8,1.9,3.8c3.7-0.1,5.6-3.6,5.6-3.6l-1.1-12.8"/>
			<g>
				<path class="st18" d="M425.9,208.6c-1.9-0.7-4.6-0.4-7-0.9c-1.7-0.3-3.5-0.3-5.1-1c-2.9-1.3-2.6-5.6-0.3-7.3
					c0.6-0.4,1.5-0.9,2.3-0.7c0.8,0.2,1.2,1.1,1.9,1.4c0.4,0.2,0.8,0.2,1.3,0.2c0.3,0,0.6-0.1,0.9-0.3c0.4-0.4,0.6-0.9,1-1.3
					c0.4-0.4,0.9-0.6,1.4-0.7c1.1-0.3,2.4-0.1,3.3,0.5c0.3,0.2,0.6,0.5,1,0.7c0.6,0.2,1.3,0.2,1.9,0.5c1.6,0.9,2.7,3.2,2.8,4.9
					c0,0.3,0.5,0.6,0.6,0.7c1.6,1.9,1.7,4.5,1.3,6.8c-0.4,2.3-1.2,4.5-3.1,6c-0.6,0.5-1.6,0.8-2.5,1.1
					C424.3,220.4,426,211.2,425.9,208.6"/>
			</g>
			<g>
				<path class="st16" d="M426.3,213.7c0-0.7,1-1.2,1.7-0.8c0.4,0.3,0.6,0.6,0.7,1c0.1,0.9-0.6,2.3-1.7,2.5
					c-0.4,0.1-0.9-0.5-0.9-0.9"/>
			</g>
			<g>
				<g>
					<g>
						<path class="st23" d="M422.8,219.6c0.3,0,0.6-0.1,1-0.2c0.7-0.2,1.8-0.6,2.5-1.6c0.3-0.4,0.4-0.7,0.4-1c0-0.1-0.1-0.2-0.1-0.2
							c-0.1,0-0.2,0.1-0.2,0.1c0,0.3-0.1,0.5-0.3,0.8c-0.7,0.9-1.6,1.3-2.3,1.5c-0.9,0.2-1.9,0.2-2.7,0.1c-0.1,0-0.2,0.1-0.2,0.1
							c0,0.1,0.1,0.2,0.1,0.2C421.5,219.7,422.2,219.7,422.8,219.6z"/>
					</g>
					<g>
						<path class="st23" d="M420.3,219.1c0.2-0.1,0.6-0.1,0.8,0c0.9,0.3-0.1,1.5-0.9,0.9c-0.1-0.1-0.1-0.1-0.2-0.2
							C419.9,219.6,420,219.3,420.3,219.1z"/>
					</g>
				</g>
				<g>
					<g>
						<path class="st20" d="M429.1,209.7c-0.2-2.1-1-4.4-2.3-6c-1.7-2.1-3.9-3.8-6-3.8c-1.8,0-2.7,0.4-2.7,0.4
							c2.2,0.5,4.1,1.6,5.8,3.4c1.7,1.8,2.8,4.3,2.8,6.8"/>
					</g>
				</g>
				<path class="st20" d="M423.7,213.1c-0.2,2.3,1.3,4.4,3.5,4.6c2.2,0.2,4.1-1.5,4.4-3.8c0.2-2.3-1.3-4.4-3.5-4.6
					C425.9,209.1,424,210.8,423.7,213.1z"/>
				<path class="st44" d="M425.6,213.5c-0.2,1.6,0.8,3,2.3,3.2c1.4,0.1,2.7-1,2.9-2.6c0.2-1.6-0.8-3-2.3-3.2
					C427,210.7,425.7,211.9,425.6,213.5z"/>
			</g>
			<g>
				<g>
					<path class="st44" d="M420.1,284h-39.9l-3.9-24.1c-0.2-1,0.6-2,1.7-2h35.5c1.4,0,2.5,1,2.7,2.3L420.1,284z"/>
					<linearGradient id="SVGID_19_" gradientUnits="userSpaceOnUse" x1="414.1161" y1="288.809" x2="379.6817" y2="254.3746">
						<stop  offset="0" style="stop-color:#5789EE"/>
						<stop  offset="1" style="stop-color:#78BFFF"/>
					</linearGradient>
					<path class="st45" d="M418.9,284h-39.9l-3.9-24.1c-0.2-1,0.6-2,1.7-2h35.5c1.4,0,2.5,1,2.7,2.3L418.9,284z"/>
					<path class="st46" d="M399.1,270.3c-0.4-2-2-3.5-3.5-3.2c-1.5,0.3-2.3,2.1-1.9,4.1c0.4,2,2,3.5,3.5,3.2
						C398.7,274.2,399.5,272.4,399.1,270.3z"/>
				</g>
				<g>
					<linearGradient id="SVGID_20_" gradientUnits="userSpaceOnUse" x1="406.5122" y1="259.1117" x2="446.1357" y2="259.1117">
						<stop  offset="0" style="stop-color:#FCC73C"/>
						<stop  offset="1" style="stop-color:#FC7A3C"/>
					</linearGradient>
					<path class="st47" d="M441.2,238.9c-1.8-3.9-6.7-5.6-12-7.5l-1.5,18.2c0.7,8.3,3.7,20.3,3.7,20.3l-16.7,12.6l0,0
						c-0.3,0.2-0.6,0.4-0.7,0.4c-0.2,0-1.8-0.9-2.7-0.8c-0.9,0.1-1.8,0.2-1.8,0.5c0,0.3,1.3,0.3,1.3,0.6s-0.9,0.9-1.3,0.9
						s-2.8-0.2-2.9,0c-0.1,0.2,0.5,1.2,1.2,1.8c0.3,0.3,1.4,0.7,2.1,0.7c1.7,0,4.2-0.6,4.5-0.8c0.3-0.2,1-0.6,1.6-0.9l0.6,1
						c0,0,22.7-1.8,29.6-4.9C446.3,269.9,446.2,245.6,441.2,238.9z"/>
					<path class="st16" d="M416.1,281.7c0,0-1.8,1.1-2.1,1.1c-0.2,0-1.8-0.8-2.7-0.7c-0.9,0.1-1.8,0.2-1.8,0.4
						c0,0.3,1.3,0.3,1.3,0.5s-0.9,0.8-1.3,0.8s-2.8-0.1-2.9,0c-0.1,0.1,0.5,1.1,1.2,1.6c0.3,0.2,1.4,0.6,2.1,0.6
						c1.7,0,4.2-0.5,4.5-0.7c0.6-0.4,3.2-1.5,3.2-1.5"/>
					<linearGradient id="SVGID_21_" gradientUnits="userSpaceOnUse" x1="431.3041" y1="248.0099" x2="431.3041" y2="287.9296">
						<stop  offset="0" style="stop-color:#2D6AC7"/>
						<stop  offset="1" style="stop-color:#1FCED1"/>
					</linearGradient>
					<path class="st48" d="M427.2,228.7c0,0,11.7,0.7,17.2,11.5c5.5,10.8,3.8,33.8,0.4,37.2c-3.4,3.4-29.2,7.6-29.2,7.6l-1-2.4
						l18.2-11.4c0,0-5.7-19-5.7-26.7"/>
				</g>
			</g>
			<g>
				<linearGradient id="SVGID_22_" gradientUnits="userSpaceOnUse" x1="423.6261" y1="234.2318" x2="423.6261" y2="226.8371">
					<stop  offset="0" style="stop-color:#FCAE3C"/>
					<stop  offset="1" style="stop-color:#FC7A3C"/>
				</linearGradient>
				<path class="st49" d="M420.1,230.5c0.8,0.8,1.2,2,2,3.7c3.9-1.3,5.1-5.6,5.1-5.6l-1.5-1.8C425.6,226.8,422.6,230,420.1,230.5z"
					/>
				<linearGradient id="SVGID_23_" gradientUnits="userSpaceOnUse" x1="418.2988" y1="233.6523" x2="418.2988" y2="226.6335">
					<stop  offset="0" style="stop-color:#FCAE3C"/>
					<stop  offset="1" style="stop-color:#FC7A3C"/>
				</linearGradient>
				<path class="st50" d="M420.1,230.5c-0.8,0.8-1.4,1.8-1.9,3.2c-1-1-1.7-4.5-1.6-5c0.5-0.7,1.6-2,1.6-2S418.4,228.8,420.1,230.5z"
					/>
			</g>
		</g>
		<g>
			<g>
				<g>
					<path class="st51" d="M80.6,412.8c0,0-8.1,2.4-8.1,4.3c0,1.1,11.8,0.8,12.6,0.1c1.1-1.1-0.9-4.6-0.9-4.6L80.6,412.8z"/>
					<path class="st16" d="M80.6,407.7v5.3c0,0,0.3,0.9,1.5,1c1.2,0.1,2-1,2-1l0.1-6.6"/>
					<linearGradient id="SVGID_24_" gradientUnits="userSpaceOnUse" x1="71.4516" y1="331.5944" x2="100.0689" y2="331.5944">
						<stop  offset="0" style="stop-color:#1C1C1C"/>
						<stop  offset="1" style="stop-color:#0A0A0A"/>
					</linearGradient>
					<path class="st52" d="M83.2,262.1c-5.4,7-11.8,26.8-11.8,64.5c0,26.6,8.6,82.3,8.6,82.3l4.9,0.4
						c15.8-99.6,10.4-98.6,14.4-116.3c2.5-11.1-2.5-39.1-2.5-39.1"/>
					<linearGradient id="SVGID_25_" gradientUnits="userSpaceOnUse" x1="94.0364" y1="336.7676" x2="94.0364" y2="301.8302">
						<stop  offset="0" style="stop-color:#29225E"/>
						<stop  offset="1" style="stop-color:#3F368C"/>
					</linearGradient>
					<path class="st53" d="M96.3,324.6c0,0-3.4-18.9-3.4-22.8c-1.5,7.7-1.5,17.7,0,24.7c1.1,5.2,2.2,10.2,2.2,10.2L96.3,324.6z"/>
					<path class="st20" d="M79.9,407.5v2.1c0,0,5.2,0.9,5.2,0.5c0-0.3,0.2-2.4,0.2-2.4L79.9,407.5z"/>
				</g>
				<g>
					<path class="st51" d="M123.6,412.8c0,0,8.1,2.4,8.1,4.3c0,1.1-11.8,0.8-12.6,0.1c-1.1-1.1,0.9-4.6,0.9-4.6L123.6,412.8z"/>
					<path class="st16" d="M122.7,407.7l0.9,5.3c0,0-0.3,0.9-1.5,1c-1.2,0.1-2-1-2-1l-1-6.6"/>
					<linearGradient id="SVGID_26_" gradientUnits="userSpaceOnUse" x1="91.4173" y1="331.5944" x2="124.2715" y2="331.5944">
						<stop  offset="0" style="stop-color:#1C1C1C"/>
						<stop  offset="1" style="stop-color:#0A0A0A"/>
					</linearGradient>
					<path class="st54" d="M109.5,258.9c5.3,9,14.8,27.5,14.8,65.2c0,26.6-0.7,84.8-0.7,84.8l-4.2,0.4c-13.6-38-25-86.5-27.6-114.7
						c-1.1-11.3,1-40.6,1-40.6"/>
					<linearGradient id="SVGID_27_" gradientUnits="userSpaceOnUse" x1="96.9409" y1="270.8139" x2="96.9409" y2="255.8072">
						<stop  offset="0" style="stop-color:#29225E"/>
						<stop  offset="1" style="stop-color:#3F368C"/>
					</linearGradient>
					<path class="st55" d="M110.1,260c-4.8-1.5-11.3-3-17.5-4.2c0,0.2,0,0.4,0,0.7l-9.3,5.5c-1.1,1.4-2.2,3.4-3.4,5.9
						c2.8,1.1,6.7,2.2,11.9,2.7c7.7,0.7,17.3-0.8,22.2-3.1C112.6,264.5,111.3,262,110.1,260z"/>
					<path class="st20" d="M124.3,407.1v2.1c0,0-5.4,0.9-5.4,0.5c0-0.3-0.2-2.4-0.2-2.4L124.3,407.1z"/>
				</g>
			</g>
			<g>
				<g>
					<path class="st16" d="M151.8,239.1l1.7-0.9c0,0,0.3-1.2,1-2.5c0.3-0.6,1.3-2,1.7-2s-0.4,1.5-0.2,1.5s2.4-2.4,2.8-2.1
						c0.2,0.1-2,2.5-2,2.5s2.3-2.6,2.6-2.3c0.3,0.3-2.1,2.7-2.1,2.7s2.2-2.3,2.4-2.1c0.2,0.2-1.9,2.5-1.9,2.5s2-2,2.1-1.7
						c0.1,0.3-1,1.8-2.9,3.7c-0.3,0.3-1.6,1.3-1.7,1.4c-0.1,0.1-2,2.1-2,2.1"/>
					<g>
						<g>
							<path class="st17" d="M155.9,235.4c0,0.6,0.1,1.2-0.1,1.7c-0.2,0.6-0.6,1-1,1.5c-0.1,0.1,0,0.2,0.1,0.1
								c1.2-0.8,1.3-2,1.1-3.3C156,235.3,155.9,235.3,155.9,235.4L155.9,235.4z"/>
						</g>
					</g>
				</g>
				<g>
					<path class="st16" d="M37.7,205.8l-1.2-1.6c0,0,0.2-1.2,0.1-2.7c-0.1-0.7-0.4-2.4-0.7-2.5c-0.3-0.1-0.3,1.5-0.4,1.5
						c-0.1-0.1-1.3-3.2-1.7-3.1c-0.2,0,0.9,3.1,0.9,3.1s-1.1-3.3-1.5-3.2c-0.4,0.1,0.8,3.3,0.8,3.3s-1.1-3-1.4-2.9
						c-0.3,0.1,0.8,3,0.8,3s-1-2.6-1.2-2.4c-0.3,0.3,0.2,2.1,1.2,4.6c0.2,0.4,0.9,1.9,1,2c0,0.1,1,2.7,1,2.7"/>
					<g>
						<g>
							<path class="st17" d="M35.3,200.8c-0.7,1.2-1.1,2.3-0.3,3.5c0,0.1,0.2,0,0.1-0.1c-0.2-0.6-0.4-1.1-0.3-1.7
								c0.1-0.6,0.4-1.1,0.6-1.7C35.4,200.8,35.3,200.7,35.3,200.8L35.3,200.8z"/>
						</g>
					</g>
				</g>
				<g>
					<linearGradient id="SVGID_28_" gradientUnits="userSpaceOnUse" x1="94.4772" y1="224.2041" x2="94.4772" y2="267.674">
						<stop  offset="0" style="stop-color:#2D6AC7"/>
						<stop  offset="1" style="stop-color:#1FCED1"/>
					</linearGradient>
					<path class="st56" d="M153,238.3c0,0-17.7,6.5-21.7,6.5c-3.3,0-9-8.9-16.8-15c-4.9-3.8-10.4-5.9-10.4-5.9l-14.7-0.3
						c-2.8,0-8.3,0.4-13.4,1.1c-7.3,1-14.2,0.7-17.4-0.8c-6.2-2.8-21.7-19.4-21.7-19.4s-1.5-0.3-2.8,1c0,0.8,8,23.6,18.5,30.4
						c7.7,5,19,5.8,26,5.8c0,1.7,0,3,0,4.7c0,2.3-2.8,13.7,0.5,17c3,3,14.4,3.4,18.9,3.4c6.6,0,13.4-1.1,15.1-3.4
						c0.9-1.2,0.7-6.3,0.5-11.1c5.3,3.3,10.1,6.7,16.2,6.7c11.4,0,24.9-17.9,24.9-17.9L153,238.3z"/>
					<linearGradient id="SVGID_29_" gradientUnits="userSpaceOnUse" x1="111.2602" y1="249.908" x2="111.2602" y2="255.7109">
						<stop  offset="0" style="stop-color:#FCC73C"/>
						<stop  offset="1" style="stop-color:#FC7A3C"/>
					</linearGradient>
					<polygon class="st57" points="113.8,255.6 113.7,252.3 108.7,247.3 					"/>
					<linearGradient id="SVGID_30_" gradientUnits="userSpaceOnUse" x1="75.9479" y1="238.1495" x2="79.688" y2="238.1495">
						<stop  offset="0" style="stop-color:#FCC73C"/>
						<stop  offset="1" style="stop-color:#FC7A3C"/>
					</linearGradient>
					<path class="st58" d="M78.7,241.7c0-0.6,1-6.3,1-7.2c-1.5,3.2-3.7,7.1-3.7,7.1L78.7,241.7z"/>
				</g>
			</g>
			<g>
				<g>
					<path class="st59" d="M101.7,197.4c4.2,2.6,3.5,7.9,5.1,11.2c1.2,2.4,3.1,4.4,3.3,7.3c0.2,3.1-3.8,4.6-6,4.2
						c-4.2-0.7-7.9,1.5-12.1,1c-2.9-0.4-1.8-1.8-3.7-4c-1.1-1.3-1.7-3.1-1.9-4.9c-0.2-1.8,0.1-3.5,0.4-5.3"/>
				</g>
				<path class="st16" d="M94,215.4l-0.8,7.6l-3.7,0.6c0,0,2.6,4.7,6.7,4.7c4.1,0,8.1-4.4,8.1-4.4l-4-1.2L98.7,212"/>
				<g>
					<path class="st16" d="M87.9,203c-0.2,2.6-0.5,5.2,0.1,7.7c0.6,2.5,2.1,4.9,4.4,6c1.1,0.5,2.2,0.6,3.4,0.7
						c1.9,0.1,4-0.1,5.6-1.3c1.8-1.4,2.5-3.8,2.4-6.1c-0.1-2.3-1-4.4-1.9-6.5c-0.8-2-1.6-3.9-2.4-5.9"/>
				</g>
				<g>
					<path class="st59" d="M78.4,213.1c-0.8,1-1.8,2-1.9,3.3c-0.1,1.3,0.7,2.5,1.8,3.1c1,0.5,2,0.3,3.1,0.2c1.2-0.1,2.4-0.1,3.6,0.1
						c1,0.2,2,0.6,2.9,0.8c1.4,0.4,3,0.6,4.4,0.4c0.3,0,0.5-0.1,0.7-0.4c0.1-0.3,0-0.6-0.1-0.8c-0.9-1.9-0.9-4.1-0.8-6.3
						c0.1-1.1,0.2-2.2,0.5-3.2c0.3-0.9,0.6-1.7,1-2.6c0.7-1.6,1.6-3.1,2.3-4.7c0.7-1.6,1.1-4.1,3.3-3.7c1.4,0.2,2.1,2.5,3,4
						c1.4-1.6,3-2.6,0-6.5c-1.5-1.9-4.1-1.8-6.4-1.4c-1.3-0.1-1.2-0.6-2.5-0.7c-4.2-0.3-8.7,2.6-10.6,6.4
						C80.8,205.5,81.2,209.7,78.4,213.1z"/>
				</g>
				<g>
					<g>
						<g>
							<path class="st23" d="M92.9,214.5c-0.3,0-0.6-0.1-1-0.2c-0.7-0.2-1.8-0.6-2.5-1.6c-0.3-0.4-0.4-0.7-0.4-1
								c0-0.1,0.1-0.2,0.1-0.2c0.1,0,0.2,0.1,0.2,0.1c0,0.3,0.1,0.5,0.3,0.8c0.7,0.9,1.6,1.3,2.3,1.5c0.9,0.2,1.9,0.2,2.7,0.1
								c0.1,0,0.2,0.1,0.2,0.1c0,0.1-0.1,0.2-0.1,0.2C94.2,214.5,93.5,214.6,92.9,214.5z"/>
						</g>
						<g>
							<path class="st23" d="M95.4,214c-0.2-0.1-0.6-0.1-0.8,0c-0.9,0.3,0.1,1.5,0.9,0.9c0.1-0.1,0.1-0.1,0.2-0.2
								C95.8,214.4,95.7,214.1,95.4,214z"/>
						</g>
					</g>
					<g>
						<g>
							<path class="st23" d="M86.6,204.6c0.2-2.1,1-4.4,2.3-6c1.7-2.1,3.9-3.8,6-3.8c1.8,0,2.7,0.4,2.7,0.4
								c-2.2,0.5-4.1,1.6-5.8,3.4c-1.7,1.8-2.8,4.3-2.8,6.8"/>
						</g>
					</g>
					<path class="st23" d="M92,208c0.2,2.3-1.3,4.4-3.5,4.6c-2.2,0.2-4.1-1.5-4.4-3.8c-0.2-2.3,1.3-4.4,3.5-4.6
						C89.8,204,91.7,205.7,92,208z"/>
					<path class="st25" d="M90.1,208.4c0.2,1.6-0.8,3-2.3,3.2c-1.4,0.1-2.7-1-2.9-2.6c-0.2-1.6,0.8-3,2.3-3.2
						C88.7,205.6,90,206.8,90.1,208.4z"/>
				</g>
			</g>
		</g>
		<g>
			<path class="st60" d="M333.7,106.7l-6.2,2.6c-0.7,0.3-0.8,1.2-0.3,1.7l4.4,3.8c0.6,0.5,1.4,0.2,1.6-0.5l1.8-6.4
				C335.3,107,334.5,106.3,333.7,106.7z"/>
			<path class="st60" d="M67.5,187.5l1.8,6.5c0.2,0.7,1.1,1,1.6,0.5l4.3-3.9c0.5-0.5,0.4-1.4-0.3-1.7l-6.1-2.5
				C68.1,186,67.3,186.7,67.5,187.5z"/>
			<path class="st60" d="M461.4,265.1l4.8-4.7c0.5-0.5,0.3-1.4-0.4-1.7l-5.6-1.9c-0.7-0.2-1.4,0.3-1.3,1.1l0.8,6.6
				C459.8,265.3,460.8,265.7,461.4,265.1z"/>
			<path class="st60" d="M439.1,191.7l1.7,6.5c0.2,0.7,1.1,1,1.6,0.5l4.4-3.9c0.5-0.5,0.4-1.4-0.3-1.7l-6.1-2.6
				C439.7,190.2,438.9,190.9,439.1,191.7z"/>
			
				<rect x="416.4" y="179.2" transform="matrix(0.7945 -0.6073 0.6073 0.7945 -24.0401 291.2358)" class="st13" width="3.8" height="3.8"/>
			
				<rect x="387.3" y="152.2" transform="matrix(0.999 -4.449395e-02 4.449395e-02 0.999 -6.4722 17.4688)" class="st13" width="3.8" height="3.8"/>
			
				<rect x="141.6" y="202.4" transform="matrix(0.9317 -0.3632 0.3632 0.9317 -64.3861 66.0708)" class="st13" width="3.8" height="3.8"/>
			
				<rect x="178.3" y="108.9" transform="matrix(0.9338 0.3579 -0.3579 0.9338 51.6094 -57.175)" class="st13" width="3.8" height="3.8"/>
			
				<rect x="28.1" y="299.9" transform="matrix(0.999 -4.449395e-02 4.449395e-02 0.999 -13.3998 1.6366)" class="st13" width="3.8" height="3.8"/>
		</g>
	</g>
</g>
</svg>
