<?xml version="1.0" encoding="utf-8"?>
<!-- Generator: Adobe Illustrator 23.0.6, SVG Export Plug-In . SVG Version: 6.00 Build 0)  -->
<svg version="1.1" id="Layer_1" xmlns="http://www.w3.org/2000/svg" xmlns:xlink="http://www.w3.org/1999/xlink" x="0px" y="0px"
	 viewBox="0 0 500 500" style="enable-background:new 0 0 500 500;" xml:space="preserve">
<style type="text/css">
	.st0{fill:#F6D5B8;}
	.st1{fill:#2F3E4D;}
	.st2{fill:#886347;}
	.st3{fill:none;}
	.st4{fill:#7B6757;}
	.st5{fill:#1E4160;}
	.st6{fill:#F5D4B8;}
	.st7{fill:#433226;}
	.st8{fill:#FF9E40;}
	.st9{fill:#F9F9F9;}
	.st10{fill:#0076CD;}
	.st11{fill:#A3897A;}
	.st12{fill:#121212;}
	.st13{fill:url(#SVGID_1_);}
	.st14{fill:#F6D9C4;}
	.st15{fill:url(#SVGID_2_);}
	.st16{fill:url(#SVGID_3_);}
	.st17{fill:#43556A;}
	.st18{fill:#A78F5D;}
	.st19{fill:#3B3B3B;}
	.st20{fill:#CB9E69;}
	.st21{fill:#BE3535;}
	.st22{fill:#CFD6D6;}
	.st23{fill:#00B594;}
	.st24{fill:#FFFFFF;}
</style>
<g id="XMLID_835_">
	<g id="XMLID_840_">
		<g id="XMLID_842_">
			<polygon class="st0" points="288.6,166.4 282.4,164.3 283.1,161.6 287.7,162.1 287.5,160.7 292.6,163.1 292.2,166.1 			"/>
		</g>
		<g id="XMLID_841_">
			<polygon class="st1" points="336.7,141.8 319.5,160.6 290,161.1 289.9,166.9 324.8,174.1 349.3,153.1 			"/>
		</g>
	</g>
	<g id="XMLID_839_">
		<path class="st0" d="M353.5,130.7c0.7-1.5,0.8-3.2,0.6-4.9c-0.5-3.5-2.6-7-5.9-8.2c-5-1.9-10.6,1.6-15.8,0.3
			c-0.5,2.1-0.9,4.2-0.8,6.4c0.2,4.6,3.2,9,7.3,10.8c4.1,1.8,9.2,1,12.6-2C352.3,132.4,353,131.6,353.5,130.7z"/>
	</g>
	<g id="XMLID_838_">
		<polygon class="st2" points="333.5,119.7 350.1,120.5 351.1,133.4 356.3,130.5 357.4,109.8 334.5,105.5 323.6,109.7 323,115.6 
			330.9,123 		"/>
	</g>
	<g id="XMLID_837_">
		<path class="st1" d="M336.9,140.7l18.6-3c0,0,16.2,16.6,25.1,41.9c8.9,25.2-5.2,62.2-5.2,62.2s-51.3-7.2-59.7-8.3l13.2-52.4
			L336.9,140.7z"/>
	</g>
	<g id="XMLID_836_">
		<path class="st0" d="M347.9,134.3c0.5,1.5,1.2,2.9,2,4.2c-2.4,0.5-4.8,1-7.2,1.5c-0.3-1.7-0.7-3.4-1-5.1c1.8-0.1,3.6-0.2,5.4-0.4
			L347.9,134.3z"/>
	</g>
</g>
<g id="XMLID_833_">
	<path class="st3" d="M200.6,93.4c-0.4,0.6-0.5,1.5-0.6,2.6C200.2,95.1,200.4,94.2,200.6,93.4z"/>
</g>
<g id="XMLID_832_">
	<polygon class="st4" points="165.3,285.4 164.9,286.6 163.7,290.3 170.1,296.4 175,293.9 172.4,288.9 172.1,288.7 171.9,289.1 	"/>
</g>
<g id="XMLID_831_">
	<path class="st5" d="M199.3,186.7c-3.5,0.7-7.1,1.6-10.2,3.4c-1.5,0.8-2.7,1.9-4,2.9l-0.3,42.3l-19.9,50l0.4,0.2l0.8-2.6l6,5.8
		l36.5-56.3l1.9-6.9l-6.6-39.6C202.4,186.1,200.9,186.4,199.3,186.7z"/>
</g>
<g id="XMLID_830_">
	<polygon class="st5" points="165.3,285.4 171.9,289.1 172.1,288.7 166.1,282.8 	"/>
</g>
<g id="XMLID_829_">
	<path class="st5" d="M213.9,213.8l-3.3,11.7l0.8,4.5l4.6,59.6h0v-0.9h7.3l9.3-63.8l-0.5-39c-1.7-0.2-9.4-1-14.8-1.1L213.9,213.8z"
		/>
</g>
<g id="XMLID_828_">
	<path class="st5" d="M217.4,184.9c-0.7,0-1.4,0-2,0c-3.8,0.1-7.6,0.4-11.4,1l6.6,39.6l3.3-11.7L217.4,184.9z"/>
</g>
<g id="XMLID_827_">
	<polygon class="st4" points="216,289.6 216,292.7 223.8,296.6 227.7,292.7 223.8,288.7 223.3,288.7 223.2,289.6 	"/>
</g>
<g id="XMLID_826_">
	<polygon class="st4" points="216,289.6 223.2,289.6 223.3,288.7 216,288.7 	"/>
</g>
<g id="XMLID_825_">
	<path class="st6" d="M210.1,109.6c0.3-1,0.6-2,1.4-2.5c0.8-0.5,1.8-0.3,2.7-0.6c1.7-0.6,2.4-2.5,2.9-4.1c0.4-1.5,0.9-2.9,1.3-4.4
		c0.2-0.7,0.4-1.3,0.5-2c-2.5-0.9-4.9-2.7-7.5-3.3c-2.9-0.7-8.3-1.8-10.8,0.6c-0.1,0.1-0.1,0.1-0.2,0.2c-0.2,0.9-0.4,1.7-0.6,2.6
		c0,2.5,0.7,5.7,0.6,7c-0.4-0.1-0.7-0.3-1-0.5c0.8,1.2,2.4,2,3.8,2.6c-0.3,1.8-0.5,3.6-0.6,5.4c0.1,0,0.2,0,0.3,0
		c2.4-0.3,4.8-0.5,6.9-0.9C210,109.6,210,109.6,210.1,109.6z"/>
</g>
<g id="XMLID_824_">
	<path class="st7" d="M199.3,99.4c0.2-1.1,0.5-2.3,0.7-3.4c0-1.1,0.1-2.1,0.6-2.6c0.1-0.5,0.2-1,0.3-1.6c0.2-0.9,0.4-1.8,0.9-2.5
		c0.9-1.3,2.5-1.8,4.1-2c4-0.5,8.2,0.5,11.2,3.2c0.8,0.7,1.5,1.6,1.8,2.6c0.3,0.9,0.2,1.9,0.1,2.8c0.6,0.2,1.1,0.4,1.7,0.5
		c2.3,0.4,5.3-0.6,7.3-1.7c2.5-1.4,3.8-5.6,5.3-7.9c0.4-0.6,0.9-1.2,1.3-1.8c1.1-1.2,2.3-2.2,3.2-3.6s1.2-3.2,0.3-4.5
		c-0.6-0.8-1.6-1.3-2.6-1.6c-3.2-1.1-6.8-1.3-10.1-0.6c-3.2,0.7-6.1,1.9-9.2,0.6c-2.9-1.2-5.1-0.9-8.3,0.1c-3.4,1.1-8,1.2-11.1,2.8
		c-1.3,0.7-2.4,1.7-3.2,2.9c-2.9,4.1-3.1,10-0.6,14.4c0.6,1,1.3,1.9,2,2.7c1.3,1.5,2.8,3.3,4.5,4.2c-0.2-0.4-0.4-0.8-0.4-1.2
		C199,100.7,199.1,100,199.3,99.4z"/>
</g>
<g id="XMLID_823_">
	<path class="st7" d="M200,96c-0.2,1.1-0.5,2.3-0.7,3.4c-0.1,0.6-0.3,1.2-0.2,1.9c0.1,0.4,0.2,0.8,0.4,1.2c0.3,0.2,0.7,0.4,1,0.5
		C200.7,101.6,200,98.4,200,96z"/>
</g>
<g id="XMLID_822_">
	<path class="st7" d="M218.9,93c-0.3-1-1-1.9-1.8-2.6c-3-2.7-7.2-3.7-11.2-3.2c-1.6,0.2-3.2,0.7-4.1,2c-0.5,0.7-0.7,1.6-0.9,2.5
		c-0.1,0.5-0.2,1-0.3,1.6c0-0.1,0.1-0.1,0.2-0.2c2.5-2.5,7.9-1.4,10.8-0.6c2.6,0.7,5,2.4,7.5,3.3C219.2,94.9,219.2,94,218.9,93z"/>
</g>
<g id="XMLID_821_">
	<polygon class="st6" points="171.4,77.4 172.9,74.2 172.4,73.6 171.6,74.2 172.1,71.1 170.9,69 167.6,68.7 164.7,70.5 164.7,73.8 
		166.7,77.2 167.1,78.5 171.8,78.5 	"/>
</g>
<g id="XMLID_820_">
	<path class="st8" d="M262.5,171.1c-1.2-1.7-5.3-2.9-7.2-4c-4.1-2.4-8.1-5.1-11.6-8.4c-5-4.7-8.7-10.4-11-16.8
		c-1.2-3.3-2-6.6-2.7-10c-0.2-1.2-0.5-2.5-0.7-3.7l14.6-0.4l-19.3-20l-0.1,1.1c0-0.4,0-0.7,0.1-1.1c-4.9,2-9.6,1-14.5,1.7
		c-0.1,0-0.1,0-0.2,0c-2.1,0.3-4.5,0.6-6.9,0.9c-2.7,0.3-5.3,0.8-7.6,1.7c-0.7,0.3-1.3,0.6-1.9,1.1l-14-12.2l-5.9-22.6l-1.9,0
		l-4.7,0l-1.7,0l3.9,36.2l14.4,20c-0.9,3.8-1.6,7.6-2,9.8c-0.8,5.5-1.6,11-2.2,16.6c-0.7,6.2-1.1,12.4-1.2,18.6
		c0,0.7-0.1,2.6-0.2,4.9c-0.1,4.9,0,11.5,1.8,11.7c0.3,0,0.6-0.1,0.9-0.3c1.5-0.9,2.9-2,4.2-3.1c1.3-1,2.5-2.1,4-2.9
		c3.1-1.8,6.7-2.7,10.2-3.4c1.5-0.3,3.1-0.6,4.6-0.8c3.8-0.6,7.6-0.9,11.4-1c0.6,0,1.3,0,2,0c5.4,0.1,13.1,0.9,14.8,1.1
		c0.2,0,0.3,0,0.3,0c3.3-0.6,6.4-1.8,9.5-2.9c5.4-1.9,10.9-3.6,15.9-6.3C259.6,175.9,264.1,173.4,262.5,171.1z"/>
</g>
<g id="XMLID_801_">
	<g id="XMLID_802_">
		<g id="XMLID_803_">
			<path class="st9" d="M297.8,175.5c-1.4,0-2.9,0.1-4.3,0.1c-4.8-27.5-29.1-48.5-58.4-48.5c-13.4,0-25.7,4.4-35.7,11.8
				c-10.7-18.7-31-31.3-54.3-31.3c-34.5,0-62.4,27.6-62.4,61.6c0,2.2,0.1,4.3,0.3,6.4c-1.4-0.1-2.8-0.1-4.3-0.1
				c-34.5,0-62.4,27.6-62.4,61.6c0,34,27.9,61.6,62.4,61.6h219.1c34.5,0,62.4-27.6,62.4-61.6C360.2,203.1,332.3,175.5,297.8,175.5z"
				/>
		</g>
	</g>
</g>
<g id="XMLID_797_">
	<path class="st6" d="M233.7,125.7l4.5-1.6c0,0,3.5,0.3,4.3,1.2l1.4,3.7l-5,4.2l-4.4-2.2L233.7,125.7z"/>
</g>
<g id="XMLID_712_">
	<g id="XMLID_715_">
		<g id="XMLID_767_">
			<g id="XMLID_768_">
				<polygon class="st10" points="225.7,260.4 113,260.4 113,220.1 130,220.1 130,243.3 208.7,243.3 208.7,220.1 225.7,220.1 				
					"/>
			</g>
		</g>
		<g id="XMLID_763_">
			<g id="XMLID_682_">
				<polygon class="st10" points="188.3,200 188.3,157.7 150.4,157.7 150.4,200 134.1,200 169.4,235.4 204.6,200 				"/>
			</g>
		</g>
	</g>
</g>
<g id="XMLID_1221_">
	<path class="st3" d="M44.9,187.3c1.1,1,2.3,1.8,3.7,2.3c0.1,1,0.2,2.1,0.5,2.8c-1.5,0.1-2.9,0.3-4.2,0.4c0-1-0.1-2-0.1-3
		C44.8,189,44.8,188.2,44.9,187.3z"/>
</g>
<g id="XMLID_1220_">
	<polygon class="st11" points="41.9,364.4 42.2,364.5 45.1,368.2 41.7,371.1 35.6,367.2 35.9,363.9 35.9,362.9 41.8,364.8 	"/>
</g>
<g id="XMLID_1219_">
	<path class="st12" d="M41.9,292.4l-6.3,70.4l0.3,0.1l5.9,1.8l0.1-0.4l14.6-53.9l-0.1-18.4C51.6,292.2,46.7,292.3,41.9,292.4z"/>
</g>
<g id="XMLID_1218_">
	<path class="st12" d="M74.1,293.9l-3.7,71.3l-5.9,0.2l0,0.7l0,0l-5.7-70.7C59.5,295.4,69.7,294.8,74.1,293.9z"/>
</g>
<g id="XMLID_1204_">
	<polygon class="st11" points="70.4,364.5 70.8,364.5 74.1,367.8 71,371.2 64.6,368 64.5,365.4 70.3,365.3 	"/>
</g>
<linearGradient id="SVGID_1_" gradientUnits="userSpaceOnUse" x1="62.7733" y1="210.122" x2="113.4157" y2="210.122">
	<stop  offset="0" style="stop-color:#0076CD"/>
	<stop  offset="1" style="stop-color:#00B594"/>
</linearGradient>
<polygon class="st13" points="113.4,226.1 113.2,219.3 83,211.8 64,194.1 62.8,213 78.9,223.7 "/>
<g id="XMLID_1203_">
	<path class="st14" d="M62.9,174.5c-0.1-1.2-0.3-2.4-0.5-3.6c-0.5-2.9-1.8-5-3.5-6.4c-0.4,1.5-1.5,2.8-2.6,3.9c0,0-0.1,0.1-0.1,0.1
		c-2.8,3-5.6,6.1-7.8,9.5c-1.7,2.8-3,5.9-3.4,9.2c1.1,1,2.3,1.8,3.7,2.3c0.1,1,0.2,2.1,0.5,2.8c0.1,0.2,0.2,0.3,0.3,0.4
		c0.9,0.8,3.7,0.2,4.8-0.1c0.3-0.1,0.6-0.1,0.9-0.4c0.1-0.1,0.1-0.2,0.2-0.4c0.2-0.6,0.2-1.5,0.2-2.4c3.3-1.2,5.7-4.3,6.8-7.7
		C62.9,179.5,63.1,177,62.9,174.5z"/>
</g>
<g id="XMLID_1202_">
	<linearGradient id="SVGID_2_" gradientUnits="userSpaceOnUse" x1="12.6526" y1="246.1078" x2="92.8648" y2="246.1078">
		<stop  offset="0" style="stop-color:#00B594"/>
		<stop  offset="1" style="stop-color:#00B594"/>
	</linearGradient>
	<path class="st15" d="M92.2,289.2c-5.8-7.6-5.5-20.5-6.9-29.5c-1.4-9.3-2.8-18.7-5.1-27.8c-0.2-0.9-0.4-1.8-0.7-2.6
		c-0.5-2-1.1-3.9-1.7-5.8c-1.4-4.5-3.1-8.8-5-13.1c-2.1-4.7-4.6-12.3-8.4-15.8c-0.1-0.1-0.3-0.2-0.4-0.3c-2-1.6-5.3-2-8.7-2
		c-0.1,0.2-0.1,0.3-0.2,0.4c-0.2,0.2-0.5,0.3-0.9,0.4c-1.1,0.2-3.9,0.9-4.8,0.1c-0.1-0.1-0.2-0.2-0.3-0.4c-1.5,0.1-2.9,0.3-4.2,0.4
		c0.3,7.1,0.8,14.3,2.8,21.1c0,0.2,0.1,0.3,0.1,0.5c2.6,8.5,4.7,17.1,7,25.6c0.2,0.8,0.4,1.5,0.6,2.3c0.8,3.1,1.4,6.3,1,9.5
		c-0.1,0.8-0.3,1.5-0.5,2.3c-0.6,1.8-1.6,3.4-2.9,4.7c-0.7,0.7-1.5,1.2-2.4,1.6c-0.3,0.1-0.7,0.3-1,0.3c-1.5-2.2-5.1-0.1-5.9,2.4
		c-0.9,2.5-1.1,5.7-3.4,7c-1.8,1-4.2,0.6-6.5,0.3c-1.4-0.2-2.9-0.3-4.2,0c-1.2,0.3-2.4,1-3.5,1.4c-2.2,6.3-5.8,11.5-11.4,16.6
		c-1.2,1.1-2.5,2.5-2.1,4c0.2,0.9,1.1,1.6,1.9,2.1c8,5.2,18.1,5.5,27.7,5.4c0,0,0.1,0,0.1,0c4.8-0.1,9.7-0.2,14.5-0.3
		c1.6-0.1,3.3-0.1,4.9-0.2c0.7,0,1.5-0.1,2.2-0.1c4.3-0.2,8.7-0.6,13.1-1.5c5.3-1.1,10.4-2.9,14.7-6c0.5-0.4,1-0.8,1.1-1.4
		C92.9,290,92.5,289.6,92.2,289.2z"/>
</g>
<g id="XMLID_1201_">
	<polygon class="st14" points="113.5,220.9 116.1,218.8 116.9,219.2 116.5,220.1 119.2,219 121.4,219.7 122.3,222.7 121.2,225.7 
		118.2,226.4 114.6,225.2 112.6,225 113.2,220.8 	"/>
</g>
<g id="XMLID_1198_">
	<polygon class="st14" points="105.6,236.3 108.3,234.3 109,234.7 108.6,235.6 111.3,234.6 113.5,235.3 114.4,238.3 113.2,241.3 
		110.1,241.9 106.6,240.6 104.6,240.4 105.3,236.2 	"/>
</g>
<g id="XMLID_1130_">
	<linearGradient id="SVGID_3_" gradientUnits="userSpaceOnUse" x1="32.9019" y1="217.205" x2="105.6026" y2="217.205">
		<stop  offset="0" style="stop-color:#0076CD"/>
		<stop  offset="1" style="stop-color:#00B594"/>
	</linearGradient>
	<polygon class="st16" points="105.6,241.5 105.4,234.7 75.1,227.2 45,192.9 32.9,209.9 71.1,239.1 	"/>
</g>
<g id="XMLID_1127_">
	<path class="st12" d="M64.4,167.7c-0.4-3.3-2.5-6.3-5.4-7.8c-0.3,0.1-0.5,0.3-0.7,0.4c-0.2-0.4-0.5-0.8-0.8-1.2
		c-1.9-2.2-4.1-3.4-6.9-3.5c-10-0.3-17.5,5.5-20.4,15.2c-2.5,8.2-1.4,17-0.9,25.6c0.7,12.9-2,27.7-9.7,38.3
		c-3.1,4.3-6.5,8.6-7.8,13.8c-1.3,5.1,0.2,11.4,4.9,13.9c1.8,1,4,1.3,5.6,2.6c1.7,1.4,1.8,3.8,0.3,5.2c1.2,2.1,2.5,2.2,3.9,1.7
		c1.1-0.4,2.2-1.1,3.5-1.4c1.3-0.3,2.7-0.2,4.2,0c2.3,0.3,4.7,0.8,6.5-0.3c2.3-1.3,2.5-4.5,3.4-7c0.9-2.5,4.5-4.7,5.9-2.4
		c0.3-0.1,0.7-0.2,1-0.3c0.9-0.4,1.7-0.9,2.4-1.6c1.3-1.3,2.3-2.9,2.9-4.7c0.2-0.8,0.4-1.5,0.5-2.3c0.4-3.2-0.2-6.4-1-9.5
		c-0.2-0.8-0.4-1.5-0.6-2.3c-2.3-8.5-4.4-17.2-7-25.6c-0.1-0.2-0.1-0.3-0.1-0.5c-2-6.9-2.5-14.1-2.8-21.1c0-1-0.1-2-0.1-3
		c0-0.8,0-1.7,0.1-2.5c0.4-3.2,1.7-6.4,3.4-9.2c2.2-3.5,5-6.5,7.8-9.5c0,0,0.1-0.1,0.1-0.1c1.1-1.2,2.2-2.4,2.6-3.9
		c1.7,1.4,3,3.5,3.5,6.4c0.2,1.2,0.4,2.4,0.5,3.6C64.1,172.5,64.7,170.1,64.4,167.7z"/>
</g>
<g id="XMLID_798_">
	<g id="XMLID_800_">
		<polygon class="st0" points="308.2,185.4 301.7,185.8 301.4,183 305.8,181.7 305.1,180.5 310.7,180.8 311.4,183.7 		"/>
	</g>
	<g id="XMLID_799_">
		<polygon class="st17" points="345.5,146.7 336.9,170.9 308.8,180.1 310.5,185.7 346,182.2 365.9,150.7 355.6,137.7 		"/>
	</g>
</g>
<polygon class="st18" points="479.4,275.1 471.2,311.3 463.7,354.5 456.1,354.5 453,249.5 478.1,250 "/>
<g id="XMLID_818_">
	<polygon class="st18" points="431.3,272.8 430.3,308 440.9,354.5 447.7,354.5 448.4,305.5 455.9,265.4 457.7,252.7 436.8,250.2 	
		"/>
</g>
<path class="st19" d="M447.9,178.2l23.7,1.7l12.8,22.1c-3.8,13.4-2.2,8.7-4.5,20.8l6.8,33.4l-8.8,2.6l-32.1,0.6l-10.6-1.8l2.9-31.8
	l-1.5-42.5L447.9,178.2z"/>
<polygon class="st19" points="443.2,195.5 431.3,213.9 398.4,217.5 397.4,212.1 423.7,201.8 436.5,183.1 "/>
<g id="XMLID_814_">
	<path class="st20" d="M449.1,157.8c3.6-10.4,17.4-6.5,20.2,2.8c1.9,6.1-2.8,13.9-9.1,15.7c0,0.2,0,0.5,0,0.7c0,1-0.1,1.9-0.3,2.9
		c-0.1,0.4-5.6-0.7-6.2-0.8c-0.2,0-0.5-0.1-0.6-0.3c-0.2-0.3,0.1-1.4,0.2-1.7c0-0.5,0.1-0.9,0.1-1.4c-3.1-1.5-5.1-4.7-5.6-8
		C447.3,164.2,448,160.9,449.1,157.8z"/>
</g>
<g id="XMLID_811_">
	<g id="XMLID_813_">
		<path class="st21" d="M459,148c0.7,0.8,0.9,1.9,1,2.9c0.1,0.6,0.1,1.2,0,1.8c-0.7,2.3-3,2-4.9,2.6c-2.3,0.8-4.4,2.4-5.8,4.2
			c-2.2,3-1.6,7.1-1.1,10.6c0.2,1.2,0.6,3.1-0.4,4.1c-1,1-3.2,0.7-4.3,0c-1-0.6-1.8-1.6-2.9-1.9c-1.2-0.3-2.9,0.1-3.4-1
			c-0.1-0.3-0.1-0.7-0.3-1c-0.6-1-2.4,0-3.2-0.8c-0.6-0.5-0.5-1.3-0.2-2c0.3-0.7,0.6-1.4,0.6-2.1c-0.1-0.6-0.5-1.1-0.7-1.7
			c-0.5-1.1-0.2-2.6,0.7-3.4c1.6-1.6,4.5-1.1,6.2-2.6c0.9-0.8,1.3-2,1.7-3.1c0.4-1.1,0.9-2.3,1.8-3c1.2-0.9,2.8-0.6,3.9-1.7
			c0.7-0.6,1.2-1.5,1.9-2c1-0.7,2.9-1.2,4.1-1.5C455.7,145.9,457.7,146.5,459,148z"/>
	</g>
	<g id="XMLID_812_">
		<path class="st21" d="M466.5,165.3c-0.2,3.4-2.2,7-0.8,10.1c1.4,3.2,5.3,4,8.7,4.4c0.6,0.1,7.7,1.2,7.7,1.1
			c0.7-2.3,1.5-4.7,2.9-6.7c1.4-2,3.6-3.6,6-3.5c-0.7-0.2-1-1-0.8-1.7c0.1-0.7,0.6-1.3,0.8-2c0.7-1.6,0.3-3.6-0.9-4.9
			c-2.3-2.5-7-1.9-9-4.8c-1.2-1.8-0.9-4.2-1.4-6.3c-1.1-4.1-5.3-5.2-8.4-7.3c-3.3-2.1-6.4-3.4-10.4-3.1c-5,0.4-9,5.1-7.4,10
			c2,6.2,11.7,6.4,13,12.7C466.5,163.9,466.5,164.6,466.5,165.3z"/>
	</g>
</g>
<g id="XMLID_808_">
	<polygon class="st22" points="463.7,179.4 456.7,189.2 453.5,189 449,178.3 	"/>
</g>
<g id="XMLID_807_">
	<polygon class="st12" points="456.1,354.5 452.1,359.7 455.9,363.8 461.1,359.1 463.7,354.5 	"/>
</g>
<g id="XMLID_806_">
	<polygon class="st12" points="440.4,354.5 436.3,359.7 440.1,363.8 445.4,359.1 447.9,354.5 	"/>
</g>
<g id="XMLID_794_">
	<g id="XMLID_795_">
		<g id="XMLID_796_">
			<path class="st23" d="M278.5,263c1,0,2.1,0,3.1,0.1c3.4-19.7,20.9-34.8,41.9-34.8c9.6,0,18.5,3.1,25.6,8.4
				c7.7-13.4,22.3-22.4,39-22.4c24.7,0,44.8,19.8,44.8,44.2c0,1.5-0.1,3.1-0.2,4.6c1-0.1,2-0.1,3.1-0.1c24.7,0,44.8,19.8,44.8,44.2
				c0,24.4-20,44.2-44.8,44.2H278.5c-24.7,0-44.8-19.8-44.8-44.2C233.7,282.8,253.8,263,278.5,263z"/>
		</g>
	</g>
</g>
<g id="XMLID_793_">
	<path class="st20" d="M388.6,212.4l4.5-1.6c0,0,3.5,0.3,4.3,1.2l1.4,3.7l-5,4.2l-4.4-2.2L388.6,212.4z"/>
</g>
<g id="XMLID_792_">
	<polygon class="st20" points="415.5,237.2 408.9,237.9 408.6,240.2 404.5,243 406.2,245.7 414.8,243 	"/>
</g>
<g id="XMLID_791_">
	<polygon class="st19" points="484.3,202 460.4,227.2 449.6,231.3 414.3,243.9 415,235.8 450.4,217 470.8,179.9 480.1,185.1 	"/>
</g>
<g>
	<g>
		<path class="st24" d="M265.2,285c3.6,0,6.6,1.2,9.1,3.5c2.4,2.3,3.6,5.5,3.6,9.6c0,4-1.1,7.1-3.3,9.1c-2.2,2-5.1,3-8.6,3
			c-2.4,0-4.9-0.1-7.5-0.4v-24.6C260.3,285.1,262.6,285,265.2,285z M265.9,308.7c3.1,0,5.6-0.9,7.4-2.6c1.9-1.8,2.8-4.4,2.8-7.9
			c0-3.5-1.1-6.3-3.2-8.4c-2.1-2.1-4.7-3.1-7.8-3.1c-2.2,0-3.9,0.1-5.1,0.2v21.7C261.6,308.6,263.5,308.7,265.9,308.7z"/>
		<path class="st24" d="M265.9,311.1c-2.4,0-5-0.1-7.6-0.4c-0.4,0-0.7-0.4-0.7-0.8v-24.6c0-0.4,0.3-0.8,0.8-0.8
			c1.9-0.2,4.3-0.2,6.9-0.2c3.8,0,7.1,1.3,9.6,3.8c2.6,2.5,3.9,5.9,3.9,10.2c0,4.3-1.2,7.5-3.6,9.7
			C272.7,310,269.6,311.1,265.9,311.1z M259.2,309.1c0.2,0,0.4,0,0.6,0.1c-0.3-0.1-0.6-0.4-0.6-0.8v-21.7c0-0.3,0.2-0.6,0.5-0.7
			c-0.2,0-0.4,0-0.5,0V309.1z M261,307.6c1.3,0.1,3,0.2,5,0.2c2.9,0,5.2-0.8,6.9-2.4c1.7-1.6,2.5-4,2.5-7.3c0-3.3-1-5.9-2.9-7.8
			c-2-1.9-4.3-2.9-7.2-2.9c-1.7,0-3.1,0-4.2,0.1V307.6z M271.1,287.2c0.9,0.5,1.7,1.1,2.4,1.9c2.3,2.2,3.4,5.3,3.4,9
			c0,3.7-1,6.6-3.1,8.5c-0.2,0.2-0.4,0.3-0.6,0.5c0.2-0.2,0.4-0.4,0.7-0.6c2-1.9,3.1-4.7,3.1-8.5c0-3.8-1.1-6.8-3.4-9
			C272.9,288.4,272.1,287.7,271.1,287.2z"/>
	</g>
	<g>
		<path class="st24" d="M295.5,310.3c-3.4,0-6.2-1.2-8.4-3.7c-2.3-2.5-3.4-5.5-3.4-9c0-3.6,1.1-6.6,3.4-9c2.3-2.5,5.1-3.7,8.4-3.7
			c3.4,0,6.2,1.2,8.4,3.7c2.3,2.5,3.4,5.5,3.4,9c0,3.6-1.1,6.6-3.4,9C301.7,309.1,298.9,310.3,295.5,310.3z M295.5,286.4
			c-2.9,0-5.3,1.1-7.2,3.2c-1.9,2.2-2.9,4.8-2.9,7.9c0,3.1,1,5.8,2.9,7.9c1.9,2.1,4.3,3.2,7.2,3.2c2.9,0,5.3-1.1,7.2-3.2
			c1.9-2.1,2.9-4.8,2.9-7.9c0-3.1-1-5.8-2.9-7.9C300.8,287.5,298.4,286.4,295.5,286.4z"/>
		<path class="st24" d="M295.5,311.2c-3.6,0-6.6-1.3-9-4c-2.4-2.6-3.6-5.8-3.6-9.6c0-3.8,1.2-7,3.6-9.6c2.4-2.6,5.5-4,9-4
			c3.6,0,6.6,1.3,9,4c2.4,2.6,3.6,5.8,3.6,9.6c0,3.8-1.2,7-3.6,9.6C302.1,309.8,299.1,311.2,295.5,311.2z M295.5,287.2
			c-2.7,0-4.8,1-6.6,3c-1.8,2-2.7,4.4-2.7,7.4c0,3,0.9,5.4,2.7,7.4c1.8,2,3.9,2.9,6.6,2.9c2.7,0,4.8-1,6.6-2.9
			c1.8-2,2.6-4.4,2.6-7.4c0-2.9-0.9-5.4-2.6-7.4C300.4,288.2,298.2,287.2,295.5,287.2z M286.9,290c-1.6,2.1-2.4,4.7-2.4,7.5
			c0,3.1,0.9,5.8,2.8,8c-1.8-2.2-2.7-4.9-2.7-8C284.6,294.7,285.4,292.2,286.9,290z M304.4,290.5c1.3,2,2,4.4,2,7.1
			c0,2.8-0.8,5.3-2.2,7.4c1.5-2.1,2.3-4.6,2.3-7.4C306.5,294.9,305.8,292.5,304.4,290.5z"/>
	</g>
	<g>
		<path class="st24" d="M319.7,303.9l6.8-18.2h1l5.9,18.3l0.9,3.1c0.1-0.5,0.4-1.5,0.9-3l6-18.8h1.7l-8.2,24.9h-1
			c-4-12.2-6.1-18.5-6.3-19c-0.2-0.7-0.4-1.4-0.7-2c-0.1,0.4-0.4,1.3-1,2.7l-6.8,18.3h-1l-8.2-24.9h1.8l6,18.5
			c0.3,1,0.7,2.1,0.9,3.4C318.7,306.7,319.1,305.6,319.7,303.9z"/>
		<path class="st24" d="M334.8,310.9h-1c-0.4,0-0.7-0.2-0.8-0.6c-3.6-10.9-5.7-17.1-6.2-18.7c-0.1,0.1-0.1,0.3-0.2,0.4l-6.8,18.3
			c-0.1,0.3-0.4,0.5-0.8,0.5h-1c-0.4,0-0.7-0.2-0.8-0.6l-8.2-24.9c-0.1-0.3,0-0.5,0.1-0.7c0.2-0.2,0.4-0.3,0.7-0.3h1.8
			c0.4,0,0.7,0.2,0.8,0.6l6,18.5c0.1,0.3,0.2,0.5,0.2,0.8c0.1-0.2,0.2-0.4,0.2-0.7l6.8-18.2c0.1-0.3,0.4-0.5,0.8-0.5h1
			c0.4,0,0.7,0.2,0.8,0.6l5.9,18.3l0.1,0.3c0-0.1,0.1-0.2,0.1-0.3l6-18.8c0.1-0.3,0.4-0.6,0.8-0.6h1.7c0.3,0,0.5,0.1,0.7,0.3
			c0.2,0.2,0.2,0.5,0.1,0.7l-8.2,24.9C335.5,310.7,335.1,310.9,334.8,310.9z M318.3,307.9l0.4,1.1l0.4-1.1c-0.1,0.1-0.3,0.1-0.4,0.1
			C318.5,308,318.4,308,318.3,307.9z M333.9,307.9c0.1,0.3,0.2,0.7,0.3,1.1l0.3-1c-0.1,0-0.2,0.1-0.3,0.1
			C334.2,308,334.1,307.9,333.9,307.9z M319.7,303.9L319.7,303.9L319.7,303.9z M311,286.1l3,9.2L311,286.1L311,286.1z M326.9,288.3
			c0.3,0,0.6,0.2,0.8,0.5l-0.7-2.1l-0.6,1.7C326.5,288.4,326.7,288.3,326.9,288.3C326.9,288.3,326.9,288.3,326.9,288.3z"/>
	</g>
	<g>
		<path class="st24" d="M347.7,309.9v-24.9h0.8l15.4,18.7c0.6,0.7,1.1,1.3,1.5,2c0.5,0.6,0.7,1,0.7,1c0-0.6-0.1-1.8-0.1-3.6v-17.9
			h1.7v24.9H367l-15.7-19l-2-2.6c0,0.5,0.1,1.7,0.1,3.6v17.8H347.7z"/>
		<path class="st24" d="M367.8,310.9H367c-0.2,0-0.5-0.1-0.6-0.3l-15.7-19l-0.5-0.6c0,0.3,0,0.7,0,1.1v17.8c0,0.5-0.4,0.8-0.8,0.8
			h-1.7c-0.5,0-0.8-0.4-0.8-0.8v-24.9c0-0.5,0.4-0.8,0.8-0.8h0.8c0.2,0,0.5,0.1,0.6,0.3l15.4,18.7c0.3,0.3,0.5,0.6,0.7,0.9
			c0-0.3,0-0.6,0-1v-17.9c0-0.5,0.4-0.8,0.8-0.8h1.7c0.5,0,0.8,0.4,0.8,0.8v24.9C368.6,310.6,368.3,310.9,367.8,310.9z M348.6,309.1
			L348.6,309.1l0-16.9c0-0.4,0-0.8,0-1.2V309.1z M365.9,307.5l1,1.3V307c-0.1,0.2-0.2,0.3-0.4,0.4
			C366.4,307.6,366.1,307.6,365.9,307.5z M350.9,289.3l1,1.3l12.4,15c-0.3-0.4-0.7-0.9-1.1-1.3L350.9,289.3z M367,286.1v17.1
			c0,0.4,0,0.8,0,1.1L367,286.1z M348.6,286.4v1.8c0.1-0.2,0.2-0.4,0.5-0.4c0.2-0.1,0.5-0.1,0.7,0.1L348.6,286.4z"/>
	</g>
	<g>
		<path class="st24" d="M376.5,309.9v-24.7h1.7v23.1h10.8v1.6H376.5z"/>
		<path class="st24" d="M388.9,310.8h-12.4c-0.5,0-0.8-0.4-0.8-0.8v-24.7c0-0.5,0.4-0.8,0.8-0.8h1.7c0.5,0,0.8,0.4,0.8,0.8v22.3h9.9
			c0.5,0,0.8,0.4,0.8,0.8v1.6C389.8,310.4,389.4,310.8,388.9,310.8z M377.3,309.1h0.5c-0.3-0.1-0.5-0.4-0.5-0.8l0-22.3V309.1z"/>
	</g>
	<g>
		<path class="st24" d="M402.8,310.3c-3.4,0-6.2-1.2-8.4-3.7c-2.3-2.5-3.4-5.5-3.4-9c0-3.6,1.1-6.6,3.4-9c2.3-2.5,5.1-3.7,8.4-3.7
			c3.4,0,6.2,1.2,8.4,3.7c2.3,2.5,3.4,5.5,3.4,9c0,3.6-1.1,6.6-3.4,9C408.9,309.1,406.1,310.3,402.8,310.3z M402.8,286.4
			c-2.9,0-5.3,1.1-7.2,3.2c-1.9,2.2-2.9,4.8-2.9,7.9c0,3.1,1,5.8,2.9,7.9c1.9,2.1,4.3,3.2,7.2,3.2c2.9,0,5.3-1.1,7.2-3.2
			c1.9-2.1,2.9-4.8,2.9-7.9c0-3.1-1-5.8-2.9-7.9C408.1,287.5,405.7,286.4,402.8,286.4z"/>
		<path class="st24" d="M402.8,311.2c-3.6,0-6.6-1.3-9-4c-2.4-2.6-3.6-5.8-3.6-9.6c0-3.8,1.2-7,3.6-9.6c2.4-2.6,5.5-4,9-4
			c3.6,0,6.6,1.3,9,4c2.4,2.6,3.6,5.8,3.6,9.6c0,3.8-1.2,7-3.6,9.6C409.4,309.8,406.4,311.2,402.8,311.2z M402.8,287.2
			c-2.7,0-4.8,1-6.6,3c-1.8,2-2.7,4.4-2.7,7.4c0,3,0.9,5.4,2.7,7.4c1.8,2,3.9,2.9,6.6,2.9c2.7,0,4.8-1,6.6-2.9
			c1.8-2,2.6-4.4,2.6-7.4c0-2.9-0.9-5.4-2.6-7.4C407.6,288.2,405.5,287.2,402.8,287.2z M394.2,290c-1.6,2.1-2.4,4.7-2.4,7.5
			c0,3.1,0.9,5.8,2.8,8c-1.8-2.2-2.7-4.9-2.7-8C391.9,294.7,392.6,292.2,394.2,290z M411.7,290.5c1.3,2,2,4.4,2,7.1
			c0,2.8-0.8,5.3-2.2,7.4c1.5-2.1,2.3-4.6,2.3-7.4C413.8,294.9,413.1,292.5,411.7,290.5z"/>
	</g>
	<g>
		<path class="st24" d="M422.6,301.4l-3.4,8.6h-1.7l9.8-24.9h1l9.9,24.9h-1.8l-3.4-8.6H422.6z M427.7,287.9c-0.4,1.1-0.7,2.1-1,2.9
			l-3.6,9.1h9.3l-3.6-9.1C428.3,289.4,427.9,288.4,427.7,287.9z"/>
		<path class="st24" d="M438.2,310.8h-1.8c-0.3,0-0.6-0.2-0.8-0.5l-3.2-8h-9.3l-3.2,8c-0.1,0.3-0.4,0.5-0.8,0.5h-1.7
			c-0.3,0-0.5-0.1-0.7-0.4c-0.2-0.2-0.2-0.5-0.1-0.8l9.8-24.9c0.1-0.3,0.4-0.5,0.8-0.5h1c0.3,0,0.6,0.2,0.8,0.5l9.9,24.9
			c0.1,0.3,0.1,0.5-0.1,0.8C438.8,310.6,438.5,310.8,438.2,310.8z M436.9,309.1L436.9,309.1l-6-15.3l2.3,5.7
			c0.1,0.3,0.1,0.5-0.1,0.8c0,0.1-0.1,0.1-0.2,0.2h0.1c0.3,0,0.6,0.2,0.8,0.5L436.9,309.1z M422.3,300l-0.3,0.7
			c0.1-0.1,0.3-0.2,0.5-0.2h0.1c-0.1-0.1-0.1-0.1-0.2-0.2C422.4,300.3,422.3,300.1,422.3,300z M424.4,299.1h6.8l-3.1-8
			c-0.1-0.2-0.2-0.5-0.3-0.7c-0.1,0.2-0.2,0.4-0.2,0.7L424.4,299.1z M427.7,287.1c0.2,0,0.4,0.1,0.6,0.2l-0.5-1.2l-0.4,1
			C427.5,287.1,427.6,287.1,427.7,287.1C427.7,287.1,427.7,287.1,427.7,287.1z"/>
	</g>
	<g>
		<path class="st24" d="M449.8,285c3.6,0,6.6,1.2,9.1,3.5c2.4,2.3,3.6,5.5,3.6,9.6c0,4-1.1,7.1-3.3,9.1c-2.2,2-5.1,3-8.6,3
			c-2.4,0-4.9-0.1-7.5-0.4v-24.6C444.9,285.1,447.2,285,449.8,285z M450.5,308.7c3.1,0,5.6-0.9,7.4-2.6c1.9-1.8,2.8-4.4,2.8-7.9
			c0-3.5-1.1-6.3-3.2-8.4c-2.1-2.1-4.7-3.1-7.8-3.1c-2.2,0-3.9,0.1-5.1,0.2v21.7C446.2,308.6,448.1,308.7,450.5,308.7z"/>
		<path class="st24" d="M450.5,311.1c-2.4,0-5-0.1-7.6-0.4c-0.4,0-0.7-0.4-0.7-0.8v-24.6c0-0.4,0.3-0.8,0.8-0.8
			c1.9-0.2,4.3-0.2,6.9-0.2c3.8,0,7.1,1.3,9.6,3.8c2.6,2.5,3.9,5.9,3.9,10.2c0,4.3-1.2,7.5-3.6,9.7
			C457.3,310,454.2,311.1,450.5,311.1z M443.8,309.1c0.2,0,0.4,0,0.6,0.1c-0.3-0.1-0.6-0.4-0.6-0.8v-21.7c0-0.3,0.2-0.6,0.5-0.7
			c-0.2,0-0.4,0-0.5,0V309.1z M445.6,307.6c1.3,0.1,3,0.2,5,0.2c2.9,0,5.2-0.8,6.9-2.4c1.7-1.6,2.5-4,2.5-7.3c0-3.3-1-5.9-2.9-7.8
			c-2-1.9-4.3-2.9-7.2-2.9c-1.7,0-3.1,0-4.2,0.1V307.6z M455.7,287.2c0.9,0.5,1.7,1.1,2.4,1.9c2.3,2.2,3.4,5.3,3.4,9
			c0,3.7-1,6.6-3.1,8.5c-0.2,0.2-0.4,0.3-0.6,0.5c0.2-0.2,0.4-0.4,0.7-0.6c2-1.9,3.1-4.7,3.1-8.5c0-3.8-1.1-6.8-3.4-9
			C457.5,288.4,456.6,287.7,455.7,287.2z"/>
	</g>
</g>
</svg>
