<?xml version="1.0" encoding="utf-8"?>
<!-- Generator: Adobe Illustrator 23.0.3, SVG Export Plug-In . SVG Version: 6.00 Build 0)  -->
<svg version="1.1" id="Layer_1" xmlns="http://www.w3.org/2000/svg" xmlns:xlink="http://www.w3.org/1999/xlink" x="0px" y="0px"
	 viewBox="0 0 500 500" style="enable-background:new 0 0 500 500;" xml:space="preserve">
<g>
	<path d="M488,171.2L294.8,302.6L263.5,324c-7.9,5.4-18.2,5.4-26.1,0L206,302.6L12.8,171.2c-11.4-7.8-14.4-23.3-6.6-34.7
		c4.8-7.1,12.7-10.9,20.7-10.9c4.8,0,9.7,1.4,14,4.3l196.4,133.6c7.9,5.4,18.2,5.4,26.1,0l196.4-133.6c4.3-2.9,9.2-4.3,14-4.3
		c8,0,15.9,3.8,20.7,10.9C502.4,147.9,499.4,163.5,488,171.2z"/>
</g>
</svg>
