<?xml version="1.0" encoding="utf-8"?>
<!-- Generator: Adobe Illustrator 23.0.3, SVG Export Plug-In . SVG Version: 6.00 Build 0)  -->
<svg version="1.1" id="Layer_1" xmlns="http://www.w3.org/2000/svg" xmlns:xlink="http://www.w3.org/1999/xlink" x="0px" y="0px"
	 viewBox="0 0 500 300" style="enable-background:new 0 0 500 300;" xml:space="preserve">
<style type="text/css">
	.st0{fill:#B5F4E5;}
	.st1{fill:none;stroke:#B8F4E4;stroke-miterlimit:10;}
	.st2{fill:none;stroke:#B8F4E4;stroke-miterlimit:10;stroke-dasharray:4.0148,4.0148;}
	.st3{fill:none;stroke:#ADF2E0;stroke-miterlimit:10;}
	.st4{fill:#B25654;}
	.st5{fill:#ADF2E0;}
	.st6{fill:none;stroke:#DCFFF7;stroke-miterlimit:10;}
	.st7{fill:none;stroke:#DCFFF7;stroke-linecap:round;stroke-linejoin:round;stroke-miterlimit:10;}
	.st8{fill:#26387A;}
	.st9{fill:#FFB288;}
	.st10{fill:none;stroke:#0061A6;stroke-width:0.5;stroke-miterlimit:10;}
	.st11{fill:#D9F0FF;}
	.st12{fill:none;stroke:#94C1F2;stroke-width:0.5;stroke-miterlimit:10;}
	.st13{fill:none;stroke:#AEF4E4;stroke-width:5;stroke-linecap:round;stroke-linejoin:round;stroke-miterlimit:10;}
	.st14{fill:#05B18B;}
	.st15{fill:#07604B;}
	.st16{opacity:0.5;fill:#FDAE2B;}
	.st17{fill:#191919;}
	.st18{fill:#0061A6;}
	.st19{fill:#EF9467;}
	.st20{fill:#161616;}
	.st21{fill:#E2E8ED;}
	.st22{fill:#B6E9FE;}
	.st23{fill:#2858AD;}
	.st24{fill:none;stroke:#6CB1EF;stroke-width:0.5;stroke-miterlimit:10;}
	.st25{fill:#BAE8DD;}
	.st26{fill:#FFFFFF;}
	.st27{font-family:'Montserrat-Regular';}
	.st28{font-size:16.8144px;}
</style>
<g>
	<path class="st0" d="M450.1,252.1c-2.7-5.2-13.7-9.3-18.6-10.2c-26.2-5-53.7-4.3-80.2-4.2c-28.9,0.1-56.5,4.7-85.2,6.9
		c-14.9,1.1-30.7-0.9-45.6-1.4c-24.6-0.9-49.2-1.9-73.8-3c-21.2-1-43.2,1.2-62,12.9c-2.1,1.3-4.3,2.9-5.2,5.3
		c-6.1,15,69.7,13.1,79.6,13.4c49.8,1.3,99.6,2,149.4,0.6c37-1,75.6-0.9,112.3-6.2c8.1-1.2,19.2-1.6,26.2-6.3
		C450.8,257.1,451.3,254.5,450.1,252.1z"/>
</g>
<g>
	<g>
		<path class="st1" d="M417.8,47.5c0.6,0,1.3,0,2,0"/>
		<path class="st2" d="M423.8,47.8c12.9,1.3,28.7,6.8,26.8,17.9c-2.9,17.8-82.1,11.2-101,11.4c-38,0.4-76.4,0.5-113.7,8.8
			c-9.1,2-22,6.5-21.1,18c0.3,4,2.7,7.7,5.8,10.4c10.9,9.8,26,10.8,40.1,12.5c21.3,2.6,122.6-0.9,155.7,10
			c6.5,2.1,14.7,4.9,14.9,14.2c0.7,23.7-58.1,22.5-75.8,23c-47.1,1.2-94.2,0.7-141.3-0.2c-38.1-0.8-76.2-1.4-114.2-3.9
			c-14.2-0.9-37.3-1.2-48.1-11.8c-6-5.9-6.8-16.8,2.7-22.3c6.7-3.9,26.5-2.2,34.1-2.8c23-2,16-15.9-2.6-17.7"/>
		<path class="st1" d="M84.2,115.3c-0.7,0-1.3,0-2,0"/>
	</g>
</g>
<path class="st3" d="M419.2,64.8l-6.1-32.1c-0.4-1.9-2.7-2.7-4.1-1.4l-24.7,21.3c-1.5,1.3-1,3.7,0.8,4.3l30.8,10.8
	C417.7,68.3,419.5,66.7,419.2,64.8z"/>
<g>
	<path class="st4" d="M278.2,60.6c2.9,1.7,4.8,5,5.5,8.3c0.1,0.6,0.2,1.2,0.6,1.7c0.3,0.4,0.8,0.5,1.2,0.7c2.4,1.1,4.3,3.3,5.2,5.9
		c0.4,1.1,0.1,2.6,0.5,3.5c0.5,1.1,2.4,1.4,3.5,1.7c3.1,1,5.4,4.1,5.4,7.4c0,3.3-2.2,6.4-5.2,7.5c0.8,1.2,0.9,2.7,0.6,4.1
		c-0.4,1.4-1.2,2.6-2.2,3.6c-3.9,4.4-9.9,6.7-15.7,6.5c-1.7-0.1-3.4-0.4-4.9-1c-1.8-0.7-3.3-1.9-4.8-3.1c-1.8-1.4-3.6-3-4.6-5.1
		c-1-2.1-0.9-4.8,0.7-6.5c-1.9,0.4-3.9-0.6-5-2.3c-1.1-1.6-1.3-3.7-0.8-5.6c0.4-1.9,1.4-3.6,2.6-5.2c0.8-1.1,1.8-2.2,1.9-3.6
		c0.3-2.3-1-4.3-1.3-6.5c-0.5-3.5-0.4-6.5,2.6-8.4c1-2.5,2.1-4.4,4.9-5.1C272.1,58.3,275.3,58.8,278.2,60.6z"/>
</g>
<g>
	<path class="st5" d="M414.5,64.3c-0.2,0-0.3,0-0.5-0.1l-25.3-8.9c-0.5-0.2-0.9-0.6-1-1.2c-0.1-0.6,0.1-1.1,0.5-1.5l20.3-17.5
		c0.4-0.4,1-0.5,1.5-0.3c0.5,0.2,0.9,0.6,1,1.2l5,26.4c0.1,0.6-0.1,1.1-0.5,1.5C415.2,64.2,414.9,64.3,414.5,64.3z M390,53.7
		l23.9,8.4l-4.7-24.9L390,53.7z"/>
</g>
<path class="st5" d="M403.5,53.6L403.5,53.6c-0.5-0.2-0.7-0.7-0.6-1.2l2.5-8.8c0.2-0.8,1.1-1.3,1.9-1l0,0c0.8,0.3,1.2,1.2,0.9,2
	l-3.5,8.5C404.5,53.5,404,53.7,403.5,53.6z"/>
<path class="st5" d="M403.7,56c-0.2,0.5-0.7,0.8-1.2,0.6c-0.5-0.2-0.8-0.7-0.6-1.2c0.2-0.5,0.7-0.8,1.2-0.6
	C403.6,54.9,403.9,55.5,403.7,56z"/>
<path class="st3" d="M80.3,104.4l-19.9-9.9c-1.2-0.6-2.6,0.3-2.5,1.7l1.4,22.2c0.1,1.3,1.6,2.1,2.7,1.3l18.6-12.3
	C81.6,106.7,81.5,105,80.3,104.4z"/>
<g>
	<path class="st5" d="M78.1,106.8c-0.1,0.1-0.2,0.2-0.3,0.2l-15.3,10.1c-0.3,0.2-0.7,0.2-1.1,0.1c-0.3-0.2-0.6-0.5-0.6-0.9L59.8,98
		c0-0.4,0.2-0.7,0.5-1c0.3-0.2,0.7-0.2,1.1-0.1l16.4,8.2c0.3,0.2,0.6,0.5,0.6,0.9C78.3,106.3,78.2,106.6,78.1,106.8z M62.2,115.7
		l14.4-9.6l-15.5-7.7L62.2,115.7z"/>
</g>
<path class="st5" d="M67.7,108.3L67.7,108.3c-0.3,0.2-0.7,0.1-0.9-0.2l-3.8-5c-0.3-0.5-0.2-1.1,0.3-1.4l0,0c0.5-0.3,1.1-0.2,1.4,0.3
	l3.1,5.4C68.1,107.7,68,108.1,67.7,108.3z"/>
<path class="st5" d="M69.1,109.2c0.2,0.3,0.1,0.7-0.2,0.9c-0.3,0.2-0.7,0.1-0.9-0.2c-0.2-0.3-0.1-0.7,0.2-0.9
	C68.5,108.8,68.9,108.9,69.1,109.2z"/>
<g>
	<circle class="st6" cx="94.1" cy="147.6" r="1.7"/>
	<circle class="st6" cx="340.5" cy="116.9" r="1.7"/>
	<circle class="st6" cx="209.8" cy="70.4" r="1.7"/>
	<circle class="st6" cx="207.8" cy="196.6" r="1.7"/>
	<g>
		<line class="st7" x1="246.5" y1="98.9" x2="246.5" y2="102.6"/>
		<line class="st7" x1="248.3" y1="100.7" x2="244.6" y2="100.7"/>
	</g>
	<g>
		<line class="st7" x1="313.9" y1="50.9" x2="313.9" y2="54.6"/>
		<line class="st7" x1="315.7" y1="52.8" x2="312" y2="52.8"/>
	</g>
	<g>
		<line class="st7" x1="418.2" y1="152.2" x2="418.2" y2="155.9"/>
		<line class="st7" x1="420" y1="154.1" x2="416.3" y2="154.1"/>
	</g>
</g>
<g>
	<path class="st8" d="M280.2,259.6c0,0-7,3-7,4.5c0,0.9,9.6-0.4,10.2-0.9c0.9-0.9-0.4-3.4-0.4-3.4L280.2,259.6z"/>
	<path class="st9" d="M279.7,255.4l0.4,4.3c0,0,0.2,0.7,1.2,0.8c1,0.1,1.6-0.8,1.6-0.8l-0.3-5.4"/>
	<g>
		<path class="st8" d="M291.9,156.8c2.5,10.2,1.6,15.4-2.1,23.2c-2.3,26-3.8,51.9-6.9,77.2l-3.2,0.2c-7.3-24.7-14-61.5-13.2-95.3"/>
	</g>
	<g>
		<path class="st10" d="M290.3,160.3c0.9,2.4,1.2,5.1,1.1,7.6c-0.1,3.9-1.7,7.4-2.7,11.1c-1.4,4.9-1.5,9.8-1.8,14.9
			c-0.6,7.9-1.2,15.8-1.8,23.7c-1,12.9-2,25.7-3,38.6c0,0.4-0.1,0.8-0.1,1.1"/>
	</g>
</g>
<g>
	<path class="st8" d="M308,260.6c0,0-7,3-7,4.5c0,0.9,9.6-0.4,10.2-0.9c0.9-0.9-0.4-3.4-0.4-3.4L308,260.6z"/>
	<path class="st9" d="M307.6,256.4l0.4,4.3c0,0,0.2,0.7,1.2,0.8c1,0.1,1.6-0.8,1.6-0.8l-0.3-5.4"/>
	<g>
		<path class="st8" d="M315.2,155.9c3.2,10.1,2.6,15.3-0.6,23.3c-0.5,26.1-2.3,53.3-3.7,78.8h-3.3c-8.9-24.1-18.5-61.4-19.8-95.1"/>
	</g>
	<g>
		<path class="st10" d="M313.6,160.1c0,0,3.7,8.7-2.6,21c-0.7,11.6-1.1,76.9-1.1,76.9"/>
		<path class="st10" d="M304.4,162.9c0.6,1,1.6,1.7,2.7,2.1c1.1,0.4,2.2,0.6,3.4,0.8c1.4,0.2,2.8,0.3,4.2,0.2"/>
		<path class="st10" d="M304.8,164.5c1.2,1.1,2.7,1.7,4.3,2.1c1.6,0.4,3.2,0.4,4.8,0.5"/>
	</g>
</g>
<g>
	<path class="st9" d="M277,107.3c-11.1,19.3-23.1,36.9-30.2,58l-2.1-1.1c0.5-19.6,6.9-48.2,15.3-66"/>
</g>
<g>
	<path class="st11" d="M271.6,87.1c0,0-3.4,1-7.5,3.7c-3.8,2.5-6.7,6.3-8.6,10.4c-2,4.1-3,8.6-3.7,13.1c0,0,4.7,2.3,10,3
		c5.3,0.7,11,0,11,0"/>
</g>
<g>
	<g>
		<path class="st11" d="M263.3,98.6c-1.2,20.9-0.3,42.4,0.3,62.8c0,0,7.3,1.9,25,1.9c17.7,0,29.2-5.4,29.2-5.4
			c-3.4-20.9-6.1-46.6-14.5-63.8c0,0-9.5-10.2-18.8-10.6c-1.9-0.1-3.7,0.6-5.5,1.4c-1.3,0.6-7.4,2.1-7.4,2.1L263.3,98.6z"/>
	</g>
	<path class="st12" d="M263.2,100.4c-0.5,4-0.5,16.4-0.5,16.4"/>
</g>
<path class="st13" d="M280.8,168c29.6-3.3,42,34.3,48.8,48.8c15.9,34.4,76.1,30.6,103.5,30.6c35.9,0,51.7,12.1,34.9,18.4"/>
<path class="st14" d="M291,169.7c0,15.2-11.5,24.4-21.4,24.4h-16.2v-48.9h16.2C279.5,145.2,291,154.4,291,169.7z"/>
<path class="st15" d="M282.7,169.7c0,14.9-8.8,27-19.7,27h-17.8v-53.9H263C273.9,142.7,282.7,154.8,282.7,169.7z"/>
<path class="st16" d="M286.7,154.9c-3.9,5.3-7.6,10.6-11.3,16c0.5-0.1,1-0.4,1.4-0.7c0,0.4-0.6,1.1-0.1,1.4c0.6,0.3,1.2-0.4,1.8-0.2
	c0.6-0.1,1.1-0.8,1.5-1.2c-0.2,0.4-0.2,0.7-0.3,0.9c3.9-1.5,7.5-5.2,10.5-8.2C289.5,159.9,288.2,157.2,286.7,154.9z"/>
<ellipse class="st14" cx="246.5" cy="169.7" rx="19.7" ry="27"/>
<g>
	<g>
		<path class="st15" d="M248.1,179.2c0,2.2-1.5,4-3.4,4s-3.4-1.8-3.4-4c0-2.2,1.5-4,3.4-4S248.1,177,248.1,179.2z"/>
	</g>
	<g>
		<path class="st15" d="M248.1,160.1c0,2.2-1.5,4-3.4,4s-3.4-1.8-3.4-4c0-2.2,1.5-4,3.4-4S248.1,157.9,248.1,160.1z"/>
	</g>
</g>
<g>
	<g>
		<path class="st9" d="M308.7,114c0,0,1.2,12.7-4.4,23.3c-4.9,9.1-14.5,20.8-22.4,27.2l-1.9-0.5c2.7-10.4,11.3-29,11.8-35.9
			c0.5-6.9,0.4-15,0.5-18.9"/>
	</g>
	<path class="st11" d="M284.5,83.5c0,0,10.5,0.7,16.6,5.9c8.7,7.3,10,21.7,10,25c-2.6,2.8-8.4,3-12.5,3c-4.2,0-7.2-2-7.2-2
		l-0.9-15.8"/>
	<g>
		<path class="st9" d="M280.8,162.6c-1.2,0.1-2.3,0.7-3.4,1.5c-0.9,0.7-2,1.9-1.9,2.5c0.1,0.6,1.6-0.5,1.8-0.3
			c0.2,0.2-2.6,4.4-2.1,4.7c0.5,0.3,2.9-3.5,2.9-3.5s-2.3,4-1.4,4.1c0.7,0.1,2.8-3.7,2.8-3.7s-1.7,3.4-1.1,3.5
			c0.6,0.1,2.2-3.3,2.2-3.3s-1.3,2.9-0.8,3c0.2,0,1.5-1.4,2.1-3.2c0.5-1.7,1.1-3.2,0.7-4.6"/>
	</g>
	<line class="st12" x1="291.7" y1="101.2" x2="291.7" y2="115.6"/>
</g>
<g>
	<path class="st9" d="M278.6,71.5c-0.9-3.5-3.7-8.4-8.3-7.4c-2.9,0.6-5.5,2.6-6.4,5.3c-1,3.3,0.6,7.1,2.6,9.8c0.7,1,1.6,1.9,2.7,2.5
		c2.7,1.4,6.3,0.2,8.1-2S279.3,74.3,278.6,71.5z"/>
</g>
<path class="st9" d="M272.1,80.7l1.5,5.5l-2,1c0,0,1.6,2.1,4.6,1.6c6.3-0.9,8.3-5.3,8.3-5.3l-3.5-0.4l-3.9-6.7"/>
<g>
	<path class="st17" d="M381.4,66.2c-0.4-2.4-2.2-4.5-4.2-5.7c-3.7-2.3-9-2.4-12.3,0.7c-1.9,1.8-5.3,8-1.2,9.3
		c1.3,0.4,2.6-0.4,3.7-1.1c1.1-0.7,2.2-1.5,3.4-2.2c0.4-0.3,0.8-0.5,1.3-0.6c0.8,0,1.4,0.7,1.7,1.4c0.3,0.7,0.3,1.6,0.5,2.3
		c0.1,0.5,0.4,1.1,0.8,1.4c0.5,0.3,1.2,0.2,1.5-0.3c0.2-0.4,0-0.8,0-1.2c0-0.4,0.2-0.9,0.6-0.8c0.1,0,0.3,0.1,0.4,0.2
		c1,0.8,0.7,2.3,1,3.5c0,0.2-0.3,2.6-0.2,2.7C381.4,75,381.7,67.9,381.4,66.2z"/>
</g>
<g>
	<path class="st9" d="M277,71.1c-0.1-0.4,0.4-0.9,0.8-0.9c0.4,0,0.9,0.2,1.2,0.5c0.6,0.5,1,1.2,1,2c0,0.6-0.2,1.2-0.6,1.7
		c-0.2,0.3-0.5,0.7-0.9,0.8c-0.5,0.2-1.1-0.1-1.4-0.4"/>
</g>
<g>
	<path class="st8" d="M165.7,259.4c0,0,6.7,1.1,6.9,2.6c0.1,0.8-9.5,1.9-10.1,1.4c-1-0.8,0.2-3.8,0.2-3.8L165.7,259.4z"/>
	<path class="st9" d="M165.1,255.3l0.6,4.3c0,0-0.1,0.7-1.1,0.9c-1,0.2-1.7-0.6-1.7-0.6l-0.8-5.3"/>
	<g>
		<path class="st8" d="M139.9,158.1c-1.2,10.5-1.3,15.5,3.4,22.7c2.2,10.1,5.6,20.5,8.2,30.9c-1.1,12.4,6.7,32.2,10.9,46.3l3-0.5
			c4.1-25.4,5.6-64.4,1.9-98.5"/>
	</g>
	<path class="st10" d="M141.9,172.3c0,0,11.6,36.8,11.6,38.8s0.3,8.9,0.8,13.3c0.9,8.2,8.3,32.2,8.3,32.2"/>
	<polygon class="st18" points="162.3,258.6 161.8,256.8 165.7,256.6 165.8,258.3 	"/>
</g>
<g>
	<path class="st8" d="M113.2,259.6c0,0,5.3,3.8,4.8,5.2c-0.3,0.8-8.9-2.4-9.2-3.1c-0.5-1.1,1.8-3.1,1.8-3.1L113.2,259.6z"/>
	<path class="st9" d="M114.5,255.9l-1.3,3.9c0,0-0.4,0.6-1.3,0.3c-0.9-0.2-1.2-1.2-1.2-1.2l1.6-4.9"/>
	<g>
		<path class="st8" d="M117.3,155.9c-3.2,10.1-2.6,15.3,0.6,23.3c0.2,9.5,0.3,19.2,0.4,28.8c-6.8,17-7.9,32.2-7,48.4l3.3,1.2
			c0,0,19.5-34,23.1-47.4c4.1-15.4,6.4-31.9,7.1-47.3"/>
	</g>
	<path class="st10" d="M118.1,158.1c0,0-3.5,10.4,1.1,20.4c0,2.8,1.6,26,1,29.6c-0.3,1.7-3.5,9.9-5.6,17.9
		c-2.4,8.8-2.9,29.7-2.9,29.7"/>
	<polygon class="st18" points="110.6,256.4 111.2,254.2 115.4,256.2 114.5,258.1 	"/>
</g>
<path class="st19" d="M171.8,78.3l-2.6-2.2c0,0,0-3.9,0-4.6s-1-5-1.9-5c-0.9,0-1.1-1.1-1.5-0.6c-0.4,0.4,0.4,5.3,0,5.7
	s-0.8-2.3-1.2-2c-0.3,0.3-0.4,2.3-0.4,3.3c0,1,0.8,2.9,1.6,3.7c0.8,0.8,4.3,4.6,4.3,4.6L171.8,78.3z"/>
<g>
	<path class="st11" d="M170.5,76.8l-2.2,2.5c0,0,8.7,11.5,11.4,15.3c-2.5-0.9-6.1-3.1-8.2-4.4c-4.1-2.7-8.2-4.1-11-4.1
		c-6,0-2.9,19.8,4.1,22.7c13.2,2,28,0.7,30.3-3.9C198.3,98,178.9,81.8,170.5,76.8z"/>
</g>
<path class="st12" d="M179.7,94.6c0,0,1.7,4.6,4.6,6.1"/>
<g>
	<g>
		<path class="st11" d="M130.2,91.3c-15.8,17.7-15.5,48.1-15.5,68.8c0,0,11.6,7.9,29.2,7.9c17.7,0,25-4.4,25-4.4
			c0.5-20.9-3.2-30,0.3-64.6c0,0-5.6-12.9-8.6-12.9c-3,0-14.8-1.2-14.8-1.2L130.2,91.3z"/>
	</g>
	<path class="st12" d="M168.3,109.2c0,0,0.4-6.1,1.8-7.5"/>
</g>
<g>
	<path class="st9" d="M151,71.7c0.6-3.6,3.1-8.7,7.8-8.1c2.9,0.4,5.2,2.4,6.8,4.8c1.4,2,0.9,4-1.1,9.1c-0.6,1.1-2,2.9-3.1,3.6
		c-2.5,1.6-6.2,0.8-8.2-1.3S150.5,74.5,151,71.7z"/>
</g>
<g>
	<path class="st20" d="M151.6,71.2c0.7-0.1,0-0.5,0.3,0.1c0.2,0.4,0.2,0.5,0.6,0.6c0.4,0.1,0.4,0.5,0.7,0.7c0.5,0.4,0.9-0.1,1.1-0.5
		c0.4-0.8,0.4-1.7,0.3-2.5c-0.1-0.7-0.3-1.7,0.4-2.2c0.5-0.4,1.7,0.2,2.2,0.3c0.8,0.2,1.7,0.5,2.5,0.8c2,0.6,4.1,1.2,6.3,0.9
		c1.8-0.2,3.8-1.2,4.6-2.9c1.1-2.1-1.1-4.7-3.2-4.7c-0.6,0-1.1,0.2-1.7,0.3c-0.2,0-0.4,0.1-0.6,0c-0.5-0.1-0.7-0.7-0.9-1.1
		c-0.8-1.2-2.2-1.6-3.6-1.5c-1.6,0.2-3,0.9-4.5,1.4c-0.8,0.2-1.5,0-2.3,0c-0.8,0-1.7,0.6-2.1,1.3c-0.7-0.7-2.1,1-2.5,1.4
		c-1.6,1.9-2.1,4.7-2.1,7.2c0,2.1,0.3,5.3,2.7,6.1c1,0.4,1.6,0.6,1.7-0.4c-0.4-0.9-0.5-2.8-0.6-3.6c-0.1-0.8,0.1-1.7,0.9-2"/>
</g>
<path class="st9" d="M159.2,80.2l-0.5,5.4l1.8,0.5c0,0-0.9,2.4-4,2.8c-6.3,0.8-10.7-4-10.7-4l2.1-0.4l3.2-10"/>
<g>
	<path class="st9" d="M152.6,71.2c0-0.4-0.4-0.8-0.9-0.8c-0.4,0-0.9,0.3-1.2,0.6c-1.8,1.8,0.5,6,2.2,3.8"/>
</g>
<g>
	<path class="st20" d="M164.5,77.4c-0.3,0.7-1.4,0.9-2,1c-3,0.3-5.4-1.6-8.2-1.9c-0.6-0.1-1.2-0.1-1.6,0.3c-0.4,0.4-0.4,1-0.4,1.5
		c0,0.7,0,1.3,0,2c0.1,0.6,0.2,1.1,0.5,1.6c1.3,2.1,5.5,2.5,7.7,2.4c0.9-0.1,1.8-0.2,2.5-0.7c1-0.7,1.2-2,1.5-3.1
		C164.8,78.9,164.5,77.4,164.5,77.4z"/>
</g>
<g>
	<path class="st9" d="M162.4,79.7c-0.1-0.1-0.2-0.1-0.3-0.1c-1.4,0-2.1-0.3-3.2-0.4c-0.2,0-0.4,0-0.5,0c-0.4,0.1-0.6,0.5-0.7,0.9
		c-0.1,0.4,0.1,0.7,0.5,0.9c0.6,0.3,1.4,0.4,2.1,0.5c0.6,0,1.4,0.1,1.9-0.3C162.4,80.8,162.8,80,162.4,79.7z"/>
</g>
<path class="st13" d="M149.4,157.8c-34.4-1.8-54.4,16-68.7,48.3c-18.5,42-44.3,45.3-55.9,45.1"/>
<path class="st14" d="M136.2,160.6c1.3,15.2,13.5,23.4,23.3,22.6l16.1-1.3l-4.1-48.7l-16.1,1.3C145.6,135.3,134.9,145.4,136.2,160.6
	z"/>
<path class="st15" d="M144.5,159.9c1.2,14.8,11,26.1,21.9,25.2l17.8-1.5l-4.5-53.7l-17.8,1.5C151,132.3,143.2,145,144.5,159.9z"/>
<ellipse transform="matrix(0.9965 -8.312733e-02 8.312733e-02 0.9965 -12.4151 15.5555)" class="st14" cx="180.6" cy="156.9" rx="19.7" ry="27"/>
<g>
	<g>
		<path class="st15" d="M179.8,166.5c0.2,2.2,1.8,3.9,3.7,3.7c1.9-0.2,3.2-2.1,3-4.3s-1.8-3.9-3.7-3.7
			C180.9,162.4,179.6,164.3,179.8,166.5z"/>
	</g>
	<g>
		<path class="st15" d="M178.2,147.5c0.2,2.2,1.8,3.9,3.7,3.7c1.9-0.2,3.2-2.1,3-4.3c-0.2-2.2-1.8-3.9-3.7-3.7
			C179.3,143.4,178,145.3,178.2,147.5z"/>
	</g>
</g>
<g>
	<path class="st21" d="M182.1,150c2-0.2,25.1-2.1,25.1-2.1c1.5-0.1,2.7-1.5,2.5-3l0,0c-0.1-1.5-1.5-2.7-3-2.6c0,0-23.2,1.9-25.1,2.1
		C179.7,144.5,180.1,150.2,182.1,150z"/>
	<path class="st21" d="M183.7,169c2-0.2,25.1-2.1,25.1-2.1c1.5-0.1,2.7-1.5,2.5-3l0,0c-0.1-1.5-1.5-2.7-3-2.6c0,0-23.2,1.9-25.1,2.1
		C181.3,163.6,181.7,169.2,183.7,169z"/>
</g>
<g>
	<path class="st9" d="M121.8,114c0,0-1.2,12.7,4.4,23.3c4.9,9.1,14.5,20.8,22.4,27.2l1.9-0.5c-2.7-10.4-11.3-29-11.8-35.9
		c-0.5-6.9-0.4-15-0.5-18.9"/>
</g>
<path class="st11" d="M145.7,84.9c0,0-11,0.6-17.4,5.4c-11,8.3-8.8,30.6-5.6,41.5s18.6,27.2,23.5,30.7c0.8,0,3.2-0.2,3.1-2.1
	c-2.7-8.5-10.6-30.8-10.6-30.8l1.2-30.1"/>
<g>
	<path class="st9" d="M149.7,162.6c1.2,0.1,2.3,0.7,3.4,1.5c0.9,0.7,2,1.9,1.9,2.5c-0.1,0.6-1.6-0.5-1.8-0.3
		c-0.2,0.2,2.6,4.4,2.1,4.7c-0.5,0.3-2.9-3.5-2.9-3.5s2.3,4,1.4,4.1c-0.7,0.1-2.8-3.7-2.8-3.7s1.7,3.4,1.1,3.5
		c-0.6,0.1-2.2-3.3-2.2-3.3s1.3,2.9,0.8,3c-0.2,0-1.5-1.4-2.1-3.2c-0.5-1.7-1.1-3.2-0.7-4.6"/>
</g>
<path class="st12" d="M141.9,138.5c-1.8-5.1-3.1-8.9-3.1-8.9l2.3-25.3"/>
<path class="st12" d="M120.2,110.5c-0.1,6.9,0.8,15.3,2.5,21.3c1.5,5.2,5.9,11.7,10.6,17.5"/>
<path class="st9" d="M356.4,73.3l1.8-1.2c0,0,0.8-3.9,1.3-4.6c0.5-0.7,1.4-2.3,2.4-3c0.4-0.3,2.4-1.4,2.9-0.9c0.2,0.2-0.6,2.5-1,2.9
	c-0.4,0.4-1.5,2.1-1.3,2.6c0.2,0.5,1.1-0.6,1.3-0.9c0.2-0.2,0.5-0.5,0.6-0.2c0.2,0.5-0.8,3.2-1.6,3.9c-0.8,0.8-2,1.5-2.9,1.5
	l-2.8,2.4"/>
<path class="st22" d="M370.5,87.1c-10-2.6-21.4,1.5-23.9,1.5c3.5-3.5,9.9-11.2,12.1-13.9c0-1.8-1.1-2.4-1.1-2.4S330.2,86.5,333,95.7
	c2.9,9.6,29.7,4.9,31.8,7.7"/>
<g>
	<path class="st9" d="M372.5,176.9c0,0.8-3.6,18.4-3.9,20.3c-0.8,5.5,2.1,11,1.9,19.5c-0.3,10.3-4.7,38.2-5.3,39.4
		c-0.6,1.2-3.2,0.1-3.2,0.1s-7.7-37.3-8.2-52.6c-0.4-12.6,1.5-39.8,1.5-39.8"/>
	<path class="st8" d="M365.5,256.5c0,0,0.4,0.9,0.4,1.4c-0.1,1.2-0.1,1.9-0.1,1.9l-0.5,0l-0.2-0.9c0,0-1.3,0.2-2.7,1.1
		c-0.7,0.4-4,0.4-4.5,0.1c-0.6-0.3-0.4-0.8-0.2-1.1c0.2-0.2,3.8-1.8,3.8-1.8"/>
	<path class="st9" d="M361.9,256.2c-0.3,0.7-3.1,2.2-2.9,2.5c0.3,0.2,1.9,0.2,3.7-0.4c1.7-0.6,2.6-1.2,2.7-1.6l-0.3-1.2"/>
</g>
<g>
	<path class="st9" d="M397.3,177.6c0,0.8-3,18.5-3.2,20.4c-0.6,5.5,2.5,10.9,2.4,19.4c0,10.4-3.6,38.3-4.1,39.5
		c-0.5,1.2-3.2,0.2-3.2,0.2s-8.9-37-9.8-52.3c-0.7-12.6,0.3-39.8,0.3-39.8"/>
	<path class="st8" d="M392.7,257.4c0,0,0.5,0.9,0.5,1.4c0,1.2,0,2,0,2l-0.5,0l-0.2-0.9c0,0-1.3,0.3-2.7,1.2c-0.6,0.5-4,0.5-4.5,0.3
		c-0.6-0.3-0.4-0.8-0.2-1.1c0.2-0.2,3.7-1.9,3.7-1.9"/>
	<path class="st9" d="M389.2,257.2c-0.3,0.7-3.1,2.3-2.8,2.5c0.3,0.2,1.9,0.2,3.7-0.5c1.6-0.6,2.6-1.3,2.6-1.7l-0.4-1.2"/>
</g>
<path class="st23" d="M388.3,132.4c0,0,7.9,5.2,10.9,17.6c4.1,16.8-1.9,49.7-1.9,49.7s-12.4,3.6-25.9,3.5
	c-13.5-0.1-21.5-4.7-21.5-5.5c0-0.8-2-25.7,0.7-42.6c3.1-19,10.9-24.1,10.9-24.1"/>
<g>
	<g>
		<path class="st22" d="M377.6,86.8c1.2-0.5,4.4,0.7,10.4,2.9c2.6,2.8,3.8,9.1,4.3,14.6c-1.5,13.4-3.3,20.7-2.4,25.2
			c0.2,1.1,1.2,1.9,1,3.4c-0.3,3.1-5.4,3.6-15,4.6c-9.6,1.1-18.2-3.3-17.7-4.6c0.5-1.4,2.2-2.6,2.4-3.5c0.3-0.9,1-12.4,0-13.7
			c-1-1.4-3.7-5.3-3.7-9.1c0-5.4,3-7.8,4.9-10.7c3.2-4.9,5.7-8,8.8-8.8C375.5,85.9,377.6,86.8,377.6,86.8z"/>
	</g>
	<path class="st24" d="M361.4,93.6c0,0,0.3,2.3-0.8,4.2c-0.4,0.6-2.5,2.8-3,4.2"/>
</g>
<g>
	<path class="st9" d="M375.3,80.2c2.6-2.6,3-7.5,1.8-10.9c-1.3-3.8-6.7-6.6-10.4-4.2C359.5,69.8,366.8,88.6,375.3,80.2z"/>
</g>
<path class="st9" d="M370.3,79.8l0.1,8c0,0-0.3,1.8,2.8,1.9c4.3,0.2,4.3-2.9,4.3-2.9l-2.5-8.3"/>
<g>
	<path class="st17" d="M371.9,62.4c-0.8-0.5-1.6-0.5-2.3-0.1c-0.5,0.3-0.8,0.8-1.3,1c-0.4,0.2-0.8,0.2-1.2,0.3
		c-1.8,0.5-3.5,1.8-4.2,3.5c-0.8,1.7-0.5,4.5,0.9,5.7c-0.1-1.3,0.3-3.2,1-4.3c0.4-0.6,1-1.2,1.6-1.1c0.8,0.1,1.2,0.9,1.8,1.5
		c0.8,0.8,2.1,1,3.2,1.2c1.3,0.2,2.2,0.4,2.9,1.7c0.3,0.5,0.4,1.1,0.6,1.7c0.2,0.7,0.3,1.4,0.4,2.1c0,0.4,0,0.9,0.1,1.3
		c0.3,0.8,1.1,1.4,2,1.6c0.6,0.2,1.7,0.4,2.1-0.3c0.3-0.6,0.6-1.5,0.7-2.2c0.4-2.3-0.3-4.7-1.6-6.7c-1.4-2.2-3.3-3.6-5.1-5.4
		C373,63.4,372.5,62.8,371.9,62.4z"/>
</g>
<g>
	<path class="st9" d="M375.6,74c0.2-0.6,0.6-1.2,1.2-1.3c2-0.3,1.7,2.7,0.9,3.8c-0.5,0.6-1.7,1.4-2.2-0.3"/>
</g>
<g>
	<path class="st9" d="M397.3,136.5l-1,2.1c0,0-3.6,0.9-4,1.5c-0.6,1-1.5,2.4-1.5,3.2c0,0.8,0.1,4.3,1.1,4.3c0.6,0,2.1-2.8,2.4-3.2
		c0.7-0.9,3.6-1.6,3.6-4.1l1.8-3.7"/>
	<path class="st22" d="M377.6,86.7c0,0,8.5-2.2,15.1,2c5.1,3.2,18.4,19.4,18.4,28.7c0,6.2-12.4,21.7-12.4,21.7l-2.1-1.5
		c0,0,1.2-12.2,4.8-18.8c-2.7-2.7-13-10.9-15.6-13.5"/>
	<path class="st24" d="M384.5,104.4c1.9,1.6,6.7,5.6,6.7,5.6"/>
</g>
<g>
	<path class="st25" d="M134.5,72.4l-10.2-8.3c0,0,4.6-17-1.5-23c-3.2-3.2-7.3-5.3-11.6-6.9c-9.4-3.6-20.7-4.4-29.1,1.2
		c-6.2,4.1-10,11.2-11.7,18.4C68.9,60.2,69,67.4,73,72.6c1.8,2.3,4.2,4.1,6.8,5.5c8.1,4.2,29.5,5.8,38.8-0.4
		c2.6-1.7,2.3-4.1,3.4-7.7L134.5,72.4z"/>
</g>
<text transform="matrix(1 0 0 1 74.1542 62.6973)" class="st26 st27 st28">Oops!</text>
<g>
	<path class="st4" d="M273,61.6c-0.9-0.6-1.8-0.6-2.7-0.1c-0.6,0.3-1,0.9-1.5,1.1c-0.4,0.2-0.9,0.2-1.4,0.3
		c-2.1,0.6-4.1,2.2-4.9,4.2c-0.9,2-0.6,5.3,1.1,6.7c-0.1-1.5,0.4-3.8,1.2-5.1c0.4-0.7,1.1-1.4,1.9-1.3c0.9,0.1,1.4,1.1,2.1,1.7
		c1,1,2.4,1.2,3.7,1.4c1.5,0.2,2.6,0.5,3.4,1.9c0.3,0.6,0.5,1.3,0.7,2c0.2,0.8,0.4,1.6,0.5,2.5c0,0.5,0,1.1,0.2,1.6
		c0.3,1,1.3,1.6,2.3,1.9c0.8,0.3,2,0.5,2.5-0.4c0.4-0.7,0.7-1.7,0.9-2.5c0.5-2.7-0.4-5.5-1.9-7.8c-1.6-2.5-3.9-4.2-5.9-6.4
		C274.3,62.7,273.7,62,273,61.6z"/>
</g>
</svg>
