<?xml version="1.0" encoding="utf-8"?>
<!-- Generator: Adobe Illustrator 23.0.3, SVG Export Plug-In . SVG Version: 6.00 Build 0)  -->
<svg version="1.1" id="Layer_1" xmlns="http://www.w3.org/2000/svg" xmlns:xlink="http://www.w3.org/1999/xlink" x="0px" y="0px"
	 viewBox="0 0 500 500" style="enable-background:new 0 0 500 500;" xml:space="preserve">
<style type="text/css">
	.st0{fill:#396CAA;}
	.st1{fill:#5793CE;}
	.st2{fill:#D4ECFF;}
	.st3{fill:#FFFFFF;}
	.st4{fill:#1B1C1C;}
	.st5{fill:#05B18B;}
	.st6{fill:#FFC2B0;}
	.st7{fill:#191919;}
	.st8{fill:url(#SVGID_1_);}
	.st9{fill:#1C1C1C;}
	.st10{fill:url(#SVGID_2_);}
	.st11{fill:#EA9C92;}
	.st12{fill:#070707;}
	.st13{fill:url(#SVGID_3_);}
	.st14{fill:#173D7A;}
	.st15{fill:#274F89;}
	.st16{fill:#2D6AC7;}
	.st17{fill:#0E9978;}
	.st18{opacity:0.21;}
	.st19{fill:#16997A;}
	.st20{opacity:0.11;}
	.st21{opacity:0.19;fill:#2B63A5;}
	.st22{opacity:0.17;fill:#2B63A5;}
	.st23{clip-path:url(#SVGID_5_);}
	.st24{fill:#249B9B;}
	.st25{fill:#1FCED1;}
	.st26{fill:#149374;}
</style>
<path class="st0" d="M362.9,376.2l102.8-59.5c3.4-2,4.9-4.6,4.8-7.3l0,0l0-14.9l-5.7,6.7c-0.4-0.2-0.7-0.5-1.1-0.7L253.4,179.6
	c-8.3-4.8-21-5.3-28.2-1.1l-101.3,58.6c-2.1-2.2-6.4-7-6.4-7l0,14.6l0,0c-0.2,3.3,2.2,6.8,6.9,9.5L334.8,375
	C343.1,379.8,355.7,380.3,362.9,376.2z"/>
<path class="st1" d="M253.4,179.6c-8.3-4.8-21-5.3-28.2-1.1l-101.3,58.6c-2.1-2.2-6.4-7-6.4-7l0,14.6l0,0c-0.2,3.3,2.2,6.8,6.9,9.5
	L334.8,375c4.4,2.5,9.9,3.8,15.2,3.9l-0.2-144L253.4,179.6z"/>
<path class="st2" d="M122.4,222.9l102.8-59.5c7.2-4.2,19.8-3.7,28.2,1.1l210.2,120.9c8.3,4.8,9.3,12.1,2,16.3l-102.8,59.5
	c-7.2,4.2-19.8,3.7-28.2-1.1L124.5,239.2C116.1,234.4,115.2,227.1,122.4,222.9z"/>
<path class="st3" d="M363,362.8l102.8-59.5c3.7-2.2,5.3-5.1,4.8-8.2c-0.2,2.5-1.8,4.8-4.8,6.6l-102.8,59.5
	c-7.2,4.2-19.8,3.7-28.2-1.1L124.5,239.2c-4-2.3-6.3-5.2-6.8-8.1c-0.2,3.3,2.1,6.9,6.9,9.7l210.2,120.9
	C343.1,366.4,355.8,367,363,362.8z"/>
<path class="st4" d="M130.4,225.3l98.8-57.1c5.4-3.1,14.7-2.7,20.9,0.8l207.3,119.2c6.2,3.6,6.9,9,1.5,12.1l-98.8,57.1
	c-5.4,3.1-14.7,2.7-20.9-0.8L131.9,237.3C125.7,233.8,125,228.4,130.4,225.3z"/>
<polygon class="st5" points="366.9,55.6 372.4,73.5 386.3,83.1 375.7,87.4 378.9,105.2 366.9,89.7 354.9,91.3 358.1,77.2 
	347.5,60.7 361.4,67.2 "/>
<path class="st5" d="M340.9,64.4l6.5-3.7l10.1,4.7c0,0,0,6.8,0,6.9c0,0.2-4.2,0.4-4.4,0.4C352.8,72.7,340.9,64.4,340.9,64.4z"/>
<path class="st5" d="M378.9,105.2l-6.5,3.7l-3.2-17.8c0,0,3.2-3.3,3.1-3.3c0,0,3.6,0.6,3.6,0.6L378.9,105.2z"/>
<polygon class="st5" points="360.4,59.4 365.8,77.2 379.8,86.8 369.2,91.2 372.4,108.9 360.4,93.5 348.4,95.1 351.5,81 340.9,64.4 
	354.9,70.9 "/>
<path class="st5" d="M372.4,108.9l-3.2-17.8l10.6-4.3l-14-9.6l-5.5-17.9l-5.5,11.6l-14-6.5l1,1.5l13.5,6.3l4.8-10.2l4.8,15.8
	l12.8,8.8l-9.7,3.9l3,16.7L372.4,108.9z"/>
<polygon class="st5" points="360.4,59.4 366.9,55.6 372.4,73.5 365.8,77.2 "/>
<polygon class="st5" points="386.3,83.1 379.8,86.8 365.8,77.2 372.4,73.5 "/>
<polygon class="st5" points="366.2,77.7 365.2,77.1 372.2,73 372.4,73.5 372.8,73.8 "/>
<g>
	<polygon class="st5" points="411.4,81.1 416.9,99 430.8,108.6 420.3,112.9 423.4,130.6 411.4,115.2 399.4,116.8 402.6,102.7 
		392,86.2 406,92.7 	"/>
	<path class="st5" d="M385.5,89.9l6.5-3.7l10.1,4.7c0,0,0,6.8,0,6.9c0,0.2-4.2,0.4-4.4,0.4C397.3,98.1,385.5,89.9,385.5,89.9z"/>
	<path class="st5" d="M423.4,130.6l-6.5,3.7l-3.2-17.8c0,0,3.2-3.3,3.1-3.3c0,0,3.6,0.6,3.6,0.6L423.4,130.6z"/>
	<polygon class="st5" points="404.9,84.8 410.4,102.7 424.3,112.3 413.7,116.6 416.9,134.4 404.9,118.9 392.9,120.5 396.1,106.4 
		385.5,89.9 399.4,96.4 	"/>
	<path class="st5" d="M416.9,134.4l-3.2-17.8l10.6-4.3l-14-9.6l-5.5-17.9l-5.5,11.6l-14-6.5l1,1.5l13.5,6.3l4.8-10.2l4.8,15.8
		l12.8,8.8l-9.7,3.9l3,16.7L416.9,134.4z"/>
	<polygon class="st5" points="404.9,84.8 411.4,81.1 416.9,99 410.4,102.7 	"/>
	<polygon class="st5" points="430.8,108.6 424.3,112.3 410.4,102.7 416.9,99 	"/>
</g>
<polygon class="st5" points="410.7,103.2 409.7,102.6 416.7,98.5 416.9,99 417.3,99.3 "/>
<g>
	<polygon class="st5" points="342.4,102 347.9,119.9 361.9,129.5 351.3,133.9 354.4,151.6 342.4,136.2 330.4,137.8 333.6,123.7 
		323,107.1 337,113.6 	"/>
	<path class="st5" d="M316.5,110.9l6.5-3.7l10.1,4.7c0,0,0,6.8,0,6.9c0,0.2-4.2,0.4-4.4,0.4C328.4,119.1,316.5,110.9,316.5,110.9z"
		/>
	<path class="st5" d="M354.4,151.6l-6.5,3.7l-3.2-17.8c0,0,3.2-3.3,3.1-3.3c0,0,3.6,0.6,3.6,0.6L354.4,151.6z"/>
	<polygon class="st5" points="335.9,105.8 341.4,123.7 355.3,133.3 344.7,137.6 347.9,155.4 335.9,139.9 323.9,141.5 327.1,127.4 
		316.5,110.9 330.5,117.4 	"/>
	<path class="st5" d="M347.9,155.4l-3.2-17.8l10.6-4.3l-14-9.6l-5.5-17.9l-5.5,11.6l-14-6.5l1,1.5l13.5,6.3l4.8-10.2l4.8,15.8
		l12.8,8.8l-9.7,3.9l3,16.7L347.9,155.4z"/>
	<polygon class="st5" points="335.9,105.8 342.4,102 347.9,119.9 341.4,123.7 	"/>
	<polygon class="st5" points="361.9,129.5 355.3,133.3 341.4,123.7 347.9,119.9 	"/>
</g>
<polygon class="st5" points="341.7,124.1 340.7,123.6 347.7,119.5 347.9,119.9 348.4,120.3 "/>
<g>
	<polygon class="st5" points="387,127.5 392.4,145.4 406.4,155 395.8,159.3 399,177.1 387,161.6 375,163.2 378.1,149.1 367.5,132.6 
		381.5,139.1 	"/>
	<path class="st5" d="M361,136.3l6.5-3.7l10.1,4.7c0,0,0,6.8,0,6.9c0,0.2-4.2,0.4-4.4,0.4C372.9,144.6,361,136.3,361,136.3z"/>
	<path class="st5" d="M399,177.1l-6.5,3.7l-3.2-17.8c0,0,3.2-3.3,3.1-3.3c0,0,3.6,0.6,3.6,0.6L399,177.1z"/>
	<polygon class="st5" points="380.4,131.3 385.9,149.1 399.9,158.7 389.3,163.1 392.4,180.8 380.4,165.4 368.4,167 371.6,152.9 
		361,136.3 375,142.8 	"/>
	<path class="st5" d="M392.4,180.8l-3.2-17.8l10.6-4.3l-14-9.6l-5.5-17.9l-5.5,11.6l-14-6.5l1,1.5l13.5,6.3l4.8-10.2l4.8,15.8
		l12.8,8.8l-9.7,3.9l3,16.7L392.4,180.8z"/>
	<polygon class="st5" points="380.4,131.3 387,127.5 392.4,145.4 385.9,149.1 	"/>
	<polygon class="st5" points="406.4,155 399.9,158.7 385.9,149.1 392.4,145.4 	"/>
</g>
<polygon class="st5" points="386.2,149.6 385.2,149 392.3,144.9 392.4,145.4 392.9,145.7 "/>
<g>
	<polygon class="st5" points="431.5,153 436.9,170.9 450.9,180.5 440.3,184.8 443.5,202.5 431.5,187.1 419.5,188.7 422.7,174.6 
		412.1,158.1 426,164.6 	"/>
	<path class="st5" d="M405.5,161.8l6.5-3.7l10.1,4.7c0,0,0,6.8,0,6.9c0,0.2-4.2,0.4-4.4,0.4C417.4,170,405.5,161.8,405.5,161.8z"/>
	<path class="st5" d="M443.5,202.5l-6.5,3.7l-3.2-17.8c0,0,3.2-3.3,3.1-3.3c0,0,3.6,0.6,3.6,0.6L443.5,202.5z"/>
	<polygon class="st5" points="425,156.7 430.4,174.6 444.4,184.2 433.8,188.5 437,206.3 425,190.8 413,192.4 416.1,178.3 
		405.5,161.8 419.5,168.3 	"/>
	<path class="st5" d="M437,206.3l-3.2-17.8l10.6-4.3l-14-9.6l-5.5-17.9l-5.5,11.6l-14-6.5l1,1.5l13.5,6.3l4.8-10.2l4.8,15.8
		l12.8,8.8l-9.7,3.9l3,16.7L437,206.3z"/>
	<polygon class="st5" points="425,156.7 431.5,153 436.9,170.9 430.4,174.6 	"/>
	<polygon class="st5" points="450.9,180.5 444.4,184.2 430.4,174.6 436.9,170.9 	"/>
</g>
<polygon class="st3" points="430.8,175.1 429.8,174.5 436.8,170.4 436.9,170.9 437.4,171.2 "/>
<path class="st6" d="M248.9,199.3l-4.7,9.2c-1.1,2.2-1.8,4.6-1.9,7l-2,31.5l-6.1-0.1l-2.8-35.4c-0.1-1.1,0-2.2,0.2-3.3l3.2-18
	L248.9,199.3z"/>
<path class="st7" d="M243.3,366.3c0,0-6-3-9.7,1.5c-3.7,4.5-8.9,15.1-9.1,22.3c-0.2,7.2,5.7,6.7,9.1,5c3.5-1.7,13.6-16.4,14.2-19.3
	c0.6-2.9-0.7-6.8-1.7-7.5C245.2,367.4,243.3,366.3,243.3,366.3z"/>
<linearGradient id="SVGID_1_" gradientUnits="userSpaceOnUse" x1="243.1894" y1="205.8984" x2="243.1894" y2="157.0967">
	<stop  offset="0" style="stop-color:#2D6AC7"/>
	<stop  offset="1" style="stop-color:#1FCED1"/>
</linearGradient>
<path class="st8" d="M253,157.1c0,0-16.5,18-23.2,34.4c0,0,5.6,10.2,19.5,14.2C263.1,209.7,253,157.1,253,157.1z"/>
<path class="st2" d="M244.6,364.8l0.3,6.2c0.1,1.3-0.6,2.6-1.8,3.2c-1,0.6-2.6,1-4.6,0.7c-4.5-0.7-4.9-2-5.2-8.2
	C233,360.5,244.6,364.8,244.6,364.8z"/>
<path class="st7" d="M221.4,354.3c0,0-6-3-9.7,1.5c-3.7,4.5-8.9,15.1-9.1,22.3c-0.2,7.2,5.7,6.7,9.1,5c3.5-1.7,13.6-16.4,14.2-19.3
	c0.6-2.9-0.7-6.8-1.7-7.5C223.3,355.5,221.4,354.3,221.4,354.3z"/>
<path class="st2" d="M222.7,352.9l0.3,6.2c0.1,1.3-0.6,2.6-1.8,3.2c-1,0.6-2.6,1-4.6,0.7c-4.5-0.7-4.9-2-5.2-8.2
	C211,348.6,222.7,352.9,222.7,352.9z"/>
<path class="st9" d="M276.1,239.1c-1.8-28.8-31.2,4.2-31.2,4.2l-20.2,19.7L206.6,283c-3.5,3.9-5.2,9.1-4.5,14.4l7.3,55.9
	c0.4,2.8,2.7,4.8,5.5,4.8c0.8,0,1.7-0.1,2.7-0.2c6.6-1,6.1-7.2,6.1-7.2l-1.3-52.3l38.1-23C260.5,275.3,277.9,267.9,276.1,239.1z"/>
<path class="st9" d="M298,250.1c-1.8-28.8-31.2,4.2-31.2,4.2l-20.2,19.7L228.5,294c-3.5,3.9-5.2,9.1-4.5,14.4l7.3,55.9
	c0.4,2.8,2.7,4.8,5.5,4.8c0.8,0,1.7-0.1,2.7-0.2c6.6-1,6.1-7.2,6.1-7.2l-1.3-50.8l38.1-24.5C282.4,286.3,299.8,278.9,298,250.1z"/>
<linearGradient id="SVGID_2_" gradientUnits="userSpaceOnUse" x1="270.0102" y1="269.3265" x2="270.0102" y2="154.3848">
	<stop  offset="0" style="stop-color:#2D6AC7"/>
	<stop  offset="1" style="stop-color:#1FCED1"/>
</linearGradient>
<path class="st10" d="M280.6,157.6c22.3,9.3,21.9,22.4,21.9,22.4s-4.4,48.4-2.9,80.6c0.6,13.5-71.8,14.5-61-21.5
	c12.7-42.5,8-76.8,13.9-82C258.5,152,274.8,155.2,280.6,157.6z"/>
<path class="st6" d="M287.8,169.3c-1.2,4.5-7.1,6.9-13.3,5.3c-6.2-1.6-10.2-6.5-9-11.1c1.2-4.5,7.1-6.9,13.3-5.3
	C284.9,159.8,289,164.8,287.8,169.3z"/>
<path class="st3" d="M278.3,176.2c-1.3,0-2.7-0.2-4-0.5c-3.2-0.8-6-2.5-7.8-4.8c-1.9-2.4-2.6-5.1-2-7.6c1.3-5.1,7.8-7.8,14.6-6.1
	c6.7,1.7,11.1,7.3,9.8,12.4v0C287.8,173.6,283.4,176.2,278.3,176.2z M274.9,158.8c-4.1,0-7.6,1.9-8.4,5c-0.5,1.9,0.1,3.9,1.6,5.7
	c1.6,1.9,3.9,3.4,6.7,4.1c5.6,1.4,10.9-0.6,12-4.6c1-4-2.7-8.3-8.3-9.8C277.3,158.9,276.1,158.8,274.9,158.8z"/>
<path class="st6" d="M271.7,156.6c0,0,0.2,0.9-0.2,8c-0.1,2.2,7.7,4.3,9.7,2.3c2-2,1.2-4.1,1.7-11.7
	C283.3,147.6,271.7,156.6,271.7,156.6z"/>
<path class="st11" d="M282.8,155.2c0,0-1.9,7-11.4,9.7l0.1-6.4L282.8,155.2z"/>
<ellipse class="st6" cx="272.2" cy="141.6" rx="17.2" ry="17.2"/>
<path class="st11" d="M276.1,142.3c0,0-9.5,4.1-16,4.1c-6.6,0-5.1-5.4-5.1-5.4l19.5-2.8L276.1,142.3z"/>
<path class="st12" d="M258.2,143.3c0,0,8.2-3.5,15.5-2c1.7,0.3,3.3,1.3,4.4,2.6c0.4,0.4,0.8,0.8,1.3,1c1.3,0.3,3.4-5,5.9-5.1
	c2.5-0.1,4.2,1.6,2.1,4.9c-2,3.3-1.4,6.9-0.4,7.5c0.9,0.5,12.6-7.6,3.8-25c-8.8-17.4-32.8-7.6-36.3-4c0,0-3.7,3.2-6.6,0.4
	C247.8,123.4,244.4,148.4,258.2,143.3z"/>
<path class="st6" d="M290,215.4v13.1c0,1.5-0.6,2.9-1.7,3.9l-26.9,24.5l3.1,4.7l37-24.2c1.7-1.2,2.7-3,2.9-5.1l2.5-24.2L290,215.4z"
	/>
<linearGradient id="SVGID_3_" gradientUnits="userSpaceOnUse" x1="299.8958" y1="220.7085" x2="299.8958" y2="173.4983">
	<stop  offset="0" style="stop-color:#2D6AC7"/>
	<stop  offset="1" style="stop-color:#1FCED1"/>
</linearGradient>
<path class="st13" d="M300.6,173.5c0,0,8.1,12.2,11.2,44.5c0,0-13.9,4.5-21.8,1.9C282.1,217.4,300.6,173.5,300.6,173.5z"/>
<g>
	<path class="st1" d="M281.5,273.8l-5.9-0.8l-38.3-22.1c-1.2-0.7-3.4-0.6-4.8,0.2l-27.2,15.7l-3.6-0.5v3.6l0,0
		c0,0.5,0.2,0.9,0.8,1.3l43.4,25.1c1.2,0.7,3.4,0.6,4.8-0.2l29.6-17.1c0.8-0.5,1.2-1.1,1.2-1.6l0,0V273.8z"/>
	<path class="st0" d="M252.7,259.8l-2.7-1.6h-29.9l-14.8,8.5l-3.6-0.5v3.6l0,0c0,0.5,0.2,0.9,0.8,1.3l43.4,25.1
		c0.6,0.4,1.6,0.5,2.5,0.5L252.7,259.8z"/>
	<path class="st1" d="M203.3,266.5l-1.6-0.2v3.6l0,0c0,0.5,0.2,0.9,0.8,1.3l0.8,0.4V266.5z"/>
	<path class="st1" d="M246.4,296.4c1.2,0.4,2.8,0.3,4.1-0.3v-6.1h-4.1V296.4z"/>
	<path class="st3" d="M246,292.6l-43.4-25.1c-1.2-0.7-1.1-1.9,0.3-2.8l29.6-17.1c1.4-0.8,3.6-0.9,4.8-0.2l43.4,25.1
		c1.2,0.7,1.1,1.9-0.3,2.8l-29.6,17.1C249.3,293.2,247.2,293.3,246,292.6z"/>
	<path class="st2" d="M245.2,288.8L209.1,268c-1-0.6-0.9-1.6,0.3-2.3l15.8-8.9c1.2-0.7,3-0.8,4-0.2l36.1,20.8c1,0.6,0.9,1.6-0.3,2.3
		l-15.8,8.9C248,289.3,246.3,289.4,245.2,288.8z"/>
</g>
<path class="st6" d="M234.1,246.9l-0.4,3c-0.4,2.6-0.3,5.1,0.2,7.7l0.5,2.6c0.3,1.5,1.5,2.6,3,2.9l0,0c1.2,0.2,2.3-0.6,2.4-1.8
	l0.7-6.4c0,0,1.6,2.1,2.4,2.1c0.8,0-0.9-6.4-2.7-10C238.5,243.4,234.1,246.9,234.1,246.9z"/>
<g>
	<path class="st14" d="M244.5,295l-3.6-4.8l-38.3-22.2c-1.2-0.7-2.2-2.6-2.2-4.3l0-31.3l-2.2-2.9l2.1-1.2l0,0
		c0.4-0.3,0.9-0.2,1.5,0.1l43.4,25.1c1.2,0.7,2.2,2.6,2.2,4.3l0,34.1c0,0.9-0.3,1.6-0.8,1.8l0,0L244.5,295z"/>
	<path class="st0" d="M218,277.1l-2.7-1.6l-14.9-25.9l0-17l-2.2-2.9l2.1-1.2l0,0c0.4-0.3,0.9-0.2,1.5,0.1l43.4,25.1
		c0.6,0.4,1.2,1.1,1.6,1.9L218,277.1z"/>
	<path class="st1" d="M199.1,231l-1-1.3l2.1-1.2l0,0c0.4-0.3,0.9-0.2,1.5,0.1l0.8,0.4L199.1,231z"/>
	<path class="st15" d="M245.5,254c1,0.8,1.7,2.3,1.8,3.7l-4.2,2.4l-2-3.5L245.5,254z"/>
	<path class="st1" d="M243.1,254.9l-43.4-25.1c-1.2-0.7-2.2,0-2.2,1.7l0,34.1c0,1.6,1,3.5,2.2,4.3l43.4,25.1c1.2,0.7,2.2,0,2.2-1.7
		l0-34.1C245.3,257.5,244.3,255.6,243.1,254.9z"/>
</g>
<path class="st6" d="M264.4,261.5l-0.7,1.4c-0.8,1.7-2.1,3.1-3.6,4l-4.3,2.7c-1.3,0.8-3,0.9-4.4,0.1c0,0-0.1-0.1-0.1-0.1
	c-1.4-0.9-1.5-2.8-0.4-4l4.5-4.6c0,0-2.5,1.9-3.2,1.2c-0.5-0.6,2.5-3.4,4.7-3.5c2.3-0.1,4.5-1.9,4.5-1.9L264.4,261.5z"/>
<path class="st16" d="M246.2,204.6l2.7-25.8l-6.3,24.2C243.7,203.6,244.9,204.1,246.2,204.6z"/>
<path class="st3" d="M265.4,153.5l-4.4-1.2c0,0,2.1,3.3,5.2,4.2c3.1,0.8,3.6-1.8,3.6-1.8L265.4,153.5z"/>
<path class="st14" d="M419.2,339.6l-7.2,4.2c-1,0.6-1.7,0-1.7-1.3l0,0c0-1.3,0.8-2.8,1.7-3.3l7.2-4.2c1-0.6,1.7,0,1.7,1.3v0
	C420.9,337.5,420.1,339,419.2,339.6z"/>
<path class="st17" d="M388.7,217.5l-55.1-31.8c-1.1-0.6-2.1-0.7-2.8-0.2c0,0,0,0,0,0l-5.3,3.1c0,0,2.4,0.9,3.8,1.4V230
	c0,3.3,2,7.1,4.4,8.5l52.7,30.4v4.7l5.4-3.1l0,0c0.9-0.6,1.5-1.8,1.5-3.5v-41C393.2,222.7,391.2,218.9,388.7,217.5z"/>
<path class="st5" d="M383.3,273.4l-55.1-31.8c-2.4-1.4-4.4-5.2-4.4-8.5v-41c0-3.3,2-4.8,4.4-3.3l55.1,31.8c2.4,1.4,4.4,5.2,4.4,8.5
	v41C387.7,273.3,385.7,274.8,383.3,273.4z"/>
<path class="st3" d="M384.6,220l-55.1-31.8c-1.3-0.8-2.5-0.6-3.3,0.1c0.6-0.1,1.3,0.1,2,0.5l55.1,31.8c2.4,1.4,4.4,5.2,4.4,8.5v41
	c0,1.5-0.4,2.6-1.1,3.2c1.4-0.1,2.4-1.5,2.4-3.8v-41C389.1,225.2,387.1,221.4,384.6,220z"/>
<g>
	<path class="st3" d="M346.7,227.5c0,2.4-1.7,3.3-3.7,2.1c-2.1-1.2-3.7-4.1-3.7-6.4c0-2.4,1.7-3.3,3.7-2.1
		C345,222.3,346.7,225.1,346.7,227.5z"/>
	<path class="st3" d="M358,234c0,2.4-1.7,3.3-3.7,2.1c-2.1-1.2-3.7-4.1-3.7-6.4s1.7-3.3,3.7-2.1C356.3,228.8,358,231.6,358,234z"/>
	<ellipse transform="matrix(0.8657 -0.5006 0.5006 0.8657 -70.2276 215.0058)" class="st3" cx="365.5" cy="238.4" rx="3" ry="5.3"/>
</g>
<g class="st18">
	<path class="st19" d="M388.7,284.2l-55.1-31.8c-1.1-0.6-2.1-0.7-2.8-0.2c0,0,0,0,0,0l-5.3,3.1c0,0,2.4,0.9,3.8,1.4v40.1
		c0,3.3,2,7.1,4.4,8.5l52.7,30.4v4.7l5.4-3.1l0,0c0.9-0.6,1.5-1.8,1.5-3.5v-41C393.2,289.4,391.2,285.6,388.7,284.2z"/>
	<path class="st19" d="M383.3,340.1l-55.1-31.8c-2.4-1.4-4.4-5.2-4.4-8.5v-41c0-3.3,2-4.8,4.4-3.3l55.1,31.8
		c2.4,1.4,4.4,5.2,4.4,8.5v41C387.7,340,385.7,341.5,383.3,340.1z"/>
	<path class="st19" d="M384.6,286.7l-55.1-31.8c-1.3-0.8-2.5-0.6-3.3,0.1c0.6-0.1,1.3,0.1,2,0.5l55.1,31.8c2.4,1.4,4.4,5.2,4.4,8.5
		v41c0,1.5-0.4,2.6-1.1,3.2c1.4-0.1,2.4-1.5,2.4-3.8v-41C389.1,291.9,387.1,288.1,384.6,286.7z"/>
</g>
<g class="st20">
	<path class="st3" d="M346.7,294.2c0,2.4-1.7,3.3-3.7,2.1c-2.1-1.2-3.7-4.1-3.7-6.4c0-2.4,1.7-3.3,3.7-2.1
		C345,288.9,346.7,291.8,346.7,294.2z"/>
	<path class="st3" d="M358,300.7c0,2.4-1.7,3.3-3.7,2.1c-2.1-1.2-3.7-4.1-3.7-6.4c0-2.4,1.7-3.3,3.7-2.1
		C356.3,295.4,358,298.3,358,300.7z"/>
	<path class="st3" d="M369.2,307.2c0,2.4-1.7,3.3-3.7,2.1c-2.1-1.2-3.7-4.1-3.7-6.4c0-2.4,1.7-3.3,3.7-2.1
		C367.6,301.9,369.2,304.8,369.2,307.2z"/>
</g>
<polygon class="st2" points="318,317.3 387.6,277.1 383.2,274.6 313.5,314.8 "/>
<polygon class="st2" points="366.4,305.6 401.7,285.3 397.3,282.7 362,303.1 "/>
<polygon class="st5" points="349.3,315.5 360.8,308.9 356.3,306.3 344.9,312.9 "/>
<polygon class="st3" points="332,325.5 343.5,318.9 339,316.3 327.6,322.9 "/>
<polygon class="st3" points="366,297.7 394.7,281.2 390.2,278.6 361.6,295.2 "/>
<polygon class="st2" points="331.1,317.9 359.7,301.4 355.3,298.8 326.6,315.3 "/>
<path class="st5" d="M352.3,282.6c1.4,0.8,3.8,0.8,5.2,0c1.4-0.8,1.4-2.2,0-3c-1.4-0.8-3.8-0.8-5.2,0
	C350.9,280.4,350.9,281.7,352.3,282.6z"/>
<path class="st3" d="M344.5,287c1.4,0.8,3.8,0.8,5.2,0c1.4-0.8,1.4-2.2,0-3c-1.4-0.8-3.8-0.8-5.2,0S343.1,286.2,344.5,287z"/>
<path class="st2" d="M336.8,291.5c1.4,0.8,3.8,0.8,5.2,0c1.4-0.8,1.4-2.2,0-3c-1.4-0.8-3.8-0.8-5.2,0
	C335.4,289.4,335.4,290.7,336.8,291.5z"/>
<path class="st5" d="M329,296c1.4,0.8,3.8,0.8,5.2,0c1.4-0.8,1.4-2.2,0-3c-1.4-0.8-3.8-0.8-5.2,0C327.6,293.8,327.6,295.2,329,296z"
	/>
<path class="st3" d="M321.3,300.5c1.4,0.8,3.8,0.8,5.2,0c1.4-0.8,1.4-2.2,0-3c-1.4-0.8-3.8-0.8-5.2,0
	C319.8,298.3,319.8,299.6,321.3,300.5z"/>
<g>
	<polygon class="st5" points="176.7,222.2 188.5,215.4 183.9,212.8 172.2,219.5 	"/>
	<polygon class="st5" points="160.4,231.6 172.1,224.8 167.6,222.2 155.8,229 	"/>
	<polygon class="st5" points="179.3,229 195.7,219.6 191.1,216.9 174.8,226.4 	"/>
	<polygon class="st5" points="167.6,235.8 174.8,231.6 170.2,229 163.1,233.1 	"/>
</g>
<ellipse class="st21" cx="302.8" cy="415.8" rx="29.7" ry="17.2"/>
<path class="st19" d="M337.6,397.2v-9.8h-1.8c-1.7-2.9-4.4-5.5-8.4-7.8c-13.6-7.8-35.6-7.8-49.2,0c-3.9,2.3-6.7,5-8.4,7.8h-1.8v9.7
	h0c0,5.2,3.4,10.3,10.2,14.3c13.6,7.8,35.6,7.8,49.2,0C334.2,407.5,337.6,402.4,337.6,397.2z"/>
<ellipse class="st5" cx="302.8" cy="387.5" rx="34.8" ry="20.1"/>
<path class="st3" d="M327.4,401.7c-13.6,7.8-35.6,7.8-49.2,0c-6.5-3.8-9.9-8.6-10.1-13.6c-0.3,5.4,3.1,10.8,10.1,14.8
	c13.6,7.8,35.6,7.8,49.2,0c7.1-4.1,10.4-9.5,10.1-14.8C337.3,393,333.9,397.9,327.4,401.7z"/>
<g>
	<path class="st3" d="M286,394.1c-0.6-0.3-0.9-0.8-0.9-1.3l0-13.1c0-1,1.4-1.8,3.1-1.8c1.7,0,3.1,0.8,3.1,1.8l0,10.9l31.5-3.9
		c1.7-0.2,3.4,0.4,3.7,1.4c0.4,1-0.7,1.9-2.4,2.1l-35.3,4.3c-0.9,0.1-1.9,0-2.6-0.4C286.1,394.2,286.1,394.2,286,394.1z"/>
</g>
<path class="st22" d="M129.2,359l32-18.3c5.9-3.3,5.1-9.2-1.6-13.1h0c-6.8-3.9-17-4.3-22.9-0.9l-32,18.3c-5.9,3.3-5.1,9.2,1.6,13.1
	l0,0C113.1,361.9,123.4,362.3,129.2,359z"/>
<g>
	<path class="st14" d="M140.3,310.9l0-6.1l7.3-36.6l-7.2-4.4l-14.5,7.9l-0.1,47.1c0,3.2,1.2,5.3,3,6l0,0l6.5,4l0.8-3l1.1-5.5
		C139,317.6,140.2,314.1,140.3,310.9z"/>
	<path class="st1" d="M140.2,328.7L140.2,328.7c-4,2.2-7.2-0.3-7.2-5.5l0.1-47.1l14.5-7.9l-0.1,47.1
		C147.5,320.5,144.2,326.5,140.2,328.7z"/>
</g>
<g>
	
		<ellipse transform="matrix(0.8614 -0.5079 0.5079 0.8614 -95.5955 113.6205)" class="st5" cx="160.4" cy="232" rx="15.4" ry="26.6"/>
	<polygon class="st5" points="174,254.9 118.9,286.2 89.2,242.1 146.7,209.3 	"/>
</g>
<path class="st2" d="M152.3,258.8c0-12.3-8.7-27.3-19.5-33.4c-4.9-2.8-9.4-3.3-12.8-1.8l0,0l-0.1,0c0,0-0.1,0-0.1,0
	c-0.2,0.1-0.3,0.1-0.4,0.2c-20.4,9.9-42.9,14.6-65.5,13.8l-6.4-0.2L99.8,326l2.8-5.4c10.3-19.8,25.4-36.7,43.9-49.3
	C150.1,269.3,152.3,265,152.3,258.8z"/>
<path class="st2" d="M105.9,306c0-23.6-16.7-52.3-37.4-64.1c-10.3-5.9-19.6-6.5-26.4-2.6l0,0l0,0c0,0,0,0-0.1,0l-6.1,3.6l2.1-0.4
	c-4.4,4.5-6.9,11.6-6.9,20.8c0,23.6,16.7,52.3,37.4,64.1c8.1,4.6,15.6,6,21.7,4.5l-1,1.4l5.6-3.3c0,0,0.1,0,0.1-0.1l0.2-0.1l0,0
	C101.8,325.9,105.9,317.6,105.9,306z"/>
<path class="st3" d="M101.5,308.5c0-23.6-16.7-52.3-37.4-64.1c-10.2-5.8-19.4-6.4-26.1-2.8l-0.9,0.5c-0.3,0.2-0.6,0.4-0.9,0.6
	l1.9-0.4c-4.4,4.5-6.9,11.6-6.9,20.8c0,23.6,16.7,52.3,37.4,64.1c8.1,4.6,15.6,6,21.7,4.5l-0.9,1.3
	C96.8,329.6,101.5,321,101.5,308.5z"/>
<ellipse transform="matrix(0.8614 -0.5079 0.5079 0.8614 -137.4807 71.8093)" class="st1" cx="62.9" cy="287.9" rx="30.4" ry="52.5"/>
<ellipse transform="matrix(0.8614 -0.5079 0.5079 0.8614 -137.4808 71.8094)" class="st4" cx="62.9" cy="287.9" rx="26.7" ry="46"/>
<path class="st3" d="M64.4,324.7c-18.1-10.4-32.8-35.5-32.8-56.2c0-10.9,4.1-18.3,10.5-21.5c-7.4,2.7-12.1,10.4-12.1,22.1
	c0,20.7,14.7,45.9,32.8,56.2c8.6,4.9,16.4,5.6,22.3,2.8C79.5,330.2,72.3,329.2,64.4,324.7z"/>
<g>
	<defs>
		
			<ellipse id="SVGID_4_" transform="matrix(0.8614 -0.5079 0.5079 0.8614 -137.4808 71.8094)" cx="62.9" cy="287.9" rx="26.7" ry="46"/>
	</defs>
	<clipPath id="SVGID_5_">
		<use xlink:href="#SVGID_4_"  style="overflow:visible;"/>
	</clipPath>
	<g class="st23">
		<polygon class="st2" points="58,280.1 105.5,243.7 122.8,273.4 67,296 		"/>
		<path class="st1" d="M69.4,291.6c0,4.1-2.9,5.8-6.6,3.7c-3.6-2.1-6.6-7.1-6.6-11.2c0-4.1,2.9-5.8,6.6-3.7
			C66.5,282.4,69.4,287.5,69.4,291.6z"/>
	</g>
</g>
<g>
	<path class="st5" d="M129.5,311.3l-0.3-0.1c-1-0.5-1.7-2-1.7-3.2l0-9.1c0-1.3,0.8-1.8,1.7-1.3l0.3,0.1c1,0.5,1.7,2,1.7,3.2l0,9.1
		C131.2,311.3,130.4,311.8,129.5,311.3z"/>
</g>
<polygon class="st21" points="131.6,418.8 111.6,407.2 131.6,395.6 151.7,407.2 "/>
<polygon class="st24" points="151.7,394.1 131.6,405.7 131.6,382.5 151.7,370.9 "/>
<polygon class="st25" points="131.6,382.5 111.6,370.9 131.6,359.4 151.7,370.9 "/>
<polygon class="st5" points="131.6,405.7 111.6,394.1 111.6,370.9 131.6,382.5 "/>
<polygon class="st21" points="433.6,412.4 416,402.2 433.6,392.1 451.2,402.2 "/>
<polygon class="st26" points="451.2,390.7 433.6,400.9 433.6,380.5 451.2,370.4 "/>
<polygon class="st5" points="433.6,380.5 416,370.4 433.6,360.2 451.2,370.4 "/>
<polygon class="st5" points="433.6,400.9 416,390.7 416,370.4 433.6,380.5 "/>
</svg>
