<?xml version="1.0" encoding="utf-8"?>
<!-- Generator: Adobe Illustrator 23.0.6, SVG Export Plug-In . SVG Version: 6.00 Build 0)  -->
<svg version="1.1" id="Layer_1" xmlns="http://www.w3.org/2000/svg" xmlns:xlink="http://www.w3.org/1999/xlink" x="0px" y="0px"
	 viewBox="0 0 500 500" style="enable-background:new 0 0 500 500;" xml:space="preserve">
<style type="text/css">
	.st0{fill:#D7ECF9;}
	.st1{fill:#2B63A5;}
	.st2{fill:url(#SVGID_1_);}
	.st3{fill:#94FFDB;}
	.st4{fill:url(#SVGID_2_);}
	.st5{fill:url(#SVGID_3_);}
	.st6{fill:url(#SVGID_4_);}
	.st7{fill:url(#SVGID_5_);}
	.st8{fill:none;stroke:#CFE0F5;stroke-miterlimit:10;}
	.st9{fill:#CFE0F5;}
	.st10{fill:#878787;}
	.st11{font-family:'ArialMT';}
	.st12{font-size:30px;}
	.st13{fill:#F2FAFC;}
	.st14{opacity:0.56;fill:#E4EDEF;enable-background:new    ;}
	.st15{fill:#F7FCFD;}
	.st16{fill:#F5FBFD;}
	.st17{fill:#1F1B2D;}
	.st18{fill:#3FA9F5;}
	.st19{fill:#F2FAFC;fill-opacity:0.23;}
	.st20{fill:none;}
	.st21{font-family:'Quicksand-Regular';}
	.st22{font-size:4.8725px;}
	.st23{fill:#433F4F;}
	.st24{opacity:0.4;fill:#3FA9F5;enable-background:new    ;}
	.st25{fill:url(#SVGID_6_);}
	.st26{fill:#FFFFFF;}
	.st27{fill:#CCCCCC;}
	.st28{fill:#EFC5D1;}
	.st29{fill:#FCFCFC;}
	.st30{fill:#FEC4AD;}
	.st31{fill:#2D6AC7;}
	.st32{fill:#133A50;}
	.st33{fill:none;stroke:#AEBFDE;stroke-width:0.25;stroke-miterlimit:10;}
	.st34{fill:#364469;}
	.st35{fill:#97A3CC;}
	.st36{fill:url(#XMLID_4_);}
	.st37{fill:#3D3230;}
</style>
<g>
	<path class="st0" d="M290.4,182c4.9-4.7,6.9-9.4,13.6-10.9c1.4-0.3,2.8-0.5,4-1.2c3.3-2,2.6-6.6,3.3-10.3
		c1.4-7.2,10.8-11.7,17.7-8.6c2.9,1.3,5.5,3.8,8.7,3.6c6.4-0.4,5.6-8.3,10-12.8c4.1-4.2,12.5-4.8,17.9-2.1c3.7,1.8,6.9,4.4,9.4,7.6
		c2.6,3.4,2.5,8.6,4.4,12.3c1.8,3.6,6.2,5.1,8.1,8.7c1.7,3.1,2.2,6.3,0.8,9.5c-2.7,6.5-10.7,11.3-18,11.3c-11.7,0-97.9,0-97.9,0
		S285,187.2,290.4,182z"/>
</g>
<path class="st1" d="M37.7,442c37.9,0,431.4,0,446,0c14.5,0-11.5,7.6-20,16.1s-8,12.1-29.2,18.5c-45.6,13.9-65.1-13.3-137.5-2.6
	c-30.8,4.6-70.2,13.2-101.2,8.6c-26.1-3.9-32.5-21.7-52.2-23.2c-30.3-2.2-45.4,0-73.1-1.4C46.7,457-0.2,442,37.7,442z"/>
<g>
	<g>
		
			<linearGradient id="SVGID_1_" gradientUnits="userSpaceOnUse" x1="446.1" y1="60" x2="446.1" y2="167.6631" gradientTransform="matrix(1 0 0 -1 0 502)">
			<stop  offset="0" style="stop-color:#05B18B"/>
			<stop  offset="1" style="stop-color:#1FCED1"/>
		</linearGradient>
		<path class="st2" d="M411.4,442c5.2-31.8,10.6-57.7,28.8-84.3c7.5-10.9,21.9-24.4,33.4-23.3c12.3,1.2,3.6,19.8-3.7,33.7
			c-9.7,18.5-16.9,38.7-20.2,59.4c1-6.2,5.3-24,18.1-31.8c3.7-2.3,13-3.7,13,4c0,13.5-13.1,29.7-16.4,42.3"/>
	</g>
	<g>
		<g>
			<path class="st3" d="M469.7,344.1c-3.1,3.9-5.6,8.2-8.1,12.5c-3.4,6-6.4,12.2-9.3,18.4c-3.3,7.1-6.3,14.3-9.1,21.5
				c-2.8,7.3-5.3,14.7-7.4,22.3c-1.9,6.6-3.4,13.3-4.2,20c-0.1,0.7-0.1,1.5-0.2,2.2c0,0.3,0.4,0.2,0.4,0c0.8-6.6,2.2-13.2,3.9-19.6
				c2-7.4,4.4-14.7,7.1-21.9c2.7-7.4,5.7-14.6,8.9-21.8c2.9-6.4,5.9-12.7,9.3-18.8c2.5-4.6,5.1-9.2,8.1-13.4
				c0.3-0.4,0.6-0.8,0.9-1.2C470.2,344.2,469.9,343.9,469.7,344.1L469.7,344.1z"/>
		</g>
	</g>
	<g>
		<g>
			<path class="st3" d="M473.5,400.7c-3.9,3.9-6.8,8.6-9.2,13.6c-2.6,5.5-4.6,11.3-6.3,17.2c-1,3.5-1.8,7-2.4,10.5
				c-0.1,0.3,0.4,0.4,0.5,0.1c2.6-11.7,5.8-23.7,12.2-34c1.6-2.5,3.4-5,5.5-7.1C473.9,400.8,473.6,400.5,473.5,400.7L473.5,400.7z"
				/>
		</g>
	</g>
</g>
<g>
	<g>
		
			<linearGradient id="SVGID_2_" gradientUnits="userSpaceOnUse" x1="179.2923" y1="85.8923" x2="108.6006" y2="156.584" gradientTransform="matrix(1 0 0 -1 0 502)">
			<stop  offset="0" style="stop-color:#05B18B"/>
			<stop  offset="1" style="stop-color:#1FCED1"/>
		</linearGradient>
		<path class="st4" d="M120.2,442c-7.5-61.9-2-88.9,5-106.1c3.3-8,8-15.9,14.7-21.6c26.7-22.6,25.9,21.3,24.7,34.6
			c-2.9,30.3-10.5,62.7-11.1,93"/>
	</g>
	<g>
		
			<linearGradient id="SVGID_3_" gradientUnits="userSpaceOnUse" x1="77.8742" y1="60" x2="77.8742" y2="192.6489" gradientTransform="matrix(1 0 0 -1 0 502)">
			<stop  offset="0" style="stop-color:#05B18B"/>
			<stop  offset="1" style="stop-color:#1FCED1"/>
		</linearGradient>
		<path class="st5" d="M96.1,442c-0.8-19.5-9.5-38.5-20.6-54.2C64.3,372,49,359.4,39,342.8c-5.4-8.9-13.9-22.9-1.3-30.2
			c13.9-8.1,34.4,0.4,45.6,9.6c12.2,10.1,20.2,24.3,26.9,38.4c11.8,24.9,14.2,53.9,14.4,81.4"/>
	</g>
	<g>
		
			<linearGradient id="SVGID_4_" gradientUnits="userSpaceOnUse" x1="65.0091" y1="56.7794" x2="65.0091" y2="135.1879" gradientTransform="matrix(0.9978 6.670000e-02 6.670000e-02 -0.9978 -18.8056 492.5568)">
			<stop  offset="0" style="stop-color:#05B18B"/>
			<stop  offset="1" style="stop-color:#1FCED1"/>
		</linearGradient>
		<path class="st6" d="M98.8,442c0.1-19.8-10-40.8-26-56.3c-10.4-10.1-22.9-19.6-37.1-23.8c-7.4-2.2-28-5.6-30.1,6.7
			C4.8,373.3,9,382.1,19,390c14,11.1,52.6,28.3,57.2,52"/>
	</g>
	<g>
		<g>
			<path class="st3" d="M15,369.4c5.7,1.6,11.2,3.7,16.5,6.2c6,2.8,11.7,6.2,17,10.1c5.7,4.1,11.1,8.7,15.8,13.9
				c5,5.4,9.4,11.3,12.9,17.8c3.7,6.7,6.4,13.9,8,21.3c0.2,1,0.4,1.9,0.6,2.9c0.1,0.3,0.5,0.2,0.4-0.1c-1.3-7.7-3.7-15.1-7.2-22
				c-3.3-6.6-7.6-12.7-12.4-18.2c-4.7-5.3-10-10.1-15.7-14.4c-5.4-4-11.2-7.6-17.2-10.6c-5.4-2.7-11-5-16.8-6.7
				c-0.7-0.2-1.3-0.4-2-0.6C14.9,369,14.8,369.4,15,369.4L15,369.4z"/>
		</g>
	</g>
	<g>
		<g>
			<path class="st3" d="M44.4,320.5c5.9,3.1,11.2,7.2,16.1,11.7c5.9,5.4,11.1,11.5,15.8,17.9c5.4,7.5,10.1,15.5,14,23.8
				c4.4,9.3,8,19.1,10.7,29.1c3,11.2,4.9,22.6,5.9,34.1c0.1,1.5,0.3,2.9,0.4,4.4c0,0.5,0.7,0.5,0.7,0c-0.5-11.7-2.3-23.3-5.1-34.7
				c-2.5-10.2-6-20.3-10.3-29.9c-3.9-8.6-8.5-16.9-13.9-24.6c-4.7-6.7-9.9-13.1-15.9-18.8c-4.9-4.7-10.3-9-16.2-12.4
				c-0.6-0.4-1.3-0.7-1.9-1.1C44.3,320,44.2,320.4,44.4,320.5L44.4,320.5z"/>
		</g>
	</g>
	<g>
		<g>
			<path class="st3" d="M149.9,314c-3.1,7.4-5.6,15.1-7.6,22.9c-2.1,8.3-3.8,16.7-5.1,25.2c-1.3,8.6-2.3,17.3-3,26
				c-0.7,8.6-1.1,17.3-1.3,25.9c-0.2,8.2-0.3,16.5,0,24.7c0,0.9,0.1,1.9,0.1,2.8c0,0.4,0.6,0.4,0.6,0c-0.1-8.1-0.1-16.2,0-24.3
				c0.2-8.6,0.5-17.2,1.1-25.7c0.6-8.8,1.5-17.6,2.7-26.3c1.2-8.5,2.7-16.9,4.7-25.2c1.9-7.9,4.2-15.7,7.1-23.3
				c0.3-0.9,0.7-1.8,1-2.6C150.5,313.8,150,313.7,149.9,314L149.9,314z"/>
		</g>
	</g>
</g>
<g>
	<g>
		
			<linearGradient id="SVGID_5_" gradientUnits="userSpaceOnUse" x1="47.3072" y1="56.2431" x2="69.8665" y2="95.3169" gradientTransform="matrix(1 0 0 -1 0 502)">
			<stop  offset="0" style="stop-color:#05B18B"/>
			<stop  offset="1" style="stop-color:#1FCED1"/>
		</linearGradient>
		<path class="st7" d="M79.9,442c-2.4-10.7-4.5-21.8-10.9-31.1c-4.2-6-12.7-14.4-20.2-14.3c-5.6,0.1-6.9,5.5-6.3,10.4
			c1.7,12.8,8.8,16.7,11.5,30.5c-1.4-5.2-9.8-23.3-17.2-16.4c-8.2,7.6,4,20.9,4,20.9"/>
	</g>
	<g>
		<g>
			<path class="st3" d="M39.9,424.6c2.1,2.5,4.2,5.1,6,7.9c2,3,3.5,6.2,4.8,9.6c0.1,0.3,0.5,0.2,0.4-0.1c-0.8-3.5-2.7-6.8-4.7-9.7
				c-1.9-2.8-4-5.4-6.2-7.9C40,424.2,39.7,424.5,39.9,424.6L39.9,424.6z"/>
		</g>
	</g>
	<g>
		<g>
			<path class="st3" d="M51.6,404.7c4.4,4.5,7.6,10.1,10.4,15.6c2.6,5.2,4.8,10.7,6.8,16.2c0.7,1.9,1.3,3.8,2,5.7
				c0.1,0.3,0.5,0.2,0.4-0.1c-1.3-4.2-2.8-8.3-4.4-12.4c-2.4-5.9-5.2-11.7-8.6-17.1c-1.8-2.9-3.9-5.7-6.4-8.1
				C51.7,404.2,51.4,404.5,51.6,404.7L51.6,404.7z"/>
		</g>
	</g>
</g>
<g>
	<path class="st0" d="M150.4,229.6c-5.1-4.9-7.3-10-14.3-11.6c-1.4-0.3-3-0.5-4.2-1.3c-3.4-2.1-2.7-7-3.5-10.9
		c-1.5-7.6-11.5-12.4-18.8-9.1c-3.1,1.4-5.8,4-9.2,3.8c-6.8-0.5-5.9-8.8-10.6-13.5c-4.4-4.5-13.2-5.1-18.9-2.2
		c-3.9,1.9-7.3,4.7-10,8.1c-2.7,3.6-2.6,9.1-4.7,13c-1.9,3.8-6.6,5.4-8.6,9.2c-1.7,3.2-2.3,6.7-0.9,10.1c2.9,6.9,11.4,11.9,19,11.9
		c12.4,0,103.7,0,103.7,0S156.1,235.1,150.4,229.6z"/>
</g>
<g>
	<path class="st8" d="M334.7,153.7l-6.2,2.6c-0.7,0.3-0.8,1.2-0.3,1.7l4.4,3.8c0.6,0.5,1.4,0.2,1.6-0.5l1.8-6.4
		C336.3,154,335.5,153.3,334.7,153.7z"/>
	<path class="st8" d="M68.5,234.5l1.8,6.5c0.2,0.7,1.1,1,1.6,0.5l4.3-3.9c0.5-0.5,0.4-1.4-0.3-1.7l-6.1-2.5
		C69.1,233,68.3,233.7,68.5,234.5z"/>
	<path class="st8" d="M462.4,312.1l4.8-4.7c0.5-0.5,0.3-1.4-0.4-1.7l-5.6-1.9c-0.7-0.2-1.4,0.3-1.3,1.1l0.8,6.6
		C460.8,312.3,461.8,312.7,462.4,312.1z"/>
	<path class="st8" d="M440.1,238.7l1.7,6.5c0.2,0.7,1.1,1,1.6,0.5l4.4-3.9c0.5-0.5,0.4-1.4-0.3-1.7l-6.1-2.6
		C440.7,237.2,439.9,237.9,440.1,238.7z"/>
	
		<rect x="417.4" y="226.2" transform="matrix(0.7945 -0.6073 0.6073 0.7945 -52.3435 301.5008)" class="st9" width="3.8" height="3.8"/>
	
		<rect x="388.3" y="199.2" transform="matrix(0.999 -4.449438e-02 4.449438e-02 0.999 -8.5613 17.5606)" class="st9" width="3.8" height="3.8"/>
	
		<rect x="142.6" y="249.4" transform="matrix(0.9317 -0.3632 0.3632 0.9317 -81.4028 69.6501)" class="st9" width="3.8" height="3.8"/>
	
		<rect x="179.3" y="155.9" transform="matrix(0.3579 -0.9338 0.9338 0.3579 -30.9674 270.5387)" class="st9" width="3.8" height="3.8"/>
	
		<rect x="29.1" y="346.9" transform="matrix(0.999 -4.449438e-02 4.449438e-02 0.999 -15.4889 1.7247)" class="st9" width="3.8" height="3.8"/>
</g>
<text transform="matrix(1 0 0 1 138.2227 121.2734)" class="st10 st11 st12">No valid tender </text>
<polygon class="st13" points="272.6,439.8 203.3,439.8 213.5,406.2 262.4,406.2 "/>
<path class="st14" d="M267,421.3l-4.5-15.1h-49l-8.1,26.9C225.9,429.2,246.4,425.1,267,421.3z"/>
<path class="st15" d="M277.7,442.4h-79.6v-2.8c0-1.3,1.1-2.4,2.4-2.4h74.8c1.3,0,2.4,1.1,2.4,2.4L277.7,442.4L277.7,442.4z"/>
<path class="st16" d="M369.6,412.9H106.3c-4.2,0-7.7-3.4-7.7-7.7V221.4c0-4.2,3.4-7.7,7.7-7.7h263.3c4.2,0,7.7,3.4,7.7,7.7v183.8
	C377.3,409.4,373.9,412.9,369.6,412.9z"/>
<path class="st17" d="M98.6,389.4V209.7c0-5.3,4.3-9.7,9.7-9.7h259.3c5.3,0,9.7,4.3,9.7,9.7v179.7"/>
<path class="st18" d="M360.5,368.5H115.4c-1.1,0-2-0.9-2-2V215.3c0-1.1,0.9-2,2-2h245.1c1.1,0,2,0.9,2,2v151.2
	C362.5,367.6,361.6,368.5,360.5,368.5z"/>
<g>
	<g>
		<g>
			<path class="st19" d="M232.7,293.9h-95.5c-1.9,0-3.5-1.6-3.5-3.5v-57c0-1.9,1.6-3.5,3.5-3.5h95.5c1.9,0,3.5,1.6,3.5,3.5v57
				C236.2,292.4,234.6,293.9,232.7,293.9z"/>
			<path class="st13" d="M231.9,294.5h-94c-2.6,0-4.8-2.1-4.8-4.8v-55.5c0-2.6,2.1-4.8,4.8-4.8h94c2.6,0,4.8,2.1,4.8,4.8v55.5
				C236.7,292.3,234.6,294.5,231.9,294.5z M137.9,230.5c-2,0-3.7,1.7-3.7,3.7v55.5c0,2,1.7,3.7,3.7,3.7h94c2,0,3.7-1.7,3.7-3.7
				v-55.5c0-2-1.7-3.7-3.7-3.7L137.9,230.5L137.9,230.5z"/>
		</g>
		<g>
			<line class="st20" x1="133.7" y1="236.9" x2="236.2" y2="236.9"/>
			<rect x="133.7" y="236.3" class="st13" width="102.5" height="1.2"/>
		</g>
		<circle class="st13" cx="139.8" cy="233.5" r="1.2"/>
		<path class="st13" d="M147.2,233.5c0,0.7-0.5,1.2-1.2,1.2s-1.2-0.5-1.2-1.2s0.5-1.2,1.2-1.2S147.2,232.9,147.2,233.5z"/>
		<circle class="st13" cx="152.2" cy="233.5" r="1.2"/>
		<g>
			<rect x="143.4" y="248.3" class="st20" width="82" height="38.8"/>
			<text transform="matrix(1 0 0 1 143.4312 251.8955)" class="st13 st21 st22">No Valid Tender</text>
			<text transform="matrix(1 0 0 1 143.4312 260.3955)" class="st13 st21 st22">No Valid Tender</text>
			<text transform="matrix(1 0 0 1 143.4312 268.9955)" class="st13 st21 st22">No Valid Tender</text>
			<text transform="matrix(1 0 0 1 143.4312 277.4955)" class="st13 st21 st22">No Valid Tender</text>
		</g>
	</g>
	<g>
		<g>
			<path class="st19" d="M344.7,340.9h-95.5c-1.9,0-3.5-1.6-3.5-3.5v-60.7c0-1.9,1.6-3.5,3.5-3.5h95.5c1.9,0,3.5,1.6,3.5,3.5v60.7
				C348.2,339.3,346.6,340.9,344.7,340.9z"/>
			<path class="st13" d="M343.9,341.4h-94c-2.6,0-4.8-2.2-4.8-4.8v-59.2c0-2.6,2.2-4.8,4.8-4.8h94c2.6,0,4.8,2.2,4.8,4.8v59.2
				C348.7,339.3,346.6,341.4,343.9,341.4z M249.9,273.8c-2,0-3.7,1.7-3.7,3.7v59.2c0,2,1.7,3.7,3.7,3.7h94c2,0,3.7-1.7,3.7-3.7
				v-59.2c0-2-1.7-3.7-3.7-3.7H249.9z"/>
		</g>
		<g>
			<line class="st20" x1="245.7" y1="280.1" x2="348.2" y2="280.1"/>
			<rect x="245.7" y="279.5" class="st13" width="102.5" height="1.2"/>
		</g>
		<circle class="st13" cx="251.8" cy="276.7" r="1.2"/>
		<circle class="st13" cx="258" cy="276.7" r="1.2"/>
		<circle class="st13" cx="264.2" cy="276.7" r="1.2"/>
		<g>
			<g>
				<rect x="258.6" y="292.2" class="st19" width="19.9" height="16.4"/>
				<path class="st13" d="M279,309.1h-21v-17.5h21V309.1z M259.1,308h18.8v-15.3h-18.8V308z"/>
			</g>
			<polygon class="st13" points="272.8,303.7 266.6,298.2 258.8,302.4 258.3,301.4 266.8,296.9 272.9,302.3 278.1,298.7 
				278.8,299.6 			"/>
			<path class="st13" d="M273.8,298.7c-1,0-1.8-0.8-1.8-1.8s0.8-1.8,1.8-1.8s1.8,0.8,1.8,1.8C275.5,297.9,274.7,298.7,273.8,298.7z
				 M273.8,296.3c-0.4,0-0.7,0.3-0.7,0.7c0,0.4,0.3,0.7,0.7,0.7s0.7-0.3,0.7-0.7C274.4,296.6,274.1,296.3,273.8,296.3z"/>
		</g>
		<g>
			<g>
				<rect x="288.2" y="292.2" class="st19" width="19.9" height="16.4"/>
				<path class="st13" d="M308.6,309.1h-21v-17.5h21V309.1z M288.8,308h18.8v-15.3h-18.8V308z"/>
			</g>
			<polygon class="st13" points="302.5,303.7 296.3,298.2 288.5,302.4 287.9,301.4 296.4,296.9 302.5,302.3 307.8,298.7 
				308.4,299.6 			"/>
			<path class="st13" d="M303.4,298.7c-1,0-1.8-0.8-1.8-1.8s0.8-1.8,1.8-1.8s1.8,0.8,1.8,1.8C305.2,297.9,304.4,298.7,303.4,298.7z
				 M303.4,296.3c-0.4,0-0.7,0.3-0.7,0.7c0,0.4,0.3,0.7,0.7,0.7c0.4,0,0.7-0.3,0.7-0.7C304,296.6,303.8,296.3,303.4,296.3z"/>
		</g>
		<g>
			<g>
				<rect x="317.2" y="292.2" class="st19" width="19.9" height="16.4"/>
				<path class="st13" d="M337.6,309.1h-21v-17.5h21V309.1z M317.8,308h18.8v-15.3h-18.8V308z"/>
			</g>
			<polygon class="st13" points="331.4,303.7 325.3,298.2 317.5,302.4 316.9,301.4 325.4,296.9 331.5,302.3 336.8,298.7 
				337.4,299.6 			"/>
			<path class="st13" d="M332.4,298.7c-1,0-1.8-0.8-1.8-1.8s0.8-1.8,1.8-1.8s1.8,0.8,1.8,1.8C334.2,297.9,333.4,298.7,332.4,298.7z
				 M332.4,296.3c-0.4,0-0.7,0.3-0.7,0.7c0,0.4,0.3,0.7,0.7,0.7c0.4,0,0.7-0.3,0.7-0.7C333,296.6,332.7,296.3,332.4,296.3z"/>
		</g>
	</g>
	<polygon class="st13" points="184.4,309 185,315.4 189.3,313.1 	"/>
	<path class="st13" d="M238.7,358.1c0,0.9-0.7,1.6-1.6,1.6c-0.9,0-1.6-0.7-1.6-1.6s0.7-1.6,1.6-1.6S238.7,357.2,238.7,358.1z"/>
	<path class="st13" d="M225.4,358.1c0,0.9-0.7,1.6-1.6,1.6c-0.9,0-1.6-0.7-1.6-1.6s0.7-1.6,1.6-1.6S225.4,357.2,225.4,358.1z"/>
	<path class="st13" d="M251.8,358.1c0,0.9-0.7,1.6-1.6,1.6c-0.9,0-1.6-0.7-1.6-1.6s0.7-1.6,1.6-1.6S251.8,357.2,251.8,358.1z"/>
</g>
<path class="st23" d="M239.6,206c0,0.9-0.8,1.7-1.7,1.7s-1.7-0.8-1.7-1.7s0.8-1.7,1.7-1.7C238.9,204.4,239.6,205.1,239.6,206z"/>
<path class="st24" d="M227.1,200h-29.4c0,0-82.4,81.9-99,97.9v26.9L227.1,200z"/>
<path class="st24" d="M377.3,221.6v-11.9c0-5.3-4.3-9.7-9.7-9.7h-8.5c-14.8,11.9-227.2,189.4-227.2,189.4h42.9L377.3,221.6z"/>
<g>
	<g>
		
			<linearGradient id="SVGID_6_" gradientUnits="userSpaceOnUse" x1="-75.4552" y1="39.8619" x2="-46.8427" y2="89.4202" gradientTransform="matrix(-1 0 -0.2126 -1 339.4836 502)">
			<stop  offset="0" style="stop-color:#05B18B"/>
			<stop  offset="1" style="stop-color:#1FCED1"/>
		</linearGradient>
		<path class="st25" d="M364.5,458.2c-2.7-13.9,0.1-28.2,5.7-40.2c3.6-7.8,12-18.7,21.4-18.5c7,0.1,9.9,7.1,10.3,13.4
			c1.1,16.5-6.7,21.6-6.7,39.4c0.4-6.8,6.9-28.7,17.1-21.2c10,7.3,0.3,27,0.3,27"/>
	</g>
	<g>
		<g>
			<path class="st3" d="M409.5,435.4c-4.2,6.8-8,14.6-8.4,22.8c0,0.2,0.4,0.3,0.4,0.1c1.1-8.2,4.2-15.5,8.3-22.6
				C409.9,435.4,409.6,435.2,409.5,435.4L409.5,435.4z"/>
		</g>
	</g>
	<g>
		<g>
			<path class="st3" d="M390.9,409.6c-5.5,7.7-8,17.4-10,26.5c-1.6,7.3-2.7,14.7-3.3,22.1c0,0.2,0.4,0.3,0.4,0.1
				c1-7.2,1.9-14.5,3.4-21.6c1.9-9.2,4.4-19,9.8-26.8C391.3,409.5,391,409.4,390.9,409.6L390.9,409.6z"/>
		</g>
	</g>
</g>
<g>
	<rect x="241" y="224" class="st26" width="111" height="139.4"/>
	<rect x="254.7" y="287.1" class="st27" width="87.9" height="5.3"/>
	<rect x="254.7" y="297.6" class="st27" width="87.9" height="5.3"/>
	<rect x="254.1" y="308.2" class="st27" width="41.1" height="5.3"/>
	<rect x="254.1" y="318.7" class="st27" width="41.1" height="5.3"/>
	<rect x="253.6" y="329.2" class="st27" width="41.1" height="5.3"/>
	<rect x="253.6" y="339.7" class="st27" width="41.1" height="5.3"/>
	<rect x="301.5" y="308.2" class="st27" width="41.1" height="5.3"/>
	<rect x="301.5" y="318.7" class="st27" width="41.1" height="5.3"/>
	<rect x="301" y="329.2" class="st27" width="41.1" height="5.3"/>
	<rect x="301" y="339.7" class="st27" width="41.1" height="5.3"/>
	<rect x="262" y="242.4" class="st28" width="71.5" height="34.2"/>
	<polygon class="st29" points="287.6,276.6 266.8,258.2 262,262.4 262,276.6 	"/>
	<polygon class="st29" points="278.1,276.6 295.1,261.4 312.3,276.6 	"/>
	<polygon class="st29" points="290.2,276.6 311.9,257.1 333.9,276.6 	"/>
</g>
<g>
	<path class="st30" d="M374.5,221.8c0,0-9.3,25.6-12.7,25.5c-2.5-0.1-19.6-23.4-22.3-27.4c-2.7-4-8.1-13.5-8.1-13.5l6.9-2.2
		c0,0,11.9,14.4,15,17s4.4,3.5,4.4,3.5l3.6-9.7L374.5,221.8z"/>
	<path class="st31" d="M369.3,195.2c-3.8,1-5.1,4.3-6.7,11.2s-4,13.4-4,13.4l12.3,5.8c0,0,2.2-12.3,3-20
		C374.9,197.8,372.6,194.3,369.3,195.2z"/>
	<path class="st32" d="M420,458.9v9.1h-17.4c0,0,0.7-3.3,8.9-4.8l1.2-4.3L420,458.9L420,458.9z"/>
	<path class="st32" d="M383.2,458.9v9.1h-17.4c0,0,0.7-3.3,8.9-4.8l1.2-4.3L383.2,458.9L383.2,458.9z"/>
	<path class="st32" d="M416.2,276c0,0,3.2,28.8,3.3,59.8c0.1,31,2,123.1,2,123.1H409c0,0-12.9-89-17.6-108.9s-16.9-73.6-16.9-73.6
		L416.2,276z"/>
	<path class="st30" d="M397,171.3c0,0,0.8,6.3,1.5,9.5s1.2,4.9,1.7,5.9c1.1,2.2,7.7,8.8,7.7,8.8s-20.7,11-26.8,11
		c-6.1,0-4-12.2-4-12.2s6.7-5.3,7.6-7.9c1-2.7,1.5-10.3,1.5-10.3L397,171.3z"/>
	<path class="st32" d="M389,307.6c0,0-2.3,47.2-2.8,56.5s0,94.7,0,94.7s-11.7,0.3-11.7,0s-11.1-90-12.5-112.9s-0.6-50.1-2.5-53.2
		c-1.9-3.2,5.1-16.5,5.1-16.5l16.6,4.4L389,307.6z"/>
	<path class="st31" d="M403.7,189.3l21.3,9.2c0,0-4.2,17.3-4.5,24.1c-0.2,6.9-2.7,61.1-2.7,61.1s-6.5,10.1-38.1,6.1
		c-12.1-1.6-18.1-7.5-18.1-7.5s3.4-59.7,4.3-66.5c0.9-6.9,3.3-20.6,3.3-20.6l10.3-3.2l4.2,6.3L403.7,189.3z"/>
	<path class="st33" d="M378.3,279.2"/>
	<path class="st33" d="M383.8,198.2"/>
	<polygon class="st34" points="402.7,185.6 383.8,198.2 389,204.2 403.7,189.3 	"/>
	<polygon class="st34" points="383.8,198.2 378.6,202.4 379.6,192 381.5,189.3 	"/>
	<g>
		<path id="XMLID_2_" class="st35" d="M363.8,235.4l-18.2,5.3c-1.9,0.5-4-0.4-4.9-2.1L323,200.7c-0.8-1.7,0-3.5,1.9-4.1l18.1-5.3
			c3.3-0.3,4.9,0.3,5.8,2.1l17.8,37.6C367.3,232.7,367,233.9,363.8,235.4z"/>
		
			<linearGradient id="XMLID_4_" gradientUnits="userSpaceOnUse" x1="473.4177" y1="258.0243" x2="520.939" y2="258.5246" gradientTransform="matrix(0.9233 -0.3199 -0.4506 -0.927 -8.4118 618.0019)">
			<stop  offset="0" style="stop-color:#EEF4FB"/>
			<stop  offset="0.3115" style="stop-color:#E3EDF8"/>
			<stop  offset="1" style="stop-color:#CFE1F3"/>
		</linearGradient>
		<path id="XMLID_1_" class="st36" d="M362.8,235.8l-18.3,5.3c-1.9,0.5-4.1-0.4-4.9-2.1l-17.8-38.1c-0.8-1.7,0-3.5,1.9-4.1l18.1-5.4
			c2-0.6,4.2,0.4,5.1,2.2l17.9,38C365.7,233.4,364.7,235.3,362.8,235.8z"/>
	</g>
	<path class="st30" d="M415.6,225.6c0,0-16.9,28.1-19.2,29.1c-2.3,1-31.5-18.1-37-21.6s-10.1-7-10.8-7.6c-0.7-0.6-2.3-6.3-2.3-6.3
		c0.1,0,0.8-1,0.8-1l0.7,0.4l-0.4-2.3l0.7-1.3l0.7,0.2l0.2-2.3l1-1.7c0,0,2.9,3.3,4.7,5.2s3.9,3.4,3.9,3.4s-0.2-3.1,0-3.7
		s-0.3-2.7-0.3-2.7l2.8,1.7c0,0,2.5,7.9,3,8.5s1.8,5.5,8.6,8c12.1,4.6,18.9,6.4,18.9,6.4c-0.5-0.1,11-21,11-21L415.6,225.6z"/>
	<path class="st31" d="M425.8,209.1c-1.6,7.7-12.8,24.4-12.8,24.4l-13.7-10.3c0,0,5.4-10.8,8.4-16.4c3.3-6.2,6.4-13.8,12.3-11.6
		C425.6,197.3,427.1,203,425.8,209.1z"/>
	<path class="st30" d="M372.9,155.1c-1.5,1.3-3.9,4-3.7,5.6c0.2,1.6,0.5,6.2,1.3,8.8s2.3,9.4,3.4,12.3c1.1,3,2.4,7.1,3.3,7.4
		c0.9,0.4,8.9-1,10.5-2.1c1.5-1.1,9.5-9.9,7.8-16.4c0,0,2.1,0.3,3.4-6.2c0.3-1.7-6.5-6.4-7.5-8.1c-2.6-4-12-0.9-14.7-0.7
		C373.9,155.9,372.9,155.1,372.9,155.1z"/>
	<path class="st37" d="M369.2,160.7c0,0,0.5-2.3,2.6-1.8s6.3,0.2,9.3-0.6c3.1-0.9,5.8-2.7,5.8-2.7s0.8,4.1,1.9,5s1.7,2.8,2.1,4.1
		s2,1.7,2,1.7s0.8-3.6,2.4-3.9c3.2-0.5,2.8,3.8,1.5,5.3c-1.3,1.4-2.7,2.5-2.7,2.5s0.4,1.9,1,3.2c0.6,1.4,2.6,3.2,2.6,3.2
		s0.8-8.6,2.9-12.6c2-4,1.9-11.3-4-12.8c0,0-1.3-6.6-9.1-6.3c-7.8,0.3-13.9,3.4-17.4,3.1c-3.4-0.3-4.4-1-4.4-1s-1.7,5.6,0.5,8.6
		C368.5,158.6,369.2,160.7,369.2,160.7z"/>
</g>
</svg>
