<?xml version="1.0" encoding="utf-8"?>
<!-- Generator: Adobe Illustrator 23.0.3, SVG Export Plug-In . SVG Version: 6.00 Build 0)  -->
<svg version="1.1" id="Capa_1" xmlns="http://www.w3.org/2000/svg" xmlns:xlink="http://www.w3.org/1999/xlink" x="0px" y="0px"
	 viewBox="0 0 451 451" style="enable-background:new 0 0 451 451;" xml:space="preserve">
<style type="text/css">
	.st0{fill:#FFFFFF;}
</style>
<path class="st0" d="M403.5,438.9c2,2,3.9,3.7,5.5,5.3l0,0c0,0,16.4,8.6,30.3-5.4c14-14,7.9-27.5,7.9-27.5v0
	c-18.9-18.6-102.8-101.3-100.1-105c23.6-31.9,37.5-71.4,37.5-114C384.6,86.2,298.4,0,192.4,0C86.3,0,0.1,86.3,0.1,192.3
	s86.3,192.3,192.3,192.3c41.1,0,79.1-12.9,110.4-34.9c4.3-3,72,61.6,100.6,89.1L403.5,438.9L403.5,438.9z M194.5,332
	C117.5,332,55,269.5,55,192.5S117.5,53,194.5,53S334,115.5,334,192.5S271.5,332,194.5,332z"/>
<path class="st0" d="M403.4,438.8L403.4,438.8C403.4,438.8,403.5,438.9,403.4,438.8L403.4,438.8z"/>
</svg>
