<?xml version="1.0" encoding="utf-8"?>
<!-- Generator: Adobe Illustrator 23.1.0, SVG Export Plug-In . SVG Version: 6.00 Build 0)  -->
<svg version="1.1" id="Layer_1" xmlns="http://www.w3.org/2000/svg" xmlns:xlink="http://www.w3.org/1999/xlink" x="0px" y="0px"
	 viewBox="0 0 500 453" style="enable-background:new 0 0 500 453;" xml:space="preserve">
<style type="text/css">
	.st0{fill:#D7ECF9;}
	.st1{fill:#FFFFFF;}
	.st2{fill:#CCCCCC;}
	.st3{fill:#2D6AC7;}
	.st4{fill:#FCFCFC;}
	.st5{fill:#2B63A5;}
	.st6{opacity:0.35;fill:#A1DBFF;enable-background:new    ;}
	.st7{fill:url(#SVGID_1_);}
	.st8{fill:#94FFDB;}
	.st9{fill:url(#SVGID_2_);}
	.st10{fill:url(#SVGID_3_);}
	.st11{fill:url(#SVGID_4_);}
	.st12{fill:url(#SVGID_5_);}
	.st13{fill:url(#SVGID_6_);}
	.st14{fill:#FC8975;}
	.st15{fill:#352E72;}
	.st16{fill:url(#SVGID_7_);}
	.st17{fill:#75A1E9;}
	.st18{fill:url(#SVGID_8_);}
	.st19{fill:none;stroke:#4A578E;stroke-width:0.5;stroke-miterlimit:10;}
	.st20{fill:url(#SVGID_9_);}
	.st21{fill:url(#SVGID_10_);}
	.st22{fill:#A2C0ED;}
	.st23{fill:url(#SVGID_11_);}
	.st24{fill:#ABD1FF;}
	.st25{fill:url(#SVGID_12_);}
	.st26{fill:none;stroke:#CFE0F5;stroke-miterlimit:10;}
	.st27{fill:#CFE0F5;}
	.st28{fill:#081466;}
	.st29{fill:#352E73;}
	.st30{fill:url(#SVGID_13_);}
	.st31{opacity:0.35;fill:url(#SVGID_14_);enable-background:new    ;}
	.st32{fill:url(#SVGID_15_);}
	.st33{opacity:0.35;fill:url(#SVGID_16_);enable-background:new    ;}
	.st34{fill:#CC6658;}
	.st35{fill:url(#SVGID_17_);}
	.st36{fill:url(#SVGID_18_);}
	.st37{opacity:0.75;fill:url(#SVGID_19_);enable-background:new    ;}
	.st38{fill:none;stroke:#212121;stroke-width:5;stroke-linecap:round;stroke-miterlimit:10;}
	.st39{fill:url(#SVGID_20_);}
	.st40{fill:#878787;}
	.st41{font-family:'ArialMT';}
	.st42{font-size:30px;}
</style>
<g>
	<path class="st0" d="M335,117.4c3.1-3,4.4-6.1,8.8-7.1c0.9-0.2,1.8-0.3,2.6-0.8c2.1-1.3,1.7-4.3,2.2-6.7c0.9-4.7,7-7.6,11.5-5.6
		c1.9,0.9,3.6,2.4,5.6,2.3c4.1-0.3,3.6-5.4,6.5-8.3c2.7-2.7,8.1-3.1,11.6-1.4c2.4,1.2,4.5,2.9,6.1,4.9c1.7,2.2,1.6,5.5,2.8,7.9
		c1.2,2.3,4,3.3,5.3,5.6c1.1,2,1.4,4.1,0.5,6.2c-1.8,4.2-7,7.3-11.6,7.3c-7.6,0-63.5,0-63.5,0S331.5,120.7,335,117.4z"/>
</g>
<rect x="143" y="108" class="st1" width="211" height="265"/>
<rect x="169" y="228" class="st2" width="167" height="10"/>
<rect x="169" y="248" class="st2" width="167" height="10"/>
<rect x="167.9" y="268" class="st2" width="78.1" height="10"/>
<rect x="167.9" y="288" class="st2" width="78.1" height="10"/>
<rect x="167" y="308" class="st2" width="78.1" height="10"/>
<rect x="167" y="328" class="st2" width="78.1" height="10"/>
<rect x="257.9" y="268" class="st2" width="78.1" height="10"/>
<rect x="257.9" y="288" class="st2" width="78.1" height="10"/>
<rect x="257" y="308" class="st2" width="78.1" height="10"/>
<rect x="257" y="328" class="st2" width="78.1" height="10"/>
<rect x="183" y="143" class="st3" width="136" height="65"/>
<polygon class="st4" points="231.6,208 192,173 183,181.1 183,208 "/>
<polygon class="st4" points="213.5,208 245.8,179 278.6,208 "/>
<polygon class="st4" points="236.5,208 277.7,171 319.6,208 "/>
<path class="st5" d="M37.7,395c37.9,0,431.4,0,446,0c14.5,0-11.5,7.6-20,16.1s-8,12.1-29.2,18.5c-45.6,13.9-65.1-13.3-137.5-2.6
	c-30.8,4.6-70.2,13.2-101.2,8.6c-26.1-3.9-32.5-21.7-52.2-23.2c-30.3-2.2-45.4,0-73.1-1.4C46.7,410-0.2,395,37.7,395z"/>
<circle class="st6" cx="242.5" cy="181.5" r="55.5"/>
<path class="st6" d="M296,182.5c0-30.7-24.8-55.5-55.5-55.5c-0.3,0-0.5,0-0.8,0c1.5,0.4,47.5,14.6,1.3,111
	C271.4,237.7,296,213,296,182.5z"/>
<g>
	<g>
		
			<linearGradient id="SVGID_1_" gradientUnits="userSpaceOnUse" x1="446.1" y1="-231" x2="446.1" y2="-123.3369" gradientTransform="matrix(1 0 0 -1 0 164)">
			<stop  offset="0" style="stop-color:#05B18B"/>
			<stop  offset="1" style="stop-color:#1FCED1"/>
		</linearGradient>
		<path class="st7" d="M411.4,395c5.2-31.8,10.6-57.7,28.8-84.3c7.5-10.9,21.9-24.4,33.4-23.3c12.3,1.2,3.6,19.8-3.7,33.7
			c-9.7,18.5-16.9,38.7-20.2,59.4c1-6.2,5.3-24,18.1-31.8c3.7-2.3,13-3.7,13,4c0,13.5-13.1,29.7-16.4,42.3"/>
	</g>
	<g>
		<g>
			<path class="st8" d="M469.7,297.1c-7.3,9.3-12.5,20.4-17.4,31.1c-6.5,14.1-12.2,28.6-16.4,43.6c-2.1,7.3-3.8,14.8-4.4,22.3
				c0,0.3,0.4,0.2,0.4,0c1.7-14.2,6-28,11-41.3c5.1-13.9,11.1-27.5,18.1-40.5c2.7-5.1,5.6-10.2,9.2-14.8
				C470.2,297.2,469.9,296.9,469.7,297.1L469.7,297.1z"/>
		</g>
	</g>
	<g>
		<g>
			<path class="st8" d="M473.5,353.7c-10.6,10.6-15.2,27-17.9,41.3c-0.1,0.3,0.4,0.4,0.5,0.1c3.2-14.3,7.2-30.2,17.7-41.1
				C473.9,353.8,473.6,353.5,473.5,353.7L473.5,353.7z"/>
		</g>
	</g>
</g>
<g>
	<g>
		
			<linearGradient id="SVGID_2_" gradientUnits="userSpaceOnUse" x1="179.2923" y1="-205.1077" x2="108.6006" y2="-134.416" gradientTransform="matrix(1 0 0 -1 0 164)">
			<stop  offset="0" style="stop-color:#05B18B"/>
			<stop  offset="1" style="stop-color:#1FCED1"/>
		</linearGradient>
		<path class="st9" d="M120.2,395c-7.5-61.9-2-88.9,5-106.1c3.3-8,8-15.9,14.7-21.6c26.7-22.6,25.9,21.3,24.7,34.6
			c-2.9,30.3-10.5,62.7-11.1,93"/>
	</g>
	<g>
		
			<linearGradient id="SVGID_3_" gradientUnits="userSpaceOnUse" x1="77.8742" y1="-231" x2="77.8742" y2="-98.3511" gradientTransform="matrix(1 0 0 -1 0 164)">
			<stop  offset="0" style="stop-color:#05B18B"/>
			<stop  offset="1" style="stop-color:#1FCED1"/>
		</linearGradient>
		<path class="st10" d="M96.1,395c-0.8-19.5-9.5-38.5-20.6-54.2C64.3,325,49,312.4,39,295.8c-5.4-8.9-13.9-22.9-1.3-30.2
			c13.9-8.1,34.4,0.4,45.6,9.6c12.2,10.1,20.2,24.3,26.9,38.4c11.8,24.9,14.2,53.9,14.4,81.4"/>
	</g>
	<g>
		
			<linearGradient id="SVGID_4_" gradientUnits="userSpaceOnUse" x1="85.7039" y1="-226.1764" x2="85.7039" y2="-147.7679" gradientTransform="matrix(0.9978 6.670000e-02 6.670000e-02 -0.9978 -20.5817 161.8432)">
			<stop  offset="0" style="stop-color:#05B18B"/>
			<stop  offset="1" style="stop-color:#1FCED1"/>
		</linearGradient>
		<path class="st11" d="M98.8,395c0.1-19.8-10-40.8-26-56.3c-10.4-10.1-22.9-19.6-37.1-23.8c-7.4-2.2-28-5.6-30.1,6.7
			C4.8,326.3,9,335.1,19,343c14,11.1,52.6,28.3,57.2,52"/>
	</g>
	<g>
		<g>
			<path class="st8" d="M15,322.4c25.3,7,49.3,24.4,62.1,47.5c4.2,7.7,7.2,16,8.8,24.6c0.1,0.3,0.5,0.2,0.4-0.1
				c-4.9-29.1-26.7-52.3-52.5-65.2c-6-3-12.3-5.5-18.8-7.3C14.9,322,14.8,322.4,15,322.4L15,322.4z"/>
		</g>
	</g>
	<g>
		<g>
			<path class="st8" d="M44.4,273.5c13,7,23.6,18.2,32.1,30c11.3,15.7,19.4,33.7,24.4,52.3c3.4,12.7,5.4,25.6,6.3,38.7
				c0,0.5,0.7,0.5,0.7,0c-1.9-39-16.5-80.3-45.1-107.8c-5.5-5.3-11.6-10-18.3-13.6C44.3,273,44.2,273.4,44.4,273.5L44.4,273.5z"/>
		</g>
	</g>
	<g>
		<g>
			<path class="st8" d="M149.9,267c-6.4,15.3-10.2,31.7-12.7,48.1c-2.6,17-3.9,34.2-4.3,51.5c-0.2,9.3-0.3,18.7,0.1,28
				c0,0.4,0.6,0.4,0.6,0c-0.2-33.9,0.7-68.2,8.6-101.3c2.1-8.9,4.7-17.6,8.1-26.1C150.5,266.8,150,266.7,149.9,267L149.9,267z"/>
		</g>
	</g>
</g>
<g>
	<g>
		
			<linearGradient id="SVGID_5_" gradientUnits="userSpaceOnUse" x1="47.3072" y1="-234.7569" x2="69.8665" y2="-195.6831" gradientTransform="matrix(1 0 0 -1 0 164)">
			<stop  offset="0" style="stop-color:#05B18B"/>
			<stop  offset="1" style="stop-color:#1FCED1"/>
		</linearGradient>
		<path class="st12" d="M79.9,395c-2.4-10.7-4.5-21.8-10.9-31.1c-4.2-6-12.7-14.4-20.2-14.3c-5.6,0.1-6.9,5.5-6.3,10.4
			c1.7,12.8,8.8,16.7,11.5,30.5c-1.4-5.2-9.8-23.3-17.2-16.4c-8.2,7.6,4,20.9,4,20.9"/>
	</g>
	<g>
		<g>
			<path class="st8" d="M39.9,377.6c4.5,5.3,8.3,10.9,10.8,17.5c0.1,0.3,0.5,0.2,0.4-0.1c-1.7-6.7-6.4-12.5-10.9-17.6
				C40,377.2,39.7,377.5,39.9,377.6L39.9,377.6z"/>
		</g>
	</g>
	<g>
		<g>
			<path class="st8" d="M51.6,357.7c9.8,10.2,14.4,24.5,19.2,37.5c0.1,0.3,0.5,0.2,0.4-0.1c-1.7-5.8-4-11.5-6.5-17.1
				c-3.3-7.3-7.2-14.7-12.9-20.5C51.7,357.2,51.4,357.5,51.6,357.7L51.6,357.7z"/>
		</g>
	</g>
</g>
<g>
	<path class="st0" d="M183,87.2c-2.7-2.6-3.8-5.2-7.4-6c-0.7-0.2-1.5-0.3-2.2-0.7c-1.8-1.1-1.4-3.6-1.8-5.6
		c-0.8-3.9-5.9-6.4-9.7-4.7c-1.6,0.7-3,2.1-4.8,1.9c-3.5-0.2-3.1-4.6-5.5-7c-2.3-2.3-6.9-2.6-9.8-1.2c-2,1-3.8,2.4-5.2,4.2
		s-1.4,4.7-2.4,6.7s-3.4,2.8-4.4,4.7c-0.9,1.7-1.2,3.5-0.4,5.2c1.5,3.6,5.9,6.2,9.8,6.2c6.4,0,53.7,0,53.7,0S185.9,90.1,183,87.2z"
		/>
</g>
<g>
	<g>
		
			<linearGradient id="SVGID_6_" gradientUnits="userSpaceOnUse" x1="-228.6988" y1="-251.1381" x2="-200.0863" y2="-201.5798" gradientTransform="matrix(-1 0 -0.2126 -1 124.3734 164)">
			<stop  offset="0" style="stop-color:#05B18B"/>
			<stop  offset="1" style="stop-color:#1FCED1"/>
		</linearGradient>
		<path class="st13" d="M364.5,411.2c-2.7-13.9,0.1-28.2,5.7-40.2c3.6-7.8,12-18.7,21.4-18.5c7,0.1,9.9,7.1,10.3,13.4
			c1.1,16.5-6.7,21.6-6.7,39.4c0.4-6.8,6.9-28.7,17.1-21.2c10,7.3,0.3,27,0.3,27"/>
	</g>
	<g>
		<g>
			<path class="st8" d="M409.5,388.4c-4.2,6.8-8,14.6-8.4,22.8c0,0.2,0.4,0.3,0.4,0.1c1.1-8.2,4.2-15.5,8.3-22.6
				C409.9,388.4,409.6,388.2,409.5,388.4L409.5,388.4z"/>
		</g>
	</g>
	<g>
		<g>
			<path class="st8" d="M390.9,362.6c-5.5,7.7-8,17.4-10,26.5c-1.6,7.3-2.7,14.7-3.3,22.1c0,0.2,0.4,0.3,0.4,0.1
				c1-7.2,1.9-14.5,3.4-21.6c1.9-9.2,4.4-19,9.8-26.8C391.3,362.5,391,362.4,390.9,362.6L390.9,362.6z"/>
		</g>
	</g>
</g>
<g>
	<path class="st14" d="M351.7,212.8c-2.6-1.1-6.3-4.2-5.8-6c0.2-0.8,2,1.3,2.5,0.8c0.3-0.3,0.1-1.9-0.9-2.6
		c-0.9-0.7-2.9-2.1-2.4-2.6s5.2,0.6,6.3,2.2c0.7,1,1.4,3.3,1.9,5.7l2,2.5"/>
</g>
<g>
	<path class="st15" d="M401.3,413.9c0,0-8.1,2.4-8.1,4.3c0,1.1,11.8,0.8,12.6,0.1c1.1-1.1-1-4.2-1-4.2L401.3,413.9z"/>
	<path class="st14" d="M401.3,408.8v5.3c0,0,0.3,0.9,1.5,1s2-1,2-1l0.1-6.6"/>
	
		<linearGradient id="SVGID_7_" gradientUnits="userSpaceOnUse" x1="389.9814" y1="-185.95" x2="422.0052" y2="-185.95" gradientTransform="matrix(1 0 0 -1 0 164)">
		<stop  offset="0" style="stop-color:#1C1C1C"/>
		<stop  offset="1" style="stop-color:#0A0A0A"/>
	</linearGradient>
	<path class="st16" d="M391.7,291c0,0-3.7,20.6-0.1,60c2.4,26.9,8.3,59.3,10.1,59.3c1.7,0,3.3-0.2,3.3-0.2s9.8-39.3,9.8-61.2
		c0-33.9,11.4-41.9,5.7-59.3"/>
	<polygon class="st17" points="400.4,408.3 400.8,410.6 405.7,410.6 405.8,408.3 	"/>
</g>
<g>
	<path class="st15" d="M426.4,413.9c0,0-8.1,2.4-8.1,4.3c0,1.1,11.8,0.8,12.6,0.1c1.1-1.1-1-4.2-1-4.2L426.4,413.9z"/>
	<path class="st14" d="M426.4,408.8v5.3c0,0,0.3,0.9,1.5,1s2-1,2-1l0.1-6.6"/>
	
		<linearGradient id="SVGID_8_" gradientUnits="userSpaceOnUse" x1="406.0528" y1="-186" x2="437.6303" y2="-186" gradientTransform="matrix(1 0 0 -1 0 164)">
		<stop  offset="0" style="stop-color:#1C1C1C"/>
		<stop  offset="1" style="stop-color:#0A0A0A"/>
	</linearGradient>
	<path class="st18" d="M406.1,291c0,0,3,26.1,6.7,56.2c1.4,11.9,12.1,61.5,13.4,63.2c1.7,0,4.4,0,4.4,0s5.3-43.3,5.3-65.3
		c0-33.9,4.6-38.1-1-55.5"/>
	<polygon class="st17" points="425.4,408.3 425.8,410.6 430.7,410.6 430.8,408.3 	"/>
	<path class="st19" d="M407.6,304.2c0,0,2.9,33.4,6.7,52.9"/>
</g>
<linearGradient id="SVGID_9_" gradientUnits="userSpaceOnUse" x1="394.2" y1="-84.0099" x2="394.2" y2="-130.6998" gradientTransform="matrix(1 0 0 -1 0 164)">
	<stop  offset="0" style="stop-color:#1FCED1"/>
	<stop  offset="1" style="stop-color:#2D6AC7"/>
</linearGradient>
<path class="st20" d="M435.9,286.7c0-2.2,1.7-39.4-4.8-47.8c-1.8-3.9-8.6-8.3-14-10.3c-4.7-1.7-7.7-0.4-9.9-0.1
	c-9.1-2.6-29.8-0.9-35.6-3.8c-3.2-1.6-18-14.5-18-14.5l-2.8,2.2c0,0,8.9,18.5,18.8,25c7,4.6,17.4,7.1,23,8.2c-0.1,1-0.1,2.1-0.2,3.4
	c-0.3,6.6-1.1,18.3-0.3,37.7c0.1,1.8-1.9,4.2-1.9,5.4c0,1.2,2.4,5.1,22.4,5.1c16.9,0,25-2.5,25-5.3S435.9,288.9,435.9,286.7z"/>
<g>
	
		<linearGradient id="SVGID_10_" gradientUnits="userSpaceOnUse" x1="392.4303" y1="-77.8" x2="393.3915" y2="-77.8" gradientTransform="matrix(1 0 0 -1 0 164)">
		<stop  offset="0" style="stop-color:#2D6AC7"/>
		<stop  offset="1" style="stop-color:#1FCED1"/>
	</linearGradient>
	<path class="st21" d="M393.1,238c0.1,1.3,0.1,2.6,0,3.8c-0.1,1.3-0.2,2.5-0.5,3.8c-0.1-1.3-0.1-2.6,0-3.8
		C392.7,240.5,392.9,239.3,393.1,238z"/>
</g>
<g>
	<path class="st14" d="M406.1,205.8c-0.8,3-2.6,11.2-0.9,13.8c1.7,2.5,5.3,3.3,8.1,2.1c2.8-1.2,4.7-3.9,5.6-6.8s0.9-6,0.7-9"/>
</g>
<path class="st14" d="M409.3,216.7l-1.2,9.9c0,0,0.4,2.8,1.9,3.8c3.7-0.1,5.6-3.6,5.6-3.6l-1.1-12.8"/>
<g>
	<path class="st15" d="M415.9,208.6c-1.9-0.7-4.6-0.4-7-0.9c-1.7-0.3-3.5-0.3-5.1-1c-2.9-1.3-2.6-5.6-0.3-7.3
		c0.6-0.4,1.5-0.9,2.3-0.7s1.2,1.1,1.9,1.4c0.4,0.2,0.8,0.2,1.3,0.2c0.3,0,0.6-0.1,0.9-0.3c0.4-0.4,0.6-0.9,1-1.3
		c0.4-0.4,0.9-0.6,1.4-0.7c1.1-0.3,2.4-0.1,3.3,0.5c0.3,0.2,0.6,0.5,1,0.7c0.6,0.2,1.3,0.2,1.9,0.5c1.6,0.9,2.7,3.2,2.8,4.9
		c0,0.3,0.5,0.6,0.6,0.7c1.6,1.9,1.7,4.5,1.3,6.8c-0.4,2.3-1.2,4.5-3.1,6c-0.6,0.5-1.6,0.8-2.5,1.1
		C414.3,220.4,416,211.2,415.9,208.6"/>
</g>
<g>
	<path class="st14" d="M416.3,213.7c0-0.7,1-1.2,1.7-0.8c0.4,0.3,0.6,0.6,0.7,1c0.1,0.9-0.6,2.3-1.7,2.5c-0.4,0.1-0.9-0.5-0.9-0.9"
		/>
</g>
<g>
	<path class="st22" d="M410.1,284h-39.9l-3.9-24.1c-0.2-1,0.6-2,1.7-2h35.5c1.4,0,2.5,1,2.7,2.3L410.1,284z"/>
	
		<linearGradient id="SVGID_11_" gradientUnits="userSpaceOnUse" x1="404.0867" y1="-124.8133" x2="369.6254" y2="-90.3519" gradientTransform="matrix(1 0 0 -1 0 164)">
		<stop  offset="0" style="stop-color:#5789EE"/>
		<stop  offset="1" style="stop-color:#78BFFF"/>
	</linearGradient>
	<path class="st23" d="M408.9,284H369l-3.9-24.1c-0.2-1,0.6-2,1.7-2h35.5c1.4,0,2.5,1,2.7,2.3L408.9,284z"/>
	<path class="st24" d="M389.1,270.3c-0.4-2-2-3.5-3.5-3.2s-2.3,2.1-1.9,4.1s2,3.5,3.5,3.2C388.7,274.2,389.5,272.4,389.1,270.3z"/>
</g>
<path class="st14" d="M406.1,281.7c0,0-1.8,1.1-2.1,1.1c-0.2,0-1.8-0.8-2.7-0.7c-0.9,0.1-1.8,0.2-1.8,0.4c0,0.3,1.3,0.3,1.3,0.5
	s-0.9,0.8-1.3,0.8s-2.8-0.1-2.9,0s0.5,1.1,1.2,1.6c0.3,0.2,1.4,0.6,2.1,0.6c1.7,0,4.2-0.5,4.5-0.7c0.6-0.4,3.2-1.5,3.2-1.5"/>
<linearGradient id="SVGID_12_" gradientUnits="userSpaceOnUse" x1="421.2775" y1="-84.0099" x2="421.2775" y2="-123.9296" gradientTransform="matrix(1 0 0 -1 0 164)">
	<stop  offset="0" style="stop-color:#2D6AC7"/>
	<stop  offset="1" style="stop-color:#1FCED1"/>
</linearGradient>
<path class="st25" d="M417.2,228.7c0,0,11.7,0.7,17.2,11.5s3.8,33.8,0.4,37.2s-29.2,7.6-29.2,7.6l-1-2.4l18.2-11.4
	c0,0-5.7-19-5.7-26.7"/>
<g>
	<path class="st26" d="M334.7,106.7l-6.2,2.6c-0.7,0.3-0.8,1.2-0.3,1.7l4.4,3.8c0.6,0.5,1.4,0.2,1.6-0.5l1.8-6.4
		C336.3,107,335.5,106.3,334.7,106.7z"/>
	<path class="st26" d="M68.5,187.5l1.8,6.5c0.2,0.7,1.1,1,1.6,0.5l4.3-3.9c0.5-0.5,0.4-1.4-0.3-1.7l-6.1-2.5
		C69.1,186,68.3,186.7,68.5,187.5z"/>
	<path class="st26" d="M462.4,265.1l4.8-4.7c0.5-0.5,0.3-1.4-0.4-1.7l-5.6-1.9c-0.7-0.2-1.4,0.3-1.3,1.1l0.8,6.6
		C460.8,265.3,461.8,265.7,462.4,265.1z"/>
	<path class="st26" d="M440.1,191.7l1.7,6.5c0.2,0.7,1.1,1,1.6,0.5l4.4-3.9c0.5-0.5,0.4-1.4-0.3-1.7l-6.1-2.6
		C440.7,190.2,439.9,190.9,440.1,191.7z"/>
	
		<rect x="417.4" y="179.2" transform="matrix(0.7945 -0.6073 0.6073 0.7945 -23.8042 291.8685)" class="st27" width="3.8" height="3.8"/>
	
		<rect x="388.3" y="152.2" transform="matrix(0.999 -4.449524e-02 4.449524e-02 0.999 -6.4702 17.5145)" class="st27" width="3.8" height="3.8"/>
	
		<rect x="142.6" y="202.4" transform="matrix(0.9317 -0.3632 0.3632 0.9317 -64.3344 66.4333)" class="st27" width="3.8" height="3.8"/>
	
		<rect x="179.3" y="108.9" transform="matrix(0.3579 -0.9338 0.9338 0.3579 12.8682 240.3875)" class="st27" width="3.8" height="3.8"/>
	
		<rect x="29.1" y="299.9" transform="matrix(0.999 -4.449524e-02 4.449524e-02 0.999 -13.3978 1.6782)" class="st27" width="3.8" height="3.8"/>
</g>
<g>
	<g>
		<path class="st28" d="M125.8,178.3c-2.6-3.7-8.6-2.5-11.9-0.3c-4.7,3.1-5.1,10.5-9.4,14.1c-1.9,1.6-4.3,2.7-5.7,4.7
			c-1.7,2.4-1.7,5.7-0.5,8.3s3.6,4.6,6.2,5.9c2.6,1.2,5.5,1.8,8.3,2.1c4.5,0.6,9.3,0.6,13.5-1.3c4.1-1.9,7.5-6.3,7-11
			c-0.4-3.9-3.4-7.3-3.3-11.3"/>
	</g>
	<g>
		<path class="st14" d="M125.7,202l-1.1-8l-3.5,0.9l-1.7,8.4c0,0,1.3,1.6,3.9,0.9C125.6,203.6,125.7,202,125.7,202z"/>
	</g>
	<g>
		<path class="st14" d="M116.9,191.4c-0.5-3.1,0.1-6.6,1.6-8.7c1.5-2,4.6-2.6,6.9-2.5c0.8,0,1.6,0.2,2.3,0.7c2.5,1.7,2.8,6,2.9,8.7
			c0.1,2.3-0.3,4.6-1.6,6.5c-0.4,0.6-0.9,1.2-1.5,1.5c-2.1,1.1-5.2,0.9-7.2-0.3C118.2,196,117.2,193.6,116.9,191.4z"/>
	</g>
	<g>
		<path class="st28" d="M116.1,194c-0.8,0.5-2.1,0.9-2.8,0c-0.6-0.7-0.3-1.8-0.2-2.6c0.3-2.6,0.8-5.2,1.4-7.7
			c0.3-1.3,0.7-2.6,1.4-3.8c1.3-2.3,5.6-3.7,8.2-3.7c2.8-0.5,7.8,3.7,5.9,9.3c-0.5-1.3-1-1.1-2.1-2.1c-0.8,1-2.1,1.7-3.4,1.9
			c-1.7,0.3-3.7,0.1-4.9,1.5s-0.7,3.5-1.4,5.2C117.8,192.8,117,193.5,116.1,194z"/>
	</g>
</g>
<g>
	<g>
		<path class="st29" d="M107.6,391.8c0,0-8.1,2.4-8.1,4.3c0,1.1,11.8,0.8,12.6,0.1c1.1-1.1-0.9-4.6-0.9-4.6L107.6,391.8z"/>
		<path class="st14" d="M107.6,386.7v5.3c0,0,0.3,0.9,1.5,1s2-1,2-1l0.1-6.6"/>
		
			<linearGradient id="SVGID_13_" gradientUnits="userSpaceOnUse" x1="98.4517" y1="-146.55" x2="127.0902" y2="-146.55" gradientTransform="matrix(1 0 0 -1 0 164)">
			<stop  offset="0" style="stop-color:#1C1C1C"/>
			<stop  offset="1" style="stop-color:#0A0A0A"/>
		</linearGradient>
		<path class="st30" d="M123.8,232.9l-13.6,8.1c-5.4,7-11.8,26.8-11.8,64.5c0,26.6,8.6,82.3,8.6,82.3l4.9,0.4
			c15.8-99.6,10.4-98.6,14.4-116.3C128.9,260.9,123.8,232.9,123.8,232.9z"/>
		
			<linearGradient id="SVGID_14_" gradientUnits="userSpaceOnUse" x1="121.0375" y1="-151.7676" x2="121.0375" y2="-116.8302" gradientTransform="matrix(1 0 0 -1 0 164)">
			<stop  offset="0" style="stop-color:#29225E"/>
			<stop  offset="1" style="stop-color:#3F368C"/>
		</linearGradient>
		<path class="st31" d="M123.3,303.6c0,0-3.4-18.9-3.4-22.8c-1.5,7.7-1.5,17.7,0,24.7c1.1,5.2,2.2,10.2,2.2,10.2L123.3,303.6z"/>
		<path class="st17" d="M106.9,386.5v2.1c0,0,5.2,0.9,5.2,0.5c0-0.3,0.2-2.4,0.2-2.4L106.9,386.5z"/>
	</g>
	<g>
		<path class="st29" d="M150.6,391.8c0,0,8.1,2.4,8.1,4.3c0,1.1-11.8,0.8-12.6,0.1c-1.1-1.1,0.9-4.6,0.9-4.6L150.6,391.8z"/>
		<path class="st14" d="M149.7,386.7l0.9,5.3c0,0-0.3,0.9-1.5,1s-2-1-2-1l-1-6.6"/>
		
			<linearGradient id="SVGID_15_" gradientUnits="userSpaceOnUse" x1="118.4173" y1="-146.65" x2="151.2715" y2="-146.65" gradientTransform="matrix(1 0 0 -1 0 164)">
			<stop  offset="0" style="stop-color:#1C1C1C"/>
			<stop  offset="1" style="stop-color:#0A0A0A"/>
		</linearGradient>
		<path class="st32" d="M136.5,237.9c5.3,9,14.8,27.5,14.8,65.2c0,26.6-0.7,84.8-0.7,84.8l-4.2,0.4c-13.6-38-25-86.5-27.6-114.7
			c-1.1-11.3,1-40.6,1-40.6"/>
		
			<linearGradient id="SVGID_16_" gradientUnits="userSpaceOnUse" x1="123.95" y1="-85.8139" x2="123.95" y2="-70.8072" gradientTransform="matrix(1 0 0 -1 0 164)">
			<stop  offset="0" style="stop-color:#29225E"/>
			<stop  offset="1" style="stop-color:#3F368C"/>
		</linearGradient>
		<path class="st33" d="M137.1,239c-4.8-1.5-11.3-3-17.5-4.2c0,0.2,0,0.4,0,0.7l-9.3,5.5c-1.1,1.4-2.2,3.4-3.4,5.9
			c2.8,1.1,6.7,2.2,11.9,2.7c7.7,0.7,17.3-0.8,22.2-3.1C139.6,243.5,138.3,241,137.1,239z"/>
		<path class="st17" d="M151.3,386.1v2.1c0,0-5.4,0.9-5.4,0.5c0-0.3-0.2-2.4-0.2-2.4L151.3,386.1z"/>
	</g>
</g>
<g>
	<path class="st14" d="M177.8,217.9l2.5-1.4c0,0,0.4-1.7,1.4-3.6c0.5-0.8,1.9-2.9,2.4-2.9c0.4,0-0.5,2.2-0.3,2.2s3.5-3.5,4.1-3.1
		c0.3,0.2-2.9,3.6-2.9,3.6s3.4-3.7,3.8-3.3c0.4,0.4-3,3.9-3,3.9s3.1-3.4,3.5-3s-2.8,3.6-2.8,3.6s2.8-2.8,3-2.5
		c0.2,0.5-1.5,2.6-4.2,5.4c-0.5,0.5-2.3,1.9-2.5,2c-0.1,0.1-2.9,3-2.9,3"/>
	<g>
		<g>
			<path class="st34" d="M183.7,212.6c0.1,0.9,0.1,1.8-0.1,2.6c-0.2,0.9-0.8,1.5-1.5,2.1c-0.1,0.1,0,0.2,0.1,0.1
				c0.7-0.5,1.3-1.2,1.6-2c0.3-0.9,0.2-1.8,0-2.8C183.8,212.6,183.7,212.6,183.7,212.6L183.7,212.6z"/>
		</g>
	</g>
</g>
<linearGradient id="SVGID_17_" gradientUnits="userSpaceOnUse" x1="143.0957" y1="-52.2864" x2="143.0957" y2="-82.3915" gradientTransform="matrix(1 0 0 -1 0 164)">
	<stop  offset="0" style="stop-color:#2D6AC7"/>
	<stop  offset="1" style="stop-color:#1FCED1"/>
</linearGradient>
<path class="st35" d="M180,217c0,0-17.6,6.8-21.7,6.8c-3.3,0-9-8.9-16.8-15c-4.9-3.8-10.4-5.9-10.4-5.9l-14.7-0.3
	c-1.4,0-3.4,0.1-5.7,0.3l0,0c0,0-3,9.7-5.1,19.6c0,1,0,1.9,0,3c0,2.3-2.8,13.7,0.5,17c3,3,14.4,3.4,18.9,3.4
	c6.6,0,13.4-1.1,15.1-3.4c0.9-1.2,0.7-6.3,0.5-11.1c5.3,3.3,10.1,6.7,16.2,6.7c11.4,0,24.9-17.9,24.9-17.9L180,217z"/>
<linearGradient id="SVGID_18_" gradientUnits="userSpaceOnUse" x1="138.25" y1="-64.908" x2="138.25" y2="-70.7109" gradientTransform="matrix(1 0 0 -1 0 164)">
	<stop  offset="0" style="stop-color:#2D6AC7"/>
	<stop  offset="1" style="stop-color:#1FCED1"/>
</linearGradient>
<polygon class="st36" points="140.8,234.6 140.7,231.3 135.7,226.3 "/>
<linearGradient id="SVGID_19_" gradientUnits="userSpaceOnUse" x1="102.9479" y1="-53.1" x2="106.688" y2="-53.1" gradientTransform="matrix(1 0 0 -1 0 164)">
	<stop  offset="0" style="stop-color:#FCC73C"/>
	<stop  offset="1" style="stop-color:#FC7A3C"/>
</linearGradient>
<path class="st37" d="M105.7,220.7c0-0.6,1-6.3,1-7.2c-1.5,3.2-3.7,7.1-3.7,7.1L105.7,220.7z"/>
<path class="st38" d="M101.5,251.5c4,0,92-44,92-44"/>
<circle class="st38" cx="242" cy="181" r="55.5"/>
<g>
	<g>
		<path class="st14" d="M107.2,241.2c0,0,1.9,1.4,2.6,1.4s2.2-0.5,4.1-0.3c0.9,0.1,3.1,0.6,3.2,0.9s-2,0.3-1.9,0.4s4,1.6,3.8,2.2
			c-0.1,0.3-3.9-1.1-3.9-1.1s4.1,1.4,3.9,1.9s-4.2-1.1-4.2-1.1s3.7,1.4,3.5,1.8s-3.9-0.6-3.9-0.6s3.2,0.7,3,1.1
			c-0.1,0.2-3.6-0.2-6.6-1.4c-2.8-1-5-2.8-5-2.8"/>
	</g>
	<g>
		
			<linearGradient id="SVGID_20_" gradientUnits="userSpaceOnUse" x1="113.8914" y1="-51.9295" x2="79.8436" y2="-84.0858" gradientTransform="matrix(1 0 0 -1 0 164)">
			<stop  offset="0" style="stop-color:#2D6AC7"/>
			<stop  offset="1" style="stop-color:#1FCED1"/>
		</linearGradient>
		<path class="st39" d="M108.1,217.3c-3,4.5-9.8,9.7-13.6,12.9c2.2,2.9,14.5,12.1,14.5,12.1l-1.1,2.7c0,0-23.4-4.2-24.2-15.8
			c-0.4-6.9,8.3-17.1,15.1-21.9c6.4-4.5,13.8-5.2,17.8-3.6"/>
	</g>
</g>
<rect x="-179" y="-418" class="st3" width="136" height="65"/>
<polygon class="st4" points="-209,-353.5 -171.1,-387.5 -132.7,-353.5 "/>
<polygon class="st4" points="-150.3,-353.5 -118.9,-381.7 -87,-353.5 "/>
<polygon class="st4" points="-123.5,-353 -82.3,-390 -40.4,-353 "/>
<path class="st4" d="M-28-362"/>
<text transform="matrix(1 0 0 1 129.6 56.2734)" class="st40 st41 st42">Search Not Found</text>
</svg>
